SplineFontDB: 1.0
FontName: Norasi-Oblique
FullName: Norasi Oblique
FamilyName: Norasi
Weight: Book
Copyright: Copyright © 1999, The National Font Project (v.beta ). Yannis Haralambous, Virach Sornlertlamvanich and Anutara Tantraporn. All rights reserved.\n\nThis release is under GPL license;\nmaintained by TLWG.\nModified by TLWG
Version: 002 May 15, 2004
ItalicAngle: -12
UnderlinePosition: -100
UnderlineWidth: 50
Ascent: 800
Descent: 200
NeedsXUIDChange: 1
FSType: 0
PfmFamily: 17
TTFWeight: 400
TTFWidth: 5
Panose: 2 0 5 6 0 0 0 2 0 4
LineGap: 20
VLineGap: 0
ScriptLang: 3
 1 DFLT 1 dflt 
 1 thai 1 dflt 
 1 latn 1 dflt 
LangName: 1033 "" "" "" "TheOmegaProject(v.beta1).YannisHaralambous,VirachSornlertlamvanichandAnutaraTantraporn: Omega3: 1999" "" "" "" "Norasi Italic is a trademark of the The National Font Project (v.beta ). Yannis Haralambous, Virach Sornlertlamvanich and Anutara Tantraporn." "" "Yannis Haralambous, Virach Sornlertlamvanich and Anutara Tantraporn" "This font was developed under National Font Project at NECTEC as to be a free licensed font for Thai users and developers." "" "" "GPL" 
Encoding: tis-620
UnicodeInterp: none
DisplaySize: -72
AntiAlias: 1
FitToEm: 1
WinInfo: 240 8 10
BeginPrivate: 8
BlueValues 31 [-10 0 307 314 376 385 452 461]
ForceBold 5 false
BlueScale 8 0.039625
BlueFuzz 1 0
StdVW 4 [53]
StemSnapV 37 [15 20 27 33 37 41 48 53 58 65 69 75]
StdHW 4 [25]
StemSnapH 22 [14 19 20 25 34 45 98]
EndPrivate
BeginChars: 424 390
StartChar: .notdef
Encoding: 0 0 0
Width: 250
Flags: HW
HStem: 0 15<15 250> 370 15<0 235>
VStem: 0 15<0 370> 235 15<15 385>
Fore
15 370 m 1
 15 15 l 1
 235 15 l 1
 235 370 l 1
 15 370 l 1
250 0 m 1
 0 0 l 1
 0 385 l 1
 250 385 l 1
 250 0 l 1
EndSplineSet
EndChar
StartChar: exclam
Encoding: 33 33 2
Width: 227
Flags: W
HStem: -6 73<123 139> 442 20G<197.5 232>
Back
250.977 405.762 m 1
 245.117 380.859 l 1
 159.18 120.117 l 1
 149.902 120.117 l 1
 153.809 155.762 157.715 187.988 160.645 215.332 c 0
 163.574 243.164 166.016 268.066 167.969 290.039 c 0
 169.922 312.012 171.875 332.031 173.34 350.586 c 0
 175.293 368.652 176.758 386.719 179.199 403.809 c 1
 187.012 441.895 202.637 460.938 226.074 460.938 c 0
 250.488 460.938 259.277 443.848 251.953 410.156 c 2
 250.977 405.762 l 1
172.852 27.832 m 0
 170.898 18.5547 165.527 11.2305 156.738 4.88281 c 0
 147.461 -0.976562 138.184 -3.90625 127.93 -3.90625 c 0
 103.516 -3.90625 93.75 6.83594 99.1211 27.832 c 0
 103.516 49.8047 118.164 62.5 143.066 64.9414 c 1
 166.992 64.9414 176.758 52.7344 172.852 27.832 c 0
EndSplineSet
Fore
250 428 m 0
 250 413 244 394 241 382 c 1
 155 120 l 1
 146 120 l 1
 155 194 l 2
 158 211 162 247 163 288 c 1
 170 376 172 462 223 462 c 0
 241 462 250 450 250 428 c 0
94 22 m 0
 94 46 117 67 139 67 c 0
 156 67 169 54 169 37 c 0
 169 12 147 -6 123 -6 c 0
 106 -6 94 5 94 22 c 0
EndSplineSet
EndChar
StartChar: quotedbl
Encoding: 34 34 3
Width: 278
Flags: W
HStem: 442 20G<172 187 287 302>
Back
335.938 432.129 m 0
 335.449 426.758 327.148 404.297 312.012 365.234 c 0
 304.688 345.703 298.34 329.59 293.457 317.383 c 0
 288.574 305.176 285.156 295.898 283.203 290.039 c 1
 269.043 290.039 l 1
 270.508 319.336 271.484 342.773 271.973 360.352 c 0
 272.461 377.93 272.949 392.09 273.438 401.855 c 0
 273.926 412.109 273.926 418.945 274.414 422.852 c 0
 274.902 426.758 275.391 430.176 275.879 432.129 c 0
 279.785 451.172 291.992 460.938 312.012 460.938 c 0
 330.566 460.938 338.867 451.172 335.938 432.129 c 0
217.773 432.129 m 0
 217.285 426.758 209.473 404.297 193.848 365.234 c 0
 186.523 345.703 180.664 329.59 175.293 317.383 c 0
 170.41 305.176 166.992 295.898 165.039 290.039 c 1
 150.879 290.039 l 1
 152.344 319.336 153.32 342.773 153.809 360.352 c 0
 154.785 377.93 155.273 392.09 155.273 401.855 c 0
 155.762 412.109 156.25 418.945 156.738 422.852 c 0
 156.738 426.758 157.227 430.176 158.203 432.129 c 0
 162.109 451.172 173.828 460.938 193.848 460.938 c 0
 212.891 460.938 220.703 451.172 217.773 432.129 c 0
EndSplineSet
Fore
266 294 m 1
 252 294 l 1
 254 356 258 423 260 434 c 0
 263 449 279 462 295 462 c 0
 309 462 319 452 319 439 c 0
 319 438 318 436 318 434 c 0
 314 415 284 336 266 294 c 1
151 294 m 1
 136 294 l 1
 139 356 143 423 145 434 c 0
 148 449 164 462 180 462 c 0
 194 462 204 452 204 439 c 0
 204 438 203 436 203 434 c 0
 199 415 168 336 151 294 c 1
EndSplineSet
EndChar
StartChar: numbersign
Encoding: 35 35 4
Width: 341
Flags: W
HStem: 0 21G<54 94 186 226> 147 38<41 107 161 239 292 353> 147 167<89 239 209 353> 277 37<88 156 209 286 339 398> 432 20G<220 259 349 389>
DStem: 107 147 147 147 54 0 94 0 156 277 196 277 122 185 161 185 220 452 259 452 169 314 209 314 239 147 278 147 186 0 226 0 286 277 326 277 253 185 292 185 349 452 389 452 300 314 339 314
Back
410.156 276.855 m 1
 338.867 276.855 l 1
 306.152 186.035 l 1
 374.023 186.035 l 1
 365.234 147.949 l 1
 290.039 147.949 l 1
 238.77 0 l 1
 199.219 0 l 1
 250.977 147.949 l 1
 159.18 147.949 l 1
 105.957 0 l 1
 65.918 0 l 1
 119.141 147.949 l 1
 45.8984 147.949 l 1
 55.1758 186.035 l 1
 134.766 186.035 l 1
 167.969 276.855 l 1
 92.7734 276.855 l 1
 101.074 314.941 l 1
 182.129 314.941 l 1
 231.934 452.148 l 1
 270.996 452.148 l 1
 222.168 314.941 l 1
 312.988 314.941 l 1
 361.816 452.148 l 1
 400.879 452.148 l 1
 352.051 314.941 l 1
 417.969 314.941 l 1
 410.156 276.855 l 1
298.828 276.855 m 1
 208.008 276.855 l 1
 173.828 186.035 l 1
 266.113 186.035 l 1
 298.828 276.855 l 1
EndSplineSet
Fore
361 185 m 1xd8
 353 147 l 1xd8
 278 147 l 1xa8
 226 0 l 1
 186 0 l 1
 239 147 l 1xc8
 147 147 l 1xa8
 94 0 l 1
 54 0 l 1
 107 147 l 1xc8
 34 147 l 1xa8
 42 185 l 1
 122 185 l 1
 156 277 l 1
 81 277 l 1xd8
 89 314 l 1
 169 314 l 1
 220 452 l 1
 259 452 l 1
 209 314 l 1
 300 314 l 1
 349 452 l 1
 389 452 l 1
 339 314 l 1xa8
 406 314 l 1
 398 277 l 1
 326 277 l 1
 292 185 l 1
 361 185 l 1xd8
286 277 m 1
 196 277 l 1
 161 185 l 1
 253 185 l 1
 286 277 l 1
EndSplineSet
EndChar
StartChar: dollar
Encoding: 36 36 5
Width: 341
Flags: W
HStem: -59 78<156 167>
VStem: 107 55<325 349> 282 59<123 149>
DStem: 157 0 180 0 144 -59 167 -59 202 212 223 200 161 19 184 19 248 435 272 435 215 278 237 267 262 496 285 496 253 453 276 453
Back
357.91 122.07 m 0
 342.773 53.2227 289.062 12.6953 196.777 0 c 1
 184.082 -59.082 l 1
 160.156 -59.082 l 1
 172.852 0 l 1
 125.488 0 84.9609 12.207 50.7812 36.1328 c 1
 69.8242 126.953 l 1
 80.0781 126.953 l 1
 81.543 55.6641 113.77 20.0195 176.758 20.0195 c 1
 219.238 216.797 l 1
 201.66 228.516 187.012 238.77 174.316 248.535 c 0
 162.109 258.301 152.344 267.09 145.02 274.902 c 0
 125 300.293 118.164 328.125 124.023 357.91 c 0
 130.859 390.625 149.414 416.992 180.176 437.012 c 0
 206.543 455.566 237.305 464.844 271.973 464.844 c 1
 280.762 508.789 l 1
 305.176 508.789 l 1
 295.898 464.844 l 1
 351.074 455.078 l 2
 371.582 451.172 388.184 441.895 399.902 428.223 c 1
 382.812 350.098 l 1
 373.047 350.098 l 1
 375 408.203 348.145 439.941 291.992 445.801 c 1
 254.883 273.926 l 1
 312.012 233.887 l 1
 341.797 206.055 l 1
 359.863 183.105 365.234 155.273 357.91 122.07 c 0
232.91 285.156 m 1
 267.09 445.801 l 1
 217.773 437.988 188.477 413.574 179.199 372.07 c 0
 175.781 355.469 179.199 339.844 188.965 325.195 c 1
 232.91 285.156 l 1
299.805 105.957 m 0
 304.199 127.93 299.805 147.461 288.086 164.062 c 0
 281.25 172.852 265.625 186.523 241.211 205.078 c 1
 201.172 20.0195 l 1
 255.859 28.8086 288.574 57.1289 299.805 105.957 c 0
EndSplineSet
Fore
362 341 m 1
 352 341 l 1
 352 344 l 0
 352 400 328 428 272 435 c 1
 237 267 l 1
 310 219 325 206 336 178 c 0
 339 171 341 160 341 149 c 0
 341 96 318 60 285 36 c 1
 255 16 233 8 180 0 c 1
 167 -59 l 1
 144 -59 l 1
 157 0 l 1
 100 2 73 10 37 35 c 1
 56 124 l 1
 66 124 l 1
 68 52 97 20 161 19 c 1
 202 212 l 1
 160 239 147 249 131 268 c 0
 114 287 107 304 107 325 c 0
 107 368 131 403 162 425 c 1
 189 442 209 449 253 453 c 1
 262 496 l 1
 285 496 l 1
 276 453 l 1
 333 447 360 436 379 417 c 1
 362 341 l 1
215 278 m 1
 248 435 l 1
 199 425 171 402 164 365 c 0
 163 359 162 354 162 349 c 0
 162 326 176 309 215 278 c 1
223 200 m 1
 184 19 l 1
 240 29 270 55 279 100 c 0
 281 109 282 116 282 123 c 0
 282 150 267 168 223 200 c 1
EndSplineSet
EndChar
StartChar: percent
Encoding: 37 37 6
Width: 568
Flags: W
HStem: 0 20<389 404> 197 24<164 181> 231 22<511 517> 398 17<369 406> 432 20<283 289>
VStem: 100 49<252 265> 323 48<50 63> 327 17<390 405> 548 20<187 202>
DStem: 466 419 531 462 135 -9 168 -9
Back
546.875 473.145 m 1
 174.805 -6.83594 l 1
 142.09 -6.83594 l 1
 478.027 425.781 l 1
 450.195 414.062 423.828 408.203 398.926 408.203 c 0
 377.441 408.203 362.793 410.156 354.004 415.039 c 1
 353.027 383.789 l 1
 345.703 352.539 332.52 323.242 312.988 294.922 c 0
 310.547 291.504 307.129 287.598 303.223 282.715 c 0
 298.828 277.344 294.434 271.973 289.062 266.113 c 0
 250.488 223.145 210.449 202.148 169.922 202.148 c 0
 144.531 202.148 126.465 211.426 116.211 229.98 c 0
 105.469 248.535 102.539 270.996 107.91 296.875 c 0
 116.699 336.914 139.648 374.512 176.758 410.156 c 0
 216.309 445.312 254.883 462.891 292.969 462.891 c 0
 308.105 462.891 324.707 456.543 341.797 443.848 c 1
 363.281 432.129 382.812 425.781 399.902 425.781 c 0
 436.523 425.781 476.562 441.895 519.043 473.145 c 1
 546.875 473.145 l 1
581.055 183.105 m 0
 572.266 140.137 551.27 100.098 518.066 62.9883 c 0
 481.934 20.9961 443.359 0 401.855 0 c 0
 374.023 0 354.492 8.78906 344.238 26.8555 c 0
 333.496 44.9219 330.566 67.8711 335.938 96.1914 c 0
 345.215 135.254 368.652 172.363 405.762 207.031 c 0
 444.824 242.188 482.91 259.766 520.996 259.766 c 0
 572.266 259.766 592.285 234.375 581.055 183.105 c 0
334.961 387.207 m 0
 336.914 393.555 337.402 404.785 335.938 419.922 c 1
 324.219 423.34 312.988 428.223 303.223 435.059 c 2
 295.898 440.918 l 1
 292.969 441.895 l 2
 268.555 441.895 240.234 420.41 208.008 376.953 c 0
 180.176 338.379 163.086 305.176 157.227 277.832 c 0
 150.391 243.164 161.133 226.074 188.965 226.074 c 0
 220.215 226.074 251.953 245.605 284.18 285.156 c 0
 311.523 318.848 328.125 353.027 334.961 387.207 c 0
562.012 178.223 m 0
 565.43 193.848 563.965 208.008 557.617 219.727 c 0
 551.27 230.957 540.527 236.816 524.902 236.816 c 0
 495.605 236.816 464.844 213.867 432.129 166.992 c 0
 405.273 129.883 389.648 98.6328 384.766 74.2188 c 0
 376.953 38.5742 388.184 20.9961 417.969 20.9961 c 0
 448.73 20.9961 479.492 40.5273 509.766 79.1016 c 0
 537.109 111.816 554.688 144.531 562.012 178.223 c 0
EndSplineSet
Fore
511 253 m 0xfe80
 548 253 568 235 568 202 c 0
 568 145 520 72 475 35 c 0
 446 11 419 0 389 0 c 0
 347 0 323 24 323 63 c 0
 323 71 324 79 326 88 c 0
 344 173 434 253 511 253 c 0xfe80
511 231 m 0
 489 231 468 219 444 192 c 0
 411 156 379 100 372 64 c 0
 371 60 371 56 371 52 c 0
 371 33 384 20 404 20 c 0
 471 20 534 121 547 177 c 0
 548 181 548 185 548 189 c 0
 548 213 533 231 511 231 c 0
531 462 m 1
 168 -9 l 1
 135 -9 l 1
 466 419 l 1
 436 403 417 398 387 398 c 0
 367 398 355 400 343 405 c 1
 344 400 344 396 344 392 c 0xfd80
 344 386 343 381 342 375 c 0
 326 301 251 197 164 197 c 0
 126 197 100 226 100 265 c 0
 100 271 101 277 102 284 c 0
 121 371 211 452 289 452 c 0
 310 452 318 449 332 434 c 0
 346 420 360 415 388 415 c 0
 430 415 460 427 504 462 c 1
 531 462 l 1
326 410 m 1
 307 415 300 419 292 427 c 0
 289 431 288 432 285 432 c 0
 233 432 160 313 150 262 c 0
 149 258 149 255 149 252 c 0
 149 233 161 221 181 221 c 0
 236 221 309 299 325 376 c 0
 326 382 327 388 327 394 c 0
 327 399 326 404 326 410 c 1
EndSplineSet
EndChar
StartChar: ampersand
Encoding: 38 38 7
Width: 531
Flags: W
HStem: -9 49<407 449> 440 22<333 348>
VStem: 46 69<69 102> 210 60<322 348> 382 36<396 398>
Back
539.062 67.8711 m 1
 536.133 62.0117 532.227 55.6641 526.367 48.8281 c 0
 520.996 42.4805 514.16 35.1562 506.836 27.832 c 0
 479.492 4.88281 450.684 -6.83594 419.922 -6.83594 c 0
 384.766 -6.83594 350.098 13.1836 315.918 53.2227 c 1
 280.762 27.832 l 1
 253.906 13.1836 l 1
 220.215 -0.488281 186.523 -6.83594 152.832 -6.83594 c 0
 117.676 -6.83594 91.7969 1.46484 75.6836 19.043 c 0
 59.082 36.1328 54.6875 62.5 62.0117 98.1445 c 0
 72.7539 151.367 118.164 199.219 199.219 242.188 c 1
 229.98 256.836 l 1
 224.121 312.988 l 1
 225.098 354.004 l 1
 228.516 368.652 233.887 382.324 242.188 395.508 c 0
 250 408.691 259.766 419.922 271.484 429.688 c 0
 283.203 438.965 295.898 446.777 310.059 452.637 c 0
 324.219 458.008 338.379 460.938 353.027 460.938 c 0
 378.418 460.938 398.438 453.613 414.062 438.965 c 0
 429.199 424.316 434.57 404.297 429.199 378.906 c 0
 425.781 364.258 419.922 351.074 411.621 338.379 c 0
 403.32 326.172 391.113 314.453 375.977 303.223 c 0
 368.652 297.852 358.398 291.504 345.703 285.156 c 0
 332.52 278.32 316.895 270.508 297.852 262.207 c 1
 305.176 235.84 313.965 211.426 324.707 187.988 c 0
 334.961 164.551 346.191 142.578 358.887 122.07 c 1
 411.133 175.293 439.941 216.309 445.801 245.117 c 0
 450.195 265.625 437.5 275.879 409.18 275.879 c 1
 412.109 291.016 l 1
 561.035 291.016 l 1
 558.105 275.879 l 1
 542.48 273.926 530.273 270.996 520.996 267.09 c 0
 511.23 263.184 498.535 252.441 483.887 235.84 c 1
 460.938 205.078 l 1
 446.289 187.012 431.641 169.434 416.504 151.855 c 0
 401.367 134.766 386.23 118.164 370.117 102.051 c 1
 375.488 89.8438 382.324 79.1016 391.113 69.8242 c 0
 399.902 60.5469 411.133 53.2227 424.805 46.875 c 0
 432.129 42.4805 443.359 40.0391 458.008 40.0391 c 0
 474.121 40.0391 488.281 43.457 500.977 49.8047 c 0
 504.395 51.2695 508.301 54.1992 512.695 58.5938 c 0
 516.602 62.9883 522.461 68.8477 529.785 76.1719 c 1
 539.062 67.8711 l 1
393.066 381.836 m 0
 396.484 397.949 394.531 411.621 387.207 422.852 c 0
 379.883 434.57 368.164 439.941 352.051 439.941 c 0
 315.918 439.941 293.945 419.922 286.133 379.883 c 0
 279.785 352.051 282.227 319.824 291.992 284.18 c 1
 351.562 312.012 384.766 344.727 393.066 381.836 c 0
304.199 70.8008 m 1
 279.297 110.352 255.859 164.551 233.887 233.887 c 1
 198.242 212.891 l 1
 173.828 193.848 l 1
 149.902 170.898 135.254 146.973 129.883 123.047 c 0
 127.441 110.352 126.953 98.1445 128.906 86.4258 c 0
 130.859 74.707 134.766 64.4531 141.113 55.6641 c 0
 146.973 46.3867 154.785 39.5508 164.551 34.1797 c 0
 174.316 28.8086 185.547 25.8789 198.242 25.8789 c 0
 226.562 25.8789 262.207 41.0156 304.199 70.8008 c 1
EndSplineSet
Fore
210 322 m 0
 210 406 275 462 341 462 c 0
 388 462 418 435 418 396 c 0
 418 391 417 385 416 379 c 0
 411 356 397 333 379 317 c 0
 356 296 336 284 285 262 c 1
 302 203 317 169 346 122 c 1
 401 180 428 216 434 246 c 0
 435 249 435 252 435 255 c 0
 435 268 424 274 397 277 c 1
 400 291 l 1
 547 291 l 1
 544 277 l 1
 509 272 494 264 471 236 c 2
 448 205 l 2
 418 168 395 143 357 102 c 1
 380 61 411 40 449 40 c 0
 474 40 490 48 518 76 c 1
 526 68 l 1
 496 20 451 -9 407 -9 c 0
 367 -9 338 9 304 53 c 1
 244 8 199 -9 143 -9 c 0
 81 -9 46 20 46 69 c 0
 46 144 105 200 187 242 c 2
 217 257 l 1
 212 287 210 306 210 322 c 0
338 440 m 0
 294 440 270 401 270 348 c 0
 270 330 273 310 279 284 c 1
 342 314 372 343 380 382 c 0
 381 387 382 392 382 396 c 0
 382 422 365 440 338 440 c 0
222 234 m 1
 149 193 115 157 115 102 c 0
 115 59 144 27 186 27 c 0
 214 27 244 39 291 71 c 1
 262 119 246 156 222 234 c 1
EndSplineSet
EndChar
StartChar: quotesingle
Encoding: 39 39 8
Width: 163
Flags: W
HStem: 442 20G<172 187>
Back
216.797 405.762 m 0
 212.891 388.672 200.195 368.164 178.223 345.215 c 0
 158.203 325.684 137.695 311.523 117.188 303.223 c 1
 113.77 315.918 l 1
 158.203 341.309 182.129 366.211 187.012 391.113 c 0
 188.477 396.973 185.547 399.902 179.199 399.902 c 2
 170.898 398.926 l 1
 162.109 397.949 l 2
 132.812 397.949 120.605 409.668 125.977 433.105 c 0
 131.348 456.543 147.949 469.727 175.781 473.145 c 1
 187.988 473.145 198.242 469.238 207.031 460.938 c 0
 219.238 448.242 222.168 430.176 216.797 405.762 c 0
EndSplineSet
Fore
151 294 m 1
 136 294 l 1
 139 356 143 423 145 434 c 0
 148 449 164 462 180 462 c 0
 194 462 204 452 204 439 c 0
 204 438 203 436 203 434 c 0
 199 415 168 336 151 294 c 1
EndSplineSet
EndChar
StartChar: parenleft
Encoding: 40 40 9
Width: 227
Flags: W
VStem: 61 53<55 96>
Back
210.938 -110.84 m 1
 200.195 -122.07 l 1
 175.293 -107.422 154.297 -87.8906 137.695 -62.9883 c 0
 120.605 -38.5742 106.445 -8.30078 95.2148 26.8555 c 0
 92.7734 34.1797 91.3086 41.0156 89.3555 47.3633 c 0
 87.8906 53.7109 86.4258 60.5469 85.9375 66.8945 c 0
 82.0312 99.6094 84.9609 138.184 95.2148 183.105 c 0
 121.094 305.664 199.219 402.344 329.102 473.145 c 1
 333.008 461.914 l 1
 290.527 433.105 257.812 404.785 235.84 376.953 c 0
 215.82 350.098 199.219 321.289 185.547 290.039 c 0
 171.875 258.789 162.109 224.609 155.762 187.988 c 1
 141.113 104.98 l 1
 137.695 84.9609 137.207 63.4766 139.16 40.0391 c 0
 141.602 -25.8789 165.527 -76.1719 210.938 -110.84 c 1
EndSplineSet
Fore
114 55 m 0
 114 -28 130 -58 185 -110 c 1
 173 -121 l 1
 143 -99 128 -84 107 -51 c 0
 76 -3 61 43 61 96 c 0
 61 120 64 145 70 172 c 0
 87 252 125 320 186 380 c 0
 217 411 242 429 299 462 c 1
 304 451 l 1
 245 411 220 386 192 344 c 0
 152 285 114 156 114 55 c 0
EndSplineSet
EndChar
StartChar: parenright
Encoding: 41 41 10
Width: 227
Flags: W
VStem: 186 53<241 287>
Back
255.859 166.016 m 0
 243.164 105.469 216.797 50.293 175.781 0.488281 c 0
 135.254 -49.3164 84.4727 -89.8438 22.9492 -122.07 c 1
 18.0664 -110.84 l 1
 36.6211 -98.1445 53.2227 -85.9375 67.3828 -73.7305 c 0
 82.0312 -61.0352 94.7266 -48.3398 106.445 -35.6445 c 0
 118.164 -22.4609 128.418 -8.30078 137.695 6.34766 c 0
 146.484 21.4844 154.785 38.0859 163.086 56.1523 c 0
 176.27 85.9375 187.012 121.094 194.824 161.133 c 0
 202.148 192.871 207.52 221.191 209.961 246.094 c 0
 212.891 270.508 213.867 291.504 212.891 309.082 c 0
 207.52 376.953 183.105 428.223 140.137 461.914 c 1
 151.855 473.145 l 1
 198.242 444.336 230.469 400.879 249.023 341.797 c 0
 267.09 286.133 269.531 227.539 255.859 166.016 c 0
EndSplineSet
Fore
186 287 m 0
 186 368 170 400 116 451 c 1
 126 462 l 1
 157 440 171 425 192 392 c 0
 224 343 239 295 239 241 c 0
 239 219 236 195 231 169 c 0
 214 89 175 20 114 -39 c 0
 82 -70 57 -88 0 -121 c 1
 -3 -110 l 1
 54 -70 79 -46 108 -3 c 0
 147 57 186 187 186 287 c 0
EndSplineSet
EndChar
StartChar: asterisk
Encoding: 42 42 11
Width: 341
Flags: W
HStem: 442 20G<262.5 275>
VStem: 189 53<201 215> 239 51<425 442>
Back
380.859 270.02 m 0
 378.418 253.418 368.164 245.117 351.074 245.117 c 0
 342.285 245.117 331.055 255.371 316.895 275.879 c 0
 309.082 287.109 301.27 296.387 294.434 303.223 c 0
 287.598 309.57 281.25 314.453 275.879 316.895 c 2
 271.973 318.848 l 1
 270.996 313.965 l 2
 267.578 301.27 265.625 289.551 265.137 277.832 c 0
 264.16 266.602 264.648 255.859 266.113 246.094 c 2
 270.02 214.844 l 1
 266.113 197.754 254.395 187.5 234.863 185.059 c 1
 219.238 185.059 212.891 194.336 216.797 212.891 c 1
 233.887 250.977 l 1
 240.723 264.16 245.605 275.391 248.535 283.691 c 0
 251.465 291.992 253.906 297.852 254.883 300.781 c 1
 257.812 313.965 l 1
 257.812 318.848 l 1
 220.215 295.898 l 1
 195.801 275.879 l 1
 172.852 254.883 l 1
 164.551 249.023 155.273 246.094 145.996 246.094 c 0
 130.859 246.094 124.512 253.418 126.953 268.066 c 0
 130.371 283.203 144.531 293.945 169.922 299.805 c 0
 209.473 310.059 237.793 319.824 255.859 330.078 c 1
 249.023 334.961 l 2
 247.07 337.891 227.051 344.727 188.965 355.957 c 0
 162.109 364.746 150.391 375.977 152.832 390.137 c 0
 154.297 395.996 157.715 401.855 163.086 407.227 c 0
 166.504 410.156 172.363 412.598 181.152 414.062 c 0
 191.895 414.062 202.148 406.25 211.914 391.113 c 0
 226.074 368.164 243.164 351.562 263.184 339.844 c 1
 265.137 349.121 l 2
 266.113 355.469 267.09 362.793 267.578 371.094 c 0
 268.066 378.906 267.578 388.184 267.09 398.926 c 0
 265.625 410.156 265.137 419.922 265.625 427.734 c 0
 265.625 435.059 266.602 441.406 268.066 445.801 c 0
 271.973 463.867 282.715 473.145 299.805 473.145 c 0
 315.918 473.145 321.777 463.867 317.871 445.801 c 1
 300.781 408.203 l 2
 288.574 381.348 281.25 364.258 279.785 356.934 c 2
 275.879 338.867 l 1
 282.227 341.797 l 2
 298.828 350.586 318.848 366.211 342.773 388.184 c 0
 362.793 405.762 377.441 415.039 386.23 415.039 c 0
 403.809 415.039 411.133 406.738 407.227 390.137 c 0
 403.809 377.93 396.973 369.141 387.207 363.77 c 1
 346.191 354.98 l 2
 320.801 349.609 298.828 340.82 279.785 329.102 c 1
 284.18 325.195 l 1
 311.035 311.035 l 1
 354.98 299.805 l 2
 376.465 294.434 384.766 284.668 380.859 270.02 c 0
EndSplineSet
Fore
242 215 m 0xc0
 242 197 222 181 208 181 c 0
 197 181 189 190 189 201 c 0xc0
 189 202 190 204 190 206 c 0
 191 214 197 225 205 238 c 0
 224 271 229 281 231 311 c 1
 204 296 198 293 190 287 c 0
 184 282 179 279 154 256 c 0
 141 243 134 240 123 240 c 0
 110 240 102 247 102 258 c 0
 102 260 103 262 103 264 c 0
 107 281 120 289 151 294 c 0
 185 300 197 305 228 322 c 1
 210 332 198 341 168 347 c 0
 140 352 127 361 127 373 c 0
 127 375 128 377 128 379 c 0
 131 393 143 404 156 404 c 0
 167 404 174 398 184 382 c 1
 202 357 213 346 236 332 c 1
 238 348 241 362 241 381 c 0
 241 394 239 412 239 425 c 0
 239 430 239 434 240 438 c 0
 243 451 256 462 269 462 c 0
 281 462 290 454 290 442 c 0xa0
 290 440 289 438 289 436 c 0
 287 429 282 418 275 405 c 0
 260 377 255 359 248 330 c 1
 270 343 286 352 311 377 c 1
 332 396 345 405 356 405 c 0
 368 405 375 397 375 386 c 0
 375 363 362 354 333 350 c 0
 302 345 288 340 251 321 c 1
 255 317 l 2
 271 307 291 298 317 294 c 0
 342 290 352 284 352 271 c 0
 352 253 338 239 322 239 c 0
 310 239 300 247 287 268 c 0
 272 294 262 303 244 311 c 1
 240 295 238 273 238 257 c 0
 238 243 242 227 242 215 c 0xc0
EndSplineSet
EndChar
StartChar: plus
Encoding: 43 43 12
Width: 385
Flags: W
HStem: 0 21G<170 215> 150 45<60 202 256 397>
DStem: 202 150 247 150 170 0 215 0 243 345 288 345 211 195 256 195
Back
430.176 160.156 m 1
 270.996 160.156 l 1
 236.816 0 l 1
 202.148 0 l 1
 235.84 160.156 l 1
 77.1484 160.156 l 1
 83.9844 194.824 l 1
 243.164 194.824 l 1
 276.855 354.004 l 1
 312.012 354.004 l 1
 277.832 194.824 l 1
 437.012 194.824 l 1
 430.176 160.156 l 1
EndSplineSet
Fore
211 195 m 1
 243 345 l 1
 288 345 l 1
 256 195 l 1
 406 195 l 1
 397 150 l 1
 247 150 l 1
 215 0 l 1
 170 0 l 1
 202 150 l 1
 52 150 l 1
 61 195 l 1
 211 195 l 1
EndSplineSet
EndChar
StartChar: comma
Encoding: 44 44 13
Width: 170
Flags: W
HStem: -21 20G<96.5 99>
Back
139.16 3.90625 m 0
 137.695 -3.41797 133.789 -12.207 126.953 -21.9727 c 0
 120.117 -32.2266 111.816 -42.4805 101.074 -54.1992 c 0
 79.1016 -76.1719 58.1055 -90.332 39.0625 -97.168 c 1
 36.1328 -83.0078 l 1
 80.0781 -58.1055 104.492 -33.6914 108.887 -8.78906 c 0
 110.352 -2.92969 107.91 0 101.074 0 c 2
 92.7734 -0.976562 l 1
 84.9609 -1.95312 l 2
 55.6641 -1.95312 43.457 8.78906 47.8516 30.7617 c 0
 52.7344 57.6172 68.8477 70.8008 97.168 70.8008 c 0
 115.234 70.8008 127.441 64.4531 134.277 51.2695 c 0
 141.602 38.5742 143.066 22.4609 139.16 3.90625 c 0
EndSplineSet
Fore
44 22 m 0
 44 52 68 70 94 70 c 0
 120 70 137 50 137 23 c 0
 137 19 136 14 135 9 c 0
 126 -32 86 -74 37 -96 c 1
 33 -83 l 1
 75 -58 100 -33 105 -11 c 2
 105 -9 l 2
 105 -4 101 -1 97 -1 c 0
 96 -1 96 -1 90 -3 c 0
 86 -3 82 -4 78 -4 c 0
 57 -4 44 6 44 22 c 0
EndSplineSet
KernsSLIF: 49 -35 0 0 148 -19 0 0 146 -36 0 0
EndChar
StartChar: hyphen
Encoding: 45 45 14
Width: 227
Flags: W
HStem: 132 43<63 223>
Back
270.02 128.906 m 1
 53.2227 128.906 l 1
 60.0586 162.109 l 1
 276.855 162.109 l 1
 270.02 128.906 l 1
EndSplineSet
Fore
64 175 m 1
 232 175 l 1
 223 132 l 1
 55 132 l 1
 64 175 l 1
EndSplineSet
KernsSLIF: 65 -17 0 0 264 -17 0 0 306 -17 0 0 309 -17 0 0 310 -17 0 0 84 -52 0 0 86 -56 0 0 87 -40 0 0 89 -73 0 0
EndChar
StartChar: period
Encoding: 46 46 15
Width: 170
Flags: W
HStem: -8 21G<74 94>
Back
145.02 29.7852 m 0
 143.066 20.0195 137.207 11.7188 127.441 4.39453 c 0
 117.676 -2.44141 107.91 -5.85938 98.1445 -5.85938 c 0
 87.8906 -5.85938 79.5898 -2.44141 73.7305 4.39453 c 0
 67.3828 11.7188 64.9414 20.0195 66.8945 29.7852 c 0
 69.8242 40.5273 75.6836 49.8047 84.4727 58.1055 c 0
 93.2617 65.918 103.516 69.8242 113.77 69.8242 c 0
 124.023 69.8242 132.324 65.918 139.16 57.6172 c 0
 145.508 49.3164 147.461 40.0391 145.02 29.7852 c 0
EndSplineSet
Fore
131 37 m 0
 131 11 105 -8 83 -8 c 0
 65 -8 53 6 53 22 c 0
 53 24 54 27 54 29 c 0
 59 51 79 68 99 68 c 0
 117 68 131 55 131 37 c 0
EndSplineSet
KernsSLIF: 49 -41 0 0 148 -22 0 0 146 -39 0 0
EndChar
StartChar: slash
Encoding: 47 47 16
Width: 189
Flags: W
HStem: -10 21G<-8 38> 442 20G<248 294>
DStem: 248 462 294 462 -8 -10 38 -10
Back
333.984 473.145 m 1
 9.76562 -121.094 l 1
 -25.8789 -121.094 l 1
 296.875 473.145 l 1
 333.984 473.145 l 1
EndSplineSet
Fore
294 462 m 1
 38 -10 l 1
 -8 -10 l 1
 248 462 l 1
 294 462 l 1
EndSplineSet
EndChar
StartChar: zero
Encoding: 48 48 17
Width: 341
Flags: W
HStem: -10 18<167 185> 444 18<263 273>
VStem: 56 58<104 145> 322 61<309 347>
Back
390.137 226.074 m 0
 377.93 167.969 357.422 118.164 328.125 77.1484 c 0
 289.551 20.5078 242.188 -7.8125 186.035 -7.8125 c 0
 157.227 -7.8125 134.766 -0.488281 118.164 14.1602 c 0
 101.562 28.8086 89.3555 47.3633 82.5195 70.3125 c 0
 75.6836 93.2617 72.2656 118.652 73.2422 145.996 c 0
 73.7305 173.34 76.6602 200.195 82.0312 226.074 c 0
 87.4023 251.465 95.7031 277.832 106.934 305.664 c 0
 118.164 333.008 132.324 358.398 149.414 381.348 c 0
 166.504 404.297 186.523 423.34 208.984 438.477 c 0
 231.445 453.613 257.324 460.938 286.133 460.938 c 0
 341.797 460.938 376.953 432.129 391.113 374.023 c 0
 402.344 333.496 401.855 284.18 390.137 226.074 c 0
325.195 226.074 m 0
 356.445 371.094 341.797 443.848 282.227 443.848 c 0
 223.145 443.848 178.223 371.094 146.973 226.074 c 0
 115.723 80.5664 129.883 7.8125 189.941 7.8125 c 0
 248.535 7.8125 293.457 80.5664 325.195 226.074 c 0
EndSplineSet
Fore
169 -10 m 0
 87 -10 56 55 56 145 c 0
 56 172 59 201 65 229 c 0
 82 309 124 388 173 426 c 0
 203 450 234 462 271 462 c 0
 342 462 383 402 383 309 c 0
 383 192 325 73 265 26 c 0
 235 2 204 -10 169 -10 c 0
265 444 m 0
 207 444 160 368 129 223 c 0
 119 175 114 136 114 104 c 0
 114 40 134 8 173 8 c 0
 231 8 276 81 307 224 c 0
 317 273 322 314 322 347 c 0
 322 411 303 444 265 444 c 0
EndSplineSet
KernsSLIF: 52 8 0 0 49 -37 0 0 55 -3 0 0
EndChar
StartChar: one
Encoding: 49 49 18
Width: 341
Flags: W
HStem: 0 10<256 271>
DStem: 224 373 302 460 158 63 215 51 297 462 297 462 161 399 302 460
Back
292.969 0 m 1
 104.98 0 l 1
 106.934 9.76562 l 1
 130.371 9.76562 147.461 13.6719 158.691 20.5078 c 0
 169.434 27.3438 177.246 41.5039 182.129 62.9883 c 2
 248.047 372.07 l 2
 252.441 393.555 247.559 403.809 231.934 403.809 c 0
 229.492 403.809 212.891 399.414 183.105 390.137 c 1
 185.059 397.949 l 1
 319.824 460.938 l 1
 326.172 459.961 l 1
 238.77 50.7812 l 2
 234.863 31.7383 238.77 19.5312 250 14.1602 c 0
 257.324 11.2305 272.461 9.76562 294.922 9.76562 c 1
 292.969 0 l 1
EndSplineSet
Fore
211 405 m 0
 197 405 178 396 159 390 c 1
 161 399 l 1
 297 462 l 1
 302 460 l 1
 215 51 l 2
 214 45 213 40 213 35 c 0
 213 16 227 11 271 10 c 1
 269 0 l 1
 81 0 l 1
 83 10 l 1
 111 11 122 13 133 19 c 0
 145 25 154 41 158 63 c 2
 224 373 l 2
 225 379 226 384 226 388 c 0
 226 400 221 405 211 405 c 0
EndSplineSet
KernsSLIF: 44 -32 0 0 56 -46 0 0 53 -25 0 0 52 -49 0 0 57 -41 0 0 49 -53 0 0 46 -37 0 0 55 -53 0 0 54 -45 0 0 51 -28 0 0 50 -23 0 0 48 -36 0 0
EndChar
StartChar: two
Encoding: 50 50 19
Width: 341
Flags: W
HStem: 0 52<98 287> 411 51<222 261>
VStem: 301 63<338 367>
DStem: 171 137 239 172 22 8 98 52
Back
366.211 92.7734 m 1
 309.082 0 l 1
 42.9688 0 l 1
 44.9219 7.8125 l 1
 193.848 138.184 l 2
 266.602 200.195 309.082 258.301 320.801 312.988 c 0
 327.637 345.215 324.219 369.141 310.547 386.23 c 0
 296.875 402.832 273.926 411.133 242.188 411.133 c 0
 214.844 411.133 190.918 400.879 170.898 380.859 c 0
 158.203 369.141 143.555 349.121 125.977 320.801 c 1
 112.793 325.195 l 1
 128.418 367.188 150.879 400.391 180.176 424.316 c 0
 209.473 448.73 245.117 460.938 287.109 460.938 c 0
 322.266 460.938 349.121 449.707 367.676 426.27 c 0
 385.742 403.32 391.113 374.023 383.789 337.891 c 0
 372.559 288.086 332.031 232.91 262.207 171.875 c 2
 121.094 50.7812 l 1
 284.18 50.7812 l 2
 300.781 50.7812 314.453 54.6875 325.195 62.0117 c 0
 334.473 67.3828 345.215 78.6133 356.934 96.1914 c 1
 366.211 92.7734 l 1
EndSplineSet
Fore
344 94 m 1
 287 0 l 1
 20 0 l 1
 22 8 l 1
 171 137 l 2
 241 198 287 262 298 315 c 0
 300 323 301 331 301 338 c 0
 301 382 271 411 222 411 c 0
 174 411 146 389 104 322 c 1
 90 326 l 1
 112 374 127 396 154 419 c 0
 185 447 224 462 261 462 c 0
 323 462 364 422 364 367 c 0
 364 359 363 350 361 341 c 0
 350 287 313 236 239 172 c 2
 98 52 l 1
 262 52 l 2
 292 52 302 58 336 97 c 1
 344 94 l 1
EndSplineSet
KernsSLIF: 49 -40 0 0 55 -10 0 0
EndChar
StartChar: three
Encoding: 51 51 20
Width: 341
Flags: W
HStem: -10 63<66 105> 421 41<232 263>
VStem: 294 58<365 388>
Back
348.145 146.973 m 0
 337.891 96.1914 310.547 57.1289 265.137 28.8086 c 0
 223.633 4.39453 177.246 -7.8125 125.977 -7.8125 c 0
 106.445 -7.8125 92.7734 -5.85938 83.9844 -0.976562 c 1
 63.9648 4.39453 55.1758 14.1602 58.1055 28.8086 c 0
 62.0117 44.9219 72.2656 53.2227 88.8672 53.2227 c 0
 98.1445 53.2227 112.305 46.875 130.859 34.1797 c 0
 151.855 20.5078 167.48 14.1602 179.199 14.1602 c 0
 208.496 14.1602 233.398 24.9023 253.906 46.875 c 0
 273.438 65.4297 286.621 89.8438 293.945 120.117 c 0
 297.363 136.23 296.875 150.391 292.969 163.086 c 1
 287.109 204.102 247.559 225.098 174.805 225.098 c 1
 175.781 233.887 l 1
 256.836 257.812 302.734 296.387 313.965 349.121 c 0
 318.848 370.117 315.43 387.695 304.199 400.391 c 0
 292.48 413.574 275.879 419.922 253.906 419.922 c 0
 212.891 419.922 173.828 395.996 138.184 348.145 c 1
 127.93 351.074 l 1
 166.016 424.316 218.75 460.938 286.133 460.938 c 0
 315.918 460.938 339.355 453.125 356.445 437.5 c 0
 373.535 421.875 378.906 399.414 373.047 370.117 c 0
 365.234 334.473 336.914 302.734 289.062 273.926 c 1
 311.035 263.184 326.172 251.953 334.961 240.234 c 0
 353.027 217.285 357.422 186.523 348.145 146.973 c 0
EndSplineSet
Fore
159 15 m 0
 216 15 274 75 274 141 c 0
 274 177 255 206 223 218 c 0
 208 224 193 225 152 225 c 1
 154 234 l 1
 204 251 225 261 250 281 c 0
 275 301 294 334 294 365 c 0
 294 399 270 421 232 421 c 0
 189 421 154 398 115 348 c 1
 106 351 l 1
 129 392 143 410 167 428 c 0
 197 450 229 462 263 462 c 0
 318 462 352 432 352 388 c 0
 352 382 352 375 350 368 c 0
 342 331 320 306 266 274 c 1
 293 261 305 253 315 238 c 0
 325 223 330 203 330 182 c 0
 330 171 329 161 327 150 c 0
 317 104 291 64 253 36 c 0
 215 8 157 -10 105 -10 c 0
 61 -10 34 3 34 23 c 0
 34 25 35 27 35 29 c 0
 38 44 51 53 66 53 c 0
 78 53 89 48 107 36 c 0
 128 20 141 15 159 15 c 0
EndSplineSet
KernsSLIF: 52 -4 0 0 49 -51 0 0 55 -19 0 0
EndChar
StartChar: four
Encoding: 52 52 21
Width: 341
Flags: W
HStem: 0 21G<200 253> 114 44<70 224 287 346> 442 20G<321 351>
DStem: 224 114 277 114 200 0 253 0 282 392 351 462 233 158 287 158 321 462 282 392 42 158 70 158
Back
360.84 111.816 m 1
 293.945 111.816 l 1
 270.02 0 l 1
 217.773 0 l 1
 242.188 111.816 l 1
 54.1992 111.816 l 1
 62.9883 154.785 l 1
 335.938 452.148 l 1
 366.211 452.148 l 1
 303.223 154.785 l 1
 370.117 154.785 l 1
 360.84 111.816 l 1
250 154.785 m 1
 297.852 381.836 l 1
 89.8438 154.785 l 1
 250 154.785 l 1
EndSplineSet
Fore
356 158 m 1
 346 114 l 1
 277 114 l 1
 253 0 l 1
 200 0 l 1
 224 114 l 1
 32 114 l 1
 42 158 l 1
 321 462 l 1
 351 462 l 1
 287 158 l 1
 356 158 l 1
233 158 m 1
 282 392 l 1
 70 158 l 1
 233 158 l 1
EndSplineSet
KernsSLIF: 52 9 0 0 49 -51 0 0 55 -28 0 0
EndChar
StartChar: five
Encoding: 53 53 22
Width: 341
Flags: W
HStem: -10 68<63 103> 398 54<214 349>
VStem: 276 56<165 205>
DStem: 215 452 209 398 106 290 167 340
Back
426.758 466.797 m 1
 388.184 405.762 l 2
 385.254 401.855 379.883 399.902 371.094 399.902 c 2
 236.816 399.902 l 1
 195.801 341.797 l 1
 234.863 335.938 266.113 326.66 290.527 314.453 c 0
 314.941 302.246 331.055 287.109 338.867 270.02 c 1
 354.004 243.164 l 1
 358.887 222.168 l 1
 360.84 205.566 358.887 182.129 353.027 152.832 c 0
 341.797 103.027 314.453 63.4766 271.973 34.1797 c 0
 229.98 5.85938 184.57 -7.8125 134.766 -7.8125 c 0
 76.1719 -7.8125 49.8047 4.88281 56.1523 30.7617 c 0
 59.5703 48.8281 70.3125 58.1055 88.8672 58.1055 c 0
 104.492 58.1055 120.605 50.7812 138.184 36.1328 c 0
 155.273 22.4609 169.434 16.1133 180.176 16.1133 c 0
 209.473 16.1133 235.84 29.2969 259.766 56.1523 c 0
 280.762 79.1016 293.945 106.445 299.805 138.184 c 0
 310.547 186.523 295.898 224.121 254.883 250 c 0
 220.215 271.484 181.152 282.227 137.207 282.227 c 0
 132.812 282.227 131.836 285.156 133.789 291.016 c 1
 243.164 453.125 l 1
 386.23 453.125 l 2
 397.949 453.125 410.156 459.473 421.875 472.168 c 1
 426.758 466.797 l 1
EndSplineSet
Fore
105 285 m 0
 105 287 106 288 106 290 c 1
 215 452 l 1
 358 452 l 2
 372 452 380 455 393 470 c 1
 398 465 l 1
 359 404 l 2
 356 399 353 398 342 398 c 2
 209 398 l 1
 167 340 l 1
 244 326 280 310 304 280 c 0
 323 256 332 233 332 205 c 0
 332 193 330 180 327 165 c 0
 305 61 217 -10 103 -10 c 0
 56 -10 28 4 28 26 c 0
 28 47 42 58 63 58 c 0
 78 58 92 51 111 36 c 0
 128 20 138 16 152 16 c 0
 213 16 276 86 276 165 c 0
 276 214 246 247 186 268 c 0
 160 277 134 281 112 281 c 0
 107 281 105 282 105 285 c 0
EndSplineSet
KernsSLIF: 52 -5 0 0 49 -47 0 0 55 -24 0 0
EndChar
StartChar: six
Encoding: 54 54 23
Width: 341
Flags: W
HStem: -10 20<173 188> 261 31<220 253>
VStem: 57 60<107 135> 291 65<175 192>
Back
363.77 146.973 m 0
 359.375 125 352.051 104.492 341.309 85.4492 c 0
 331.055 66.4062 318.359 50.293 303.711 36.6211 c 0
 288.574 22.9492 270.996 12.207 251.465 3.90625 c 0
 231.934 -3.90625 210.449 -7.8125 187.012 -7.8125 c 0
 159.18 -7.8125 136.719 -1.95312 120.605 9.76562 c 0
 104.004 21.9727 92.2852 37.5977 84.9609 56.6406 c 0
 77.6367 75.6836 74.2188 97.168 74.707 122.07 c 0
 74.707 146.484 77.6367 171.387 83.0078 195.801 c 0
 90.332 231.934 104.98 266.113 126.953 298.34 c 0
 148.926 331.055 175.293 358.887 205.566 382.812 c 0
 235.84 407.227 269.531 425.781 306.152 439.941 c 0
 342.773 454.102 379.395 460.938 416.016 460.938 c 1
 416.016 450.195 l 1
 359.375 440.43 310.547 419.434 269.043 386.23 c 0
 227.539 352.539 196.289 310.059 174.805 257.812 c 1
 225.098 280.762 l 1
 241.699 285.645 256.836 288.086 270.996 288.086 c 0
 309.57 288.086 336.914 274.414 353.027 247.559 c 0
 369.141 220.703 372.559 187.012 363.77 146.973 c 0
298.828 120.117 m 0
 318.359 211.426 296.875 256.836 234.863 256.836 c 0
 207.031 256.836 184.57 250.488 166.992 236.816 c 1
 163.574 230.469 159.668 221.68 155.273 210.938 c 0
 151.367 200.195 147.461 187.5 144.043 171.875 c 0
 140.137 155.273 137.207 137.695 135.742 118.652 c 0
 133.789 99.6094 134.766 82.0312 138.184 65.918 c 0
 141.113 49.8047 147.949 36.6211 157.715 25.8789 c 0
 166.992 15.1367 181.641 9.76562 201.172 9.76562 c 0
 214.844 9.76562 227.539 13.1836 237.793 19.043 c 0
 248.535 24.9023 257.812 33.2031 266.113 43.457 c 0
 273.926 53.7109 280.762 65.4297 286.133 79.1016 c 0
 291.504 92.2852 295.898 105.957 298.828 120.117 c 0
EndSplineSet
Fore
174 -10 m 0
 95 -10 57 43 57 131 c 0
 57 150 59 170 63 190 c 0
 83 282 140 360 225 412 c 0
 282 447 325 460 404 467 c 1
 403 456 l 1
 292 438 200 365 160 262 c 1
 208 287 223 292 253 292 c 0
 319 292 356 254 356 190 c 0
 356 76 267 -10 174 -10 c 0
220 261 m 0
 196 261 174 255 158 244 c 0
 129 226 117 157 117 109 c 0
 117 46 141 10 186 10 c 0
 233 10 269 51 285 126 c 0
 289 145 291 162 291 177 c 0
 291 231 266 261 220 261 c 0
EndSplineSet
KernsSLIF: 52 8 0 0 49 -50 0 0 55 -19 0 0
EndChar
StartChar: seven
Encoding: 55 55 24
Width: 341
Flags: W
HStem: -5 21G<116 161> 401 51<150 338>
DStem: 338 401 401 441 116 -5 161 -5
Back
423.828 441.895 m 1
 184.082 -3.90625 l 1
 139.16 -3.90625 l 1
 361.816 402.832 l 1
 212.891 402.832 l 2
 194.336 402.832 177.246 398.438 162.109 389.16 c 0
 153.809 384.277 140.625 370.117 122.07 347.168 c 1
 110.84 352.051 l 1
 171.875 453.125 l 1
 425.781 453.125 l 1
 423.828 441.895 l 1
EndSplineSet
Fore
403 452 m 1
 401 441 l 1
 161 -5 l 1
 116 -5 l 1
 338 401 l 1
 189 401 l 2
 152 401 139 393 99 346 c 1
 89 352 l 1
 150 452 l 1
 403 452 l 1
EndSplineSet
KernsSLIF: 58 -46 0 0 44 -49 0 0 56 -27 0 0 53 -40 0 0 52 -43 0 0 49 -38 0 0 46 -53 0 0 55 -13 0 0 54 -31 0 0 51 -23 0 0 50 -21 0 0
EndChar
StartChar: eight
Encoding: 56 56 25
Width: 341
Flags: W
HStem: -10 20<165 186> 442 20<251 274>
VStem: 57 53<69 87> 114 57<328 358> 272 58<106 133> 322 47<373 391>
Back
338.867 102.051 m 0
 334.961 83.4961 328.125 66.8945 317.871 53.2227 c 0
 308.105 39.0625 295.898 27.3438 282.227 18.5547 c 0
 268.066 9.27734 252.441 2.92969 235.352 -1.46484 c 0
 218.262 -5.85938 201.172 -7.8125 183.105 -7.8125 c 0
 166.504 -7.8125 150.879 -5.85938 137.207 -0.976562 c 0
 123.047 3.90625 110.84 10.7422 101.074 20.0195 c 0
 90.8203 29.2969 83.9844 40.5273 80.0781 54.1992 c 0
 76.1719 67.3828 75.6836 82.5195 79.1016 99.1211 c 0
 82.5195 115.723 87.4023 129.395 93.2617 140.137 c 0
 99.6094 150.879 107.422 160.156 116.699 168.945 c 0
 125.488 177.734 136.23 186.523 148.926 194.824 c 0
 161.621 203.613 176.27 213.867 192.871 226.074 c 1
 183.105 239.258 173.828 250.488 165.527 259.277 c 0
 157.227 268.555 150.391 277.344 145.02 286.621 c 0
 139.648 295.41 136.23 305.176 134.766 315.918 c 0
 133.789 326.66 134.766 339.844 138.184 355.957 c 0
 141.113 372.07 147.949 386.719 157.715 399.414 c 0
 166.992 412.598 178.711 423.34 192.383 432.617 c 0
 206.055 441.406 221.191 448.73 236.816 453.613 c 0
 252.93 458.496 269.043 460.938 285.156 460.938 c 0
 300.293 460.938 314.453 458.984 328.125 455.566 c 0
 341.309 451.66 352.539 445.801 361.816 437.988 c 0
 371.094 430.176 377.93 419.922 381.348 408.203 c 0
 385.254 395.996 385.254 381.836 381.836 365.234 c 0
 375.977 336.914 362.793 314.941 342.285 298.828 c 0
 322.266 283.203 297.363 267.578 268.066 252.93 c 1
 279.785 239.746 291.016 228.027 301.27 217.773 c 0
 312.012 208.008 320.312 197.754 327.637 187.012 c 0
 334.473 176.27 339.355 164.551 341.309 151.367 c 0
 343.75 138.672 342.773 122.07 338.867 102.051 c 0
334.961 368.164 m 0
 338.867 389.16 336.914 406.25 329.102 418.945 c 0
 318.359 435.059 300.781 442.871 276.855 442.871 c 0
 256.348 442.871 237.793 436.523 221.68 423.828 c 0
 205.078 411.133 194.824 394.531 189.941 373.047 c 0
 182.617 337.891 203.125 301.758 250.977 265.137 c 1
 278.809 284.18 l 1
 298.828 299.805 l 1
 316.895 317.871 329.102 340.82 334.961 368.164 c 0
285.156 85.9375 m 0
 290.527 110.84 287.109 130.859 274.902 146.973 c 0
 265.137 161.133 242.188 182.617 207.031 211.914 c 1
 183.105 192.871 l 1
 165.039 175.781 l 1
 148.438 155.762 137.207 132.812 131.836 105.957 c 0
 125.977 78.125 128.418 55.1758 139.16 37.1094 c 0
 149.902 19.043 168.457 9.76562 194.824 9.76562 c 0
 216.309 9.76562 235.352 17.0898 252.441 31.7383 c 0
 269.531 45.8984 280.273 63.9648 285.156 85.9375 c 0
EndSplineSet
Fore
114 328 m 0xf8
 114 408 193 462 270 462 c 0
 330 462 369 430 369 383 c 0xf4
 369 377 368 371 367 365 c 0
 357 318 327 289 252 253 c 1
 309 203 330 172 330 133 c 0
 330 125 329 116 327 106 c 0
 312 36 249 -10 167 -10 c 0
 100 -10 57 26 57 79 c 0
 57 87 58 95 60 103 c 0
 70 150 89 171 175 227 c 1
 129 276 114 298 114 328 c 0xf8
225 183 m 2
 190 213 l 1
 137 177 110 135 110 81 c 0
 110 37 136 10 179 10 c 0
 223 10 261 40 270 85 c 0
 272 93 272 100 272 106 c 0xf8
 272 133 259 154 225 183 c 2
235 266 m 1
 241 270 l 2
 286 296 311 326 320 365 c 0
 322 372 322 379 322 386 c 0xf4
 322 421 300 442 261 442 c 0
 218 442 181 414 173 375 c 0
 172 369 171 363 171 358 c 0
 171 327 190 299 235 266 c 1
EndSplineSet
KernsSLIF: 49 -43 0 0 55 -10 0 0
EndChar
StartChar: nine
Encoding: 57 57 26
Width: 341
Flags: W
HStem: 162 29<177 209> 442 20<244 263>
VStem: 80 66<256 275> 315 61<327 354>
Back
393.066 270.02 m 0
 376.953 193.848 339.844 129.883 280.762 78.125 c 0
 212.402 17.0898 138.672 -13.1836 60.0586 -13.1836 c 1
 61.0352 0 l 1
 88.3789 3.41797 114.258 10.7422 139.648 21.9727 c 0
 164.551 33.2031 187.5 47.8516 208.984 65.918 c 0
 230.469 83.9844 249.512 104.492 267.09 126.953 c 0
 284.18 149.902 298.34 173.34 309.082 198.242 c 1
 291.504 185.547 273.926 176.27 255.859 170.41 c 0
 237.793 165.039 219.238 162.109 200.195 162.109 c 0
 162.109 162.109 134.766 175.293 118.164 202.148 c 0
 102.051 226.074 98.1445 257.324 105.957 295.898 c 0
 116.211 342.773 136.23 380.859 166.016 411.133 c 0
 199.219 444.336 238.77 460.938 284.18 460.938 c 0
 332.52 460.938 366.211 440.43 384.766 398.926 c 0
 400.879 362.305 403.809 319.336 393.066 270.02 c 0
319.824 242.188 m 1
 326.172 269.043 l 2
 351.562 384.766 333.496 442.871 272.949 442.871 c 0
 224.121 442.871 191.406 402.832 173.828 323.242 c 0
 166.016 288.574 165.527 259.277 172.852 235.84 c 0
 182.129 206.055 202.637 190.918 233.887 190.918 c 0
 246.094 190.918 257.812 192.871 269.043 196.777 c 0
 280.273 201.172 291.992 206.543 304.199 213.867 c 0
 312.5 219.238 317.871 228.516 319.824 242.188 c 1
EndSplineSet
Fore
80 261 m 0
 80 374 172 462 261 462 c 0
 333 462 376 408 376 327 c 0
 376 309 374 289 370 269 c 0
 351 177 292 92 210 40 c 0
 155 7 116 -6 37 -15 c 1
 38 -1 l 1
 145 16 237 89 289 201 c 1
 247 173 215 162 177 162 c 0
 116 162 80 200 80 261 c 0
209 191 m 0
 240 191 292 206 298 242 c 1
 305 275 315 324 315 354 c 0
 315 413 293 442 251 442 c 0
 231 442 212 435 198 421 c 0
 172 397 146 329 146 273 c 0
 146 221 169 191 209 191 c 0
EndSplineSet
KernsSLIF: 52 -4 0 0 49 -43 0 0 55 -4 0 0
EndChar
StartChar: colon
Encoding: 58 58 27
Width: 189
Flags: W
HStem: -8 76<90 107> 238 75<143 160>
Back
206.055 280.762 m 0
 200.195 256.348 184.57 244.141 159.18 244.141 c 0
 148.926 244.141 140.625 247.559 134.277 254.883 c 0
 127.93 262.207 126.465 270.996 128.906 280.762 c 0
 134.277 304.199 149.902 317.871 174.805 320.801 c 0
 185.547 320.801 193.848 316.895 200.195 309.082 c 0
 206.055 300.781 208.008 291.504 206.055 280.762 c 0
151.855 29.7852 m 0
 149.902 19.5312 144.531 10.7422 135.742 3.90625 c 0
 126.465 -2.44141 116.699 -5.85938 105.957 -5.85938 c 0
 96.1914 -5.85938 87.8906 -2.44141 81.543 4.39453 c 0
 75.1953 11.7188 73.2422 20.0195 75.1953 29.7852 c 0
 77.6367 40.5273 83.4961 49.8047 92.2852 58.1055 c 0
 101.562 65.918 111.328 69.8242 122.07 69.8242 c 0
 132.812 69.8242 141.113 65.918 146.973 58.1055 c 0
 152.832 49.8047 154.785 40.5273 151.855 29.7852 c 0
EndSplineSet
Fore
160 313 m 0
 177 313 190 300 190 283 c 0
 190 280 190 277 189 274 c 0
 185 255 164 238 143 238 c 0
 125 238 112 251 112 268 c 0
 112 270 113 272 113 274 c 0
 118 296 139 313 160 313 c 0
138 37 m 0
 138 11 112 -8 90 -8 c 0
 72 -8 60 6 60 22 c 0
 60 24 61 27 61 29 c 0
 66 51 86 68 107 68 c 0
 124 68 138 55 138 37 c 0
EndSplineSet
EndChar
StartChar: semicolon
Encoding: 59 59 28
Width: 189
Flags: W
HStem: -3 73<105 110 110 115> 238 75<143 160>
Back
206.055 280.762 m 0
 200.195 256.348 184.57 244.141 159.18 244.141 c 0
 148.926 244.141 140.625 247.559 134.277 254.883 c 0
 127.93 262.207 126.465 270.996 128.906 280.762 c 0
 134.277 304.199 149.902 317.871 174.805 320.801 c 0
 185.547 320.801 193.848 316.895 200.195 309.082 c 0
 206.055 300.781 208.008 291.504 206.055 280.762 c 0
166.016 3.90625 m 0
 161.133 -18.5547 146.484 -40.0391 121.094 -60.0586 c 2
 90.8203 -83.9844 l 2
 86.9141 -86.4258 83.0078 -89.3555 79.1016 -91.3086 c 0
 75.1953 -93.75 70.8008 -95.7031 65.918 -97.168 c 1
 62.9883 -83.0078 l 1
 106.934 -58.1055 131.348 -33.6914 136.23 -8.78906 c 0
 137.207 -2.92969 134.766 0 127.93 0 c 2
 120.117 -0.976562 l 1
 110.84 -1.95312 l 2
 82.5195 -1.95312 70.3125 8.78906 75.1953 30.7617 c 0
 79.5898 57.6172 96.1914 70.8008 124.023 70.8008 c 0
 160.645 70.8008 174.805 48.8281 166.016 3.90625 c 0
EndSplineSet
Fore
61 22 m 0
 61 52 85 70 110 70 c 0
 137 70 154 50 154 23 c 0
 154 19 153 14 152 9 c 0
 143 -32 104 -73 53 -96 c 1
 49 -83 l 1
 92 -58 116 -33 121 -11 c 2
 121 -9 l 2
 121 -4 118 -1 113 -1 c 2
 107 -3 l 2
 103 -3 98 -4 94 -4 c 0
 73 -4 61 5 61 22 c 0
160 313 m 0
 177 313 190 300 190 283 c 0
 190 280 190 277 189 274 c 0
 185 255 164 238 143 238 c 0
 125 238 112 251 112 268 c 0
 112 270 113 272 113 274 c 0
 118 296 139 313 160 313 c 0
EndSplineSet
EndChar
StartChar: less
Encoding: 60 60 29
Width: 385
Flags: W
DStem: 51 150 116 173 365 -7 375 42 441 352 430 303 60 195 116 173
Back
395.996 -3.90625 m 1
 75.1953 154.785 l 1
 83.9844 199.219 l 1
 474.121 359.863 l 1
 464.844 320.801 l 1
 118.164 178.223 l 1
 403.809 34.1797 l 1
 395.996 -3.90625 l 1
EndSplineSet
Fore
365 -7 m 1
 51 150 l 1
 60 195 l 1
 441 352 l 1
 430 303 l 1
 116 173 l 1
 375 42 l 1
 365 -7 l 1
EndSplineSet
EndChar
StartChar: equal
Encoding: 61 61 30
Width: 385
Flags: W
HStem: 82 45<46 382> 218 46<75 411>
Back
444.824 229.98 m 1
 91.7969 229.98 l 1
 99.1211 265.137 l 1
 452.148 265.137 l 1
 444.824 229.98 l 1
415.039 89.8438 m 1
 62.0117 89.8438 l 1
 69.8242 125 l 1
 422.852 125 l 1
 415.039 89.8438 l 1
EndSplineSet
Fore
421 264 m 1
 411 218 l 1
 66 218 l 1
 76 264 l 1
 421 264 l 1
392 127 m 1
 382 82 l 1
 37 82 l 1
 47 127 l 1
 392 127 l 1
EndSplineSet
EndChar
StartChar: greater
Encoding: 62 62 31
Width: 385
Flags: W
DStem: 83 303 94 352 343 173 407 195 343 173 398 150 28 42 18 -7
Back
430.176 154.785 m 1
 41.0156 -3.90625 l 1
 48.8281 34.1797 l 1
 396.973 178.223 l 1
 109.863 320.801 l 1
 119.141 359.863 l 1
 438.965 199.219 l 1
 430.176 154.785 l 1
EndSplineSet
Fore
18 -7 m 1
 28 42 l 1
 343 173 l 1
 83 303 l 1
 94 352 l 1
 407 195 l 1
 398 150 l 1
 18 -7 l 1
EndSplineSet
EndChar
StartChar: question
Encoding: 63 63 32
Width: 303
Flags: W
HStem: -5 73<160 176> 441 21<238 255>
VStem: 121 45<347 396> 121 61<347 355> 131 75<22 38> 298 63<375 381>
Back
368.164 356.934 m 0
 361.816 327.637 336.426 291.504 291.992 248.047 c 2
 258.789 215.82 l 1
 234.863 187.012 l 2
 224.121 174.316 211.426 150.391 196.777 115.234 c 1
 185.059 115.234 l 1
 192.383 148.438 206.543 181.152 227.051 213.867 c 2
 255.859 258.789 l 2
 282.227 300.781 297.852 335.449 304.199 362.793 c 0
 309.57 388.184 307.129 409.668 297.363 426.27 c 0
 287.598 443.359 270.508 452.148 246.094 452.148 c 0
 231.445 452.148 215.82 448.242 200.195 439.941 c 0
 183.105 430.176 173.828 419.434 171.875 409.18 c 0
 170.898 403.809 173.34 395.996 180.176 386.23 c 0
 187.5 374.512 189.941 365.234 187.988 356.934 c 0
 184.57 337.891 173.828 328.125 154.785 328.125 c 0
 131.836 328.125 123.047 342.773 128.906 372.07 c 0
 132.324 387.207 138.184 401.367 146.973 413.574 c 0
 155.762 425.781 166.504 436.523 179.199 444.824 c 0
 191.895 453.613 205.566 460.449 220.215 465.332 c 0
 234.863 470.703 249.512 473.145 265.137 473.145 c 0
 283.691 473.145 302.246 469.238 320.801 460.938 c 1
 341.797 449.219 l 1
 358.887 433.105 l 1
 371.094 410.156 374.023 384.766 368.164 356.934 c 0
211.914 29.7852 m 0
 209.961 20.0195 204.59 12.207 195.312 5.85938 c 0
 186.523 0 176.758 -3.41797 166.992 -3.90625 c 0
 141.602 -5.37109 131.836 5.85938 137.207 29.7852 c 0
 141.602 51.7578 156.738 64.4531 182.129 67.8711 c 0
 191.895 67.8711 200.195 63.9648 206.543 56.6406 c 0
 212.891 48.8281 214.844 40.0391 211.914 29.7852 c 0
EndSplineSet
Fore
166 396 m 0xe4
 166 385 182 366 182 355 c 0xd4
 182 353 181 350 181 348 c 0
 178 332 164 320 147 320 c 0
 130 320 121 330 121 347 c 0
 121 352 122 357 123 363 c 0
 135 419 192 462 255 462 c 0
 292 462 329 446 348 422 c 0
 357 411 361 395 361 377 c 0
 361 371 360 363 359 356 c 0
 353 328 338 303 309 270 c 0
 296 255 296 255 257 217 c 0
 225 185 208 158 191 112 c 1
 179 112 l 1
 186 142 200 175 219 209 c 1
 249 253 l 2
 273 290 290 328 296 359 c 0
 297 366 298 372 298 379 c 0
 298 415 275 441 240 441 c 0
 207 441 170 421 166 399 c 0
 166 396 l 0xe4
131 22 m 0xcc
 131 47 155 68 176 68 c 0
 193 68 206 55 206 38 c 0
 206 13 184 -5 160 -5 c 0
 143 -5 131 6 131 22 c 0xcc
EndSplineSet
EndChar
StartChar: at
Encoding: 64 64 33
Width: 628
Flags: W
HStem: -10 27<326 346> 98 22<448 463> 317 30<421 430> 440 22<408 443>
VStem: 121 58<154 188> 254 51<153 166> 396 45<133 147> 583 29<281 302>
Back
570.801 259.766 m 0
 562.988 219.238 544.434 183.105 516.113 151.855 c 1
 484.863 115.234 449.219 97.168 410.156 97.168 c 0
 390.137 97.168 375.488 104.492 367.188 119.141 c 0
 360.352 127.441 357.91 136.719 359.863 145.996 c 1
 342.773 131.836 l 1
 325.195 119.141 l 2
 316.406 112.793 307.129 108.398 297.852 104.98 c 0
 288.574 101.562 279.297 99.1211 270.02 98.1445 c 1
 226.562 98.1445 210.938 126.465 223.145 183.105 c 0
 226.562 199.219 232.422 215.332 241.211 231.934 c 0
 249.512 248.535 261.23 265.625 275.879 283.203 c 0
 310.547 325.684 349.121 347.168 392.09 347.168 c 1
 409.18 344.238 l 1
 419.434 338.867 427.246 327.637 432.129 311.035 c 1
 444.824 336.914 l 1
 493.164 336.914 l 1
 411.133 164.062 l 1
 405.762 146.973 l 1
 401.855 128.906 408.691 120.117 425.781 120.117 c 0
 440.43 120.117 454.59 125 467.285 134.277 c 0
 480.469 144.043 492.188 156.25 502.93 170.41 c 0
 513.672 185.059 522.461 200.195 529.297 215.82 c 0
 536.621 231.934 541.504 246.094 543.945 258.789 c 0
 549.316 285.156 548.828 309.082 542.48 331.055 c 0
 536.133 353.027 525.391 372.07 510.742 388.184 c 0
 495.605 403.809 477.539 416.504 456.055 425.781 c 0
 434.57 435.547 411.621 439.941 387.207 439.941 c 0
 354.492 439.941 324.707 433.594 297.852 420.898 c 0
 271.484 408.203 247.559 391.602 227.051 370.605 c 0
 206.543 349.609 188.965 325.195 175.293 296.875 c 0
 161.621 269.043 151.855 239.258 145.02 208.008 c 0
 139.16 180.664 138.672 155.273 144.531 131.836 c 0
 150.391 108.887 160.156 88.3789 174.316 70.8008 c 0
 188.965 53.7109 207.031 40.0391 229.004 30.2734 c 0
 250.977 20.9961 275.391 16.1133 301.758 16.1133 c 0
 345.215 16.1133 393.066 27.3438 444.824 49.8047 c 1
 448.242 28.8086 l 1
 416.504 17.0898 388.672 7.8125 363.77 1.46484 c 0
 339.355 -4.88281 317.383 -7.8125 297.852 -7.8125 c 0
 216.797 -7.8125 156.738 17.0898 118.164 67.8711 c 1
 86.4258 111.816 76.6602 160.645 87.8906 213.867 c 0
 104.004 286.133 140.137 345.215 196.777 391.113 c 0
 254.395 437.5 318.848 460.938 391.113 460.938 c 0
 450.195 460.938 498.535 442.871 535.156 407.227 c 0
 572.266 369.141 584.473 319.824 570.801 259.766 c 0
412.109 271.973 m 1
 417.969 301.758 411.133 316.895 392.09 316.895 c 0
 365.234 316.895 339.355 300.781 313.965 269.043 c 0
 290.527 240.234 275.879 212.402 270.02 185.059 c 0
 262.207 146.973 272.461 127.93 300.781 127.93 c 0
 322.266 127.93 346.191 147.461 372.07 186.035 c 0
 381.348 200.684 389.16 215.332 395.508 229.492 c 0
 401.855 243.652 407.227 257.812 412.109 271.973 c 1
EndSplineSet
Fore
463 120 m 0
 515 120 583 206 583 291 c 0
 583 375 517 440 423 440 c 0
 373 440 324 422 283 389 c 0
 235 348 197 284 184 221 c 0
 180 204 179 188 179 172 c 0
 179 79 241 17 340 17 c 0
 386 17 422 26 481 50 c 1
 484 29 l 1
 412 -1 376 -10 328 -10 c 0
 204 -10 121 67 121 175 c 0
 121 191 123 207 126 223 c 0
 155 356 288 462 426 462 c 0
 538 462 612 393 612 300 c 0
 612 192 520 98 448 98 c 0
 416 98 396 115 396 143 c 2
 396 147 l 1
 366 117 330 98 300 98 c 0
 272 98 254 122 254 155 c 0
 254 161 255 168 256 175 c 0
 267 225 299 277 344 313 c 0
 371 336 398 347 427 347 c 0
 451 347 459 339 468 311 c 1
 481 337 l 1
 528 337 l 1
 447 164 l 2
 444 158 441 150 441 141 c 0
 441 127 448 120 463 120 c 0
430 317 m 2
 428 317 l 2
 412 317 386 304 363 283 c 0
 335 257 315 223 308 186 c 0
 306 178 305 171 305 164 c 0
 305 141 316 128 336 128 c 0
 388 128 437 231 449 272 c 0
 451 279 452 285 452 290 c 0
 452 306 444 316 430 317 c 2
EndSplineSet
EndChar
StartChar: A
Encoding: 65 65 34
Width: 492
Flags: W
HStem: 0 13<137 148> 147 28<184 346> 440 20G<335 349>
DStem: 303 363 349 460 342 175 436 72 335 460 303 363 122 125 184 175 335 460 167 147 122 125 118 68
Back
481.934 0 m 1
 311.035 0 l 1
 313.965 12.207 l 1
 335.938 12.207 l 1
 348.145 16.1133 l 2
 357.91 18.5547 363.77 25.8789 366.211 38.0859 c 1
 366.211 53.2227 l 1
 361.816 81.0547 l 1
 349.121 145.02 l 1
 172.852 145.02 l 1
 125 65.918 l 2
 119.141 56.6406 115.234 48.3398 113.77 41.0156 c 0
 109.863 21.4844 123.535 12.207 153.809 12.207 c 1
 150.879 0 l 1
 18.0664 0 l 1
 20.9961 12.207 l 1
 39.5508 12.207 60.5469 26.8555 83.9844 56.1523 c 0
 85.9375 59.5703 90.8203 66.4062 98.1445 77.1484 c 0
 105.469 87.8906 115.234 103.027 126.953 123.047 c 1
 336.914 452.148 l 1
 351.074 452.148 l 1
 437.012 70.8008 l 2
 442.383 47.8516 448.242 32.2266 455.078 23.9258 c 0
 461.426 16.1133 471.68 12.207 484.863 12.207 c 1
 481.934 0 l 1
345.215 172.852 m 1
 307.129 356.934 l 1
 189.941 172.852 l 1
 345.215 172.852 l 1
EndSplineSet
Fore
485 13 m 1
 482 0 l 1
 308 0 l 1
 311 13 l 1
 350 14 365 19 365 45 c 0
 365 55 363 68 360 82 c 2
 346 147 l 1
 167 147 l 1
 118 68 l 2
 114 59 109 49 108 41 c 0
 108 39 107 36 107 34 c 0
 107 20 120 13 148 13 c 1
 145 0 l 1
 10 0 l 1
 13 13 l 1
 46 14 56 25 122 125 c 1
 335 460 l 1
 349 460 l 1
 436 72 l 1
 449 22 454 15 485 13 c 1
184 175 m 1
 342 175 l 1
 303 363 l 1
 184 175 l 1
EndSplineSet
KernsSLIF: 67 -34 2 0 311 -38 2 0 71 -38 2 0 79 -40 2 0 325 -40 2 0 81 -40 2 0 84 -36 2 0 85 -42 2 0 327 -42 2 0 328 -42 2 0 329 -42 2 0 326 -42 2 0 86 -89 2 0 87 -77 2 0 89 -55 2 0 97 -4 2 0 98 -13 2 0 99 -19 2 0 337 -19 2 0 44 -2 2 0 100 -19 2 0 101 -18 2 0 103 -13 2 0 286 -43 2 0 288 -50 2 0 45 -15 2 0 111 -27 2 0 46 -6 2 0 113 -14 2 0 148 -62 2 0 146 -79 2 0 116 -13 2 0 117 -19 2 0 118 -55 2 0 119 -49 2 0 121 -56 2 0
EndChar
StartChar: B
Encoding: 66 66 35
Width: 455
Flags: W
HStem: 0 25<187 240> 223 27<194 242.372> 427 25<108 301>
VStem: 355 79<143 149> 386 70<351 369>
DStem: 157 378 233 406 93 74 200 250 157 378 194 223 93 74 158 53
Back
443.848 120.117 m 0
 439.453 101.562 431.152 84.4727 419.434 68.8477 c 0
 407.715 53.7109 393.555 41.0156 376.953 30.2734 c 0
 360.352 20.0195 341.309 12.207 320.312 6.83594 c 0
 299.316 1.46484 276.855 -0.488281 252.93 0 c 2
 23.9258 0 l 1
 26.8555 13.1836 l 1
 40.5273 13.1836 51.2695 13.6719 60.0586 15.625 c 0
 68.8477 17.0898 76.1719 20.0195 82.0312 24.4141 c 0
 87.8906 28.8086 92.7734 35.1562 96.6797 42.9688 c 0
 100.098 50.7812 103.516 61.5234 105.957 74.2188 c 2
 169.922 377.93 l 1
 175.293 401.855 174.805 418.457 168.945 426.758 c 1
 150.879 436.035 l 1
 118.164 439.941 l 1
 120.117 452.148 l 1
 312.012 452.148 l 2
 431.152 452.148 482.91 413.574 466.797 336.914 c 0
 459.473 304.199 442.871 279.785 416.016 263.184 c 0
 405.273 255.859 384.766 247.559 354.98 237.793 c 1
 426.758 222.168 456.543 182.617 443.848 120.117 c 0
395.996 333.008 m 0
 408.691 395.508 375.488 426.758 295.898 426.758 c 2
 266.113 426.758 l 2
 255.371 426.758 248.535 419.922 245.117 405.762 c 1
 211.914 249.023 l 1
 277.832 250 l 2
 344.727 250.488 383.789 278.32 395.996 333.008 c 0
366.211 123.047 m 0
 376.465 172.852 356.934 204.102 307.129 215.82 c 0
 290.527 220.703 256.836 223.145 206.055 223.145 c 1
 169.922 54.1992 l 1
 167.969 40.0391 172.363 30.7617 183.105 26.8555 c 0
 185.547 26.3672 189.453 25.8789 194.824 25.3906 c 0
 200.195 25.3906 207.52 24.9023 216.797 24.9023 c 0
 302.246 24.9023 352.051 57.6172 366.211 123.047 c 0
EndSplineSet
Fore
108 452 m 1xf0
 299 452 l 2
 403 452 456 421 456 362 c 0xe8
 456 320 436 286 411 268 c 0
 392 253 376 246 339 238 c 1
 399 222 434 198 434 146 c 0
 434 103 407 61 375 38 c 0
 344 14 293 0 240 0 c 2
 12 0 l 1
 15 13 l 1
 71 15 82 24 93 74 c 2
 157 378 l 2
 160 391 162 401 162 409 c 0
 162 432 147 437 105 439 c 1
 108 452 l 1xf0
194 223 m 1
 158 53 l 2
 157 49 157 46 157 43 c 0
 157 29 167 25 195 25 c 0
 287 25 337 52 352 122 c 0
 354 131 355 139 355 147 c 0xf0
 355 176 341 196 313 209 c 0
 291 219 260 223 194 223 c 1
200 250 m 1
 265 250 l 2
 329 250 372 280 383 333 c 0
 385 341 386 349 386 356 c 0xe8
 386 402 350 427 283 427 c 2
 253 427 l 2
 243 427 236 421 233 406 c 2
 200 250 l 1
EndSplineSet
KernsSLIF: 65 -34 2 0 264 -30 2 0 306 -34 2 0 307 -34 2 0 309 -34 2 0 310 -34 2 0 308 -34 2 0 79 -16 2 0 265 -12 2 0 322 -16 2 0 323 -16 2 0 325 -16 2 0 321 -16 2 0 362 -15 2 0 86 -44 2 0 87 -40 2 0 89 -46 2 0
EndChar
StartChar: C
Encoding: 67 67 36
Width: 455
Flags: W
HStem: -10 30<244 272> 307 132<467 488> 434 28<344 365>
VStem: 60 79<149 183>
Back
456.055 75.1953 m 1
 445.312 61.5234 427.246 47.3633 401.855 32.2266 c 0
 356.445 5.37109 307.617 -7.8125 254.883 -7.8125 c 0
 186.523 -7.8125 136.23 12.207 104.004 53.2227 c 1
 73.2422 95.2148 65.4297 150.879 81.0547 221.191 c 0
 88.3789 253.906 100.098 284.18 116.211 312.012 c 0
 131.836 339.844 153.809 365.723 181.152 389.16 c 0
 236.328 436.523 295.41 457.52 357.91 453.125 c 2
 393.066 450.195 l 2
 398.438 449.219 404.297 448.73 411.621 447.266 c 0
 418.457 446.289 425.781 444.824 433.105 442.871 c 2
 473.145 431.152 l 1
 487.793 431.152 499.512 438.477 507.812 453.125 c 1
 520.996 453.125 l 1
 495.117 303.223 l 1
 480.957 303.223 l 1
 480.957 342.285 470.703 372.559 449.707 394.043 c 0
 428.711 415.527 398.438 425.781 358.887 425.781 c 0
 333.008 425.781 308.594 420.898 286.133 410.156 c 0
 263.184 399.414 243.164 382.812 225.098 360.84 c 0
 192.871 324.219 170.898 276.855 159.18 219.238 c 0
 152.832 190.918 150.879 165.527 151.855 142.578 c 0
 153.32 119.629 158.691 98.6328 167.969 80.0781 c 0
 188.477 39.5508 226.074 19.043 279.785 19.043 c 0
 334.473 19.043 389.648 41.5039 444.824 86.9141 c 1
 456.055 75.1953 l 1
EndSplineSet
Fore
244 -10 m 0xb0
 138 -10 60 48 60 163 c 0
 60 182 62 202 66 222 c 0
 82 297 122 361 179 403 c 0
 229 440 290 462 346 462 c 0xb0
 378 462 411 456 443 445 c 0
 452 441 461 439 467 439 c 0xd0
 481 439 494 447 501 462 c 1
 515 462 l 1xb0
 488 307 l 1
 473 307 l 1xd0
 470 352 463 371 447 393 c 0
 424 420 392 434 353 434 c 0
 254 434 173 354 147 231 c 0
 142 205 139 182 139 160 c 0
 139 69 187 20 272 20 c 0
 328 20 378 41 439 89 c 1
 448 77 l 1
 396 22 321 -10 244 -10 c 0xb0
EndSplineSet
KernsSLIF: 65 -15 2 0 264 -10 2 0 306 -15 2 0 309 -15 2 0 310 -15 2 0 72 -1 2 0 75 -6 2 0 79 -8 2 0 322 -8 2 0 325 -8 2 0
EndChar
StartChar: D
Encoding: 68 68 37
Width: 492
Flags: W
HStem: 0 25<170 207> 427 25<107 293>
VStem: 446 76<271 289>
DStem: 151 378 226 400 87 74 152 53
Back
528.809 225.098 m 0
 516.113 166.992 488.281 118.164 444.824 78.125 c 0
 388.184 25.8789 312.5 0 217.773 0 c 2
 22.9492 0 l 1
 25.8789 13.1836 l 1
 45.4102 13.1836 62.9883 17.0898 79.1016 25.8789 c 1
 88.3789 36.1328 95.2148 51.7578 100.098 74.2188 c 2
 165.039 378.906 l 2
 170.41 402.832 169.922 418.945 164.062 426.758 c 0
 162.598 428.223 160.645 430.176 158.203 432.129 c 0
 155.273 434.082 151.855 435.547 146.973 437.012 c 2
 117.188 439.941 l 1
 119.141 453.125 l 1
 304.199 453.125 l 2
 386.23 453.125 446.777 435.547 485.84 400.879 c 0
 530.762 362.793 544.922 304.199 528.809 225.098 c 0
455.078 225.098 m 0
 469.238 292.48 458.984 343.262 424.805 377.93 c 0
 393.555 411.133 344.238 428.223 275.879 428.223 c 0
 263.184 428.223 253.906 425.781 247.07 420.898 c 0
 244.141 418.457 241.211 411.621 237.793 400.879 c 1
 164.062 54.1992 l 1
 162.109 41.5039 164.551 32.7148 170.898 27.832 c 0
 176.27 25.8789 185.547 24.9023 199.219 24.9023 c 0
 341.797 24.9023 426.758 91.7969 455.078 225.098 c 0
EndSplineSet
Fore
87 74 m 2
 151 378 l 2
 154 392 156 402 156 410 c 0
 156 431 143 435 104 439 c 1
 107 452 l 1
 291 452 l 2
 424 452 522 401 522 281 c 0
 522 188 472 108 411 61 c 0
 361 23 284 0 205 0 c 2
 11 0 l 1
 14 13 l 1
 66 16 76 25 87 74 c 2
446 277 m 0
 446 376 384 427 267 427 c 0
 239 427 230 421 226 400 c 2
 152 53 l 2
 151 49 151 46 151 43 c 0
 151 29 159 25 181 25 c 0
 241 25 282 33 321 53 c 0
 383 85 423 143 440 223 c 0
 444 242 446 260 446 277 c 0
EndSplineSet
KernsSLIF: 65 -45 2 0 306 -45 2 0 307 -45 2 0 309 -45 2 0 305 -45 2 0 310 -45 2 0 308 -45 2 0 74 -28 2 0 84 -6 2 0 86 -48 2 0 87 -38 2 0 88 -43 2 0 89 -50 2 0
EndChar
StartChar: E
Encoding: 69 69 38
Width: 417
Flags: W
HStem: 0 25<185 377> 223 28<190 313> 354 98<104 448> 426 26<104 377>
DStem: 148 378 223 403 84 74 190 251 148 378 184 223 84 74 149 55
Back
454.102 115.234 m 1
 398.926 0 l 1
 28.8086 0 l 1
 32.2266 13.1836 l 1
 55.1758 13.1836 71.7773 17.0898 81.543 25.8789 c 0
 91.3086 34.668 98.6328 50.7812 104.004 74.2188 c 1
 168.945 378.906 l 1
 174.316 406.25 173.34 422.852 166.016 429.199 c 1
 149.902 436.035 l 1
 123.047 439.941 l 1
 125 453.125 l 1
 488.77 453.125 l 1
 470.215 354.98 l 1
 453.125 354.98 l 1
 455.078 387.695 449.219 408.203 435.059 416.992 c 0
 422.363 424.316 398.438 428.223 363.77 428.223 c 2
 271.973 428.223 l 2
 264.648 428.223 258.789 426.758 254.883 424.805 c 0
 250.488 420.898 247.07 414.062 245.117 403.809 c 2
 212.891 251.953 l 1
 317.871 251.953 l 2
 345.215 251.953 363.77 255.859 374.023 264.16 c 0
 385.254 271.973 395.996 289.551 405.762 316.895 c 1
 422.852 316.895 l 1
 390.137 159.18 l 1
 373.047 159.18 l 1
 375 187.5 372.07 205.078 363.77 210.938 c 1
 357.91 219.238 340.332 223.145 311.035 223.145 c 2
 206.055 223.145 l 1
 170.898 55.1758 l 1
 166.992 37.5977 178.223 27.3438 205.078 23.9258 c 0
 198.242 24.9023 200.195 25.3906 209.961 25.3906 c 0
 220.215 25.8789 238.77 25.8789 267.09 25.8789 c 0
 309.57 25.8789 341.309 31.25 361.816 41.9922 c 0
 374.512 48.8281 387.207 58.1055 398.926 69.8242 c 0
 411.133 82.0312 422.852 97.168 434.082 115.234 c 1
 454.102 115.234 l 1
EndSplineSet
Fore
432 115 m 1xd0
 377 0 l 1
 8 0 l 1
 11 13 l 1
 61 16 74 27 84 74 c 2
 148 378 l 2
 150 390 152 399 152 407 c 0
 152 430 139 436 101 439 c 1
 104 452 l 1xe0
 467 452 l 1xd0
 448 354 l 1
 431 354 l 1xe0
 431 360 l 0
 431 417 417 426 343 426 c 2
 251 426 l 2
 232 426 227 422 223 403 c 2
 190 251 l 1
 295 251 l 2
 356 251 367 268 384 316 c 1
 400 316 l 1
 367 158 l 1
 351 158 l 1
 351 164 352 170 352 175 c 0
 352 216 339 223 289 223 c 2
 184 223 l 1
 149 55 l 2
 148 50 147 45 147 42 c 0
 147 37 148 35 149 33 c 1
 153 29 180 25 214 25 c 2
 232 25 l 2
 330 25 363 42 413 115 c 1
 432 115 l 1xd0
EndSplineSet
EndChar
StartChar: F
Encoding: 70 70 39
Width: 379
Flags: W
HStem: 0 21G<8 199> 223 28<190 297> 354 98<104 448> 426 26<104 377>
DStem: 148 378 223 403 85 82 190 251 148 378 184 223 85 82 153 74
Back
459.961 354.98 m 1
 442.871 354.98 l 1
 445.801 387.207 439.453 407.227 423.828 416.016 c 0
 412.598 423.34 389.648 426.758 354.98 426.758 c 2
 262.207 426.758 l 2
 248.047 426.758 239.258 418.945 235.84 402.832 c 2
 204.102 251.953 l 1
 301.758 251.953 l 2
 315.43 251.953 326.66 252.93 336.426 254.883 c 0
 346.191 256.836 354.492 260.742 360.84 265.625 c 0
 367.676 270.508 373.535 276.855 377.93 285.156 c 0
 382.812 292.969 386.719 303.223 390.137 315.918 c 1
 405.762 315.918 l 1
 373.047 158.203 l 1
 356.934 158.203 l 1
 360.352 183.105 357.91 200.684 349.121 209.473 c 0
 340.332 218.262 322.266 223.145 294.922 223.145 c 2
 198.242 225.098 l 1
 166.016 74.2188 l 1
 160.645 50.7812 161.621 34.668 168.457 25.8789 c 0
 175.293 17.0898 190.43 13.1836 213.867 13.1836 c 1
 210.938 0 l 1
 20.0195 0 l 1
 22.9492 13.1836 l 1
 48.3398 13.1836 65.4297 18.5547 75.1953 28.8086 c 0
 83.4961 37.5977 90.8203 55.1758 96.1914 82.0312 c 1
 159.18 377.93 l 1
 165.039 403.32 164.551 419.922 157.227 428.223 c 1
 141.113 436.035 l 1
 113.77 439.941 l 1
 116.211 452.148 l 1
 479.004 452.148 l 1
 459.961 354.98 l 1
EndSplineSet
Fore
361 158 m 1xd0
 345 158 l 1
 345 164 346 169 346 174 c 0
 346 215 333 223 283 223 c 2
 184 223 l 1
 153 74 l 2
 150 62 149 52 149 44 c 0
 149 21 163 15 202 13 c 1
 199 0 l 1
 8 0 l 1
 11 13 l 1
 63 16 73 25 85 82 c 2
 148 378 l 2
 150 390 152 399 152 407 c 0
 152 430 139 436 101 439 c 1
 104 452 l 1xe0
 467 452 l 1xd0
 448 354 l 1
 431 354 l 1xe0
 431 360 l 0
 431 417 417 426 343 426 c 2
 250 426 l 2
 232 426 227 422 223 403 c 2
 190 251 l 1
 289 251 l 2
 344 251 359 262 378 316 c 1
 394 316 l 1
 361 158 l 1xd0
EndSplineSet
KernsSLIF: 65 -48 2 0 306 -48 2 0 307 -48 2 0 309 -48 2 0 305 -48 2 0 310 -48 2 0 308 -48 2 0 74 -8 2 0 79 -6 2 0 325 -6 2 0 97 -23 2 0 332 -23 2 0 335 -6 2 0 266 -24 2 0 336 -23 2 0 44 -34 2 0 101 -12 2 0 339 -12 2 0 45 2 2 0 105 -8 2 0 106 -13 2 0 111 -14 2 0 348 -14 2 0 351 -14 2 0 267 -14 2 0 364 -14 2 0 46 -39 2 0 114 -6 2 0 117 -7 2 0
EndChar
StartChar: G
Encoding: 71 71 40
Width: 492
Flags: W
HStem: -10 28<261 285> 434 28<349 367>
VStem: 62 78<161 183>
DStem: 406 169 474 177 382 58 444 38
Back
538.086 226.074 m 1
 518.555 224.121 506.836 221.191 501.953 216.797 c 0
 492.188 208.984 484.863 194.336 479.98 172.852 c 2
 451.172 39.0625 l 2
 449.707 33.6914 442.383 28.8086 429.688 23.9258 c 0
 416.504 19.5312 396.973 13.1836 371.094 5.85938 c 1
 348.145 1.95312 329.102 -1.46484 313.477 -3.90625 c 0
 297.852 -6.83594 285.645 -7.8125 276.855 -7.8125 c 0
 195.801 -7.8125 137.695 15.1367 103.027 62.0117 c 0
 91.7969 77.1484 83.9844 94.2383 79.5898 112.305 c 0
 75.1953 130.859 73.2422 150.879 74.2188 171.875 c 0
 74.2188 179.199 74.707 187.988 76.6602 197.266 c 0
 78.125 207.031 80.5664 217.773 83.0078 229.004 c 0
 96.1914 294.434 129.883 348.145 184.082 390.137 c 0
 237.793 432.617 297.363 454.102 361.816 454.102 c 0
 386.23 454.102 411.133 451.172 437.012 444.824 c 1
 477.051 431.152 l 1
 494.141 431.152 506.836 438.477 514.16 454.102 c 1
 527.832 454.102 l 1
 502.93 312.012 l 1
 487.793 312.012 l 1
 475.098 388.672 434.57 426.758 366.211 426.758 c 0
 309.57 426.758 262.207 404.785 224.121 359.863 c 0
 191.895 321.289 169.922 272.949 158.203 214.844 c 0
 151.855 187.012 149.902 161.133 151.367 137.695 c 0
 153.32 113.77 159.18 93.2617 169.922 76.1719 c 0
 194.824 36.6211 234.375 17.0898 289.062 17.0898 c 0
 297.852 17.0898 306.641 18.0664 315.918 19.5312 c 0
 325.195 20.9961 334.473 22.9492 344.238 24.9023 c 0
 371.094 30.7617 386.719 41.5039 390.137 56.1523 c 1
 413.086 166.016 l 2
 418.457 190.43 418.457 207.52 413.086 215.82 c 1
 395.02 223.145 l 2
 390.137 225.098 381.348 226.074 368.164 226.074 c 1
 371.094 237.793 l 1
 541.016 237.793 l 1
 538.086 226.074 l 1
EndSplineSet
Fore
263 -10 m 0
 151 -10 62 49 62 161 c 0
 62 180 64 200 69 222 c 0
 99 361 217 462 354 462 c 0
 385 462 415 456 444 446 c 0
 455 441 465 439 472 439 c 0
 486 439 501 449 508 462 c 1
 523 462 l 1
 497 317 l 1
 481 317 l 1
 473 359 466 378 450 397 c 0
 428 421 398 434 360 434 c 0
 313 434 267 416 230 382 c 0
 193 349 161 287 147 223 c 0
 142 201 140 180 140 161 c 0
 140 71 191 18 283 18 c 0
 332 18 378 36 382 58 c 2
 406 169 l 2
 409 181 410 191 410 199 c 0
 410 210 408 217 403 220 c 0
 396 225 387 227 359 229 c 1
 361 242 l 1
 535 242 l 1
 533 229 l 1
 492 226 482 217 474 177 c 2
 444 38 l 1
 412 14 322 -10 263 -10 c 0
EndSplineSet
KernsSLIF: 65 -17 2 0 264 -12 2 0 306 -17 2 0 307 -17 2 0 309 -17 2 0 305 -17 2 0 310 -17 2 0 308 -17 2 0 84 -14 2 0 86 -15 2 0 87 -12 2 0 89 -17 2 0
EndChar
StartChar: H
Encoding: 72 72 41
Width: 492
Flags: W
HStem: 215 30<195 396>
DStem: 153 378 223 378 90 82 195 245 153 378 189 215 90 82 159 74 396 215 499 378 367 82 435 74 430 378 499 378 402 245 435 74
Back
493.164 0 m 1
 303.223 0 l 1
 306.152 13.1836 l 1
 330.566 13.1836 349.121 18.5547 360.84 28.8086 c 0
 367.676 35.6445 374.023 53.2227 379.883 82.0312 c 2
 409.18 214.844 l 1
 201.172 214.844 l 1
 170.898 74.2188 l 2
 166.504 52.7344 166.504 37.1094 171.875 26.8555 c 0
 173.34 24.9023 179.199 21.4844 188.965 17.0898 c 1
 219.238 13.1836 l 1
 215.82 0 l 1
 24.9023 0 l 1
 27.832 13.1836 l 1
 52.7344 13.1836 70.8008 18.5547 83.0078 28.8086 c 0
 91.7969 37.5977 98.1445 55.1758 103.027 82.0312 c 1
 166.992 378.906 l 2
 172.363 402.832 171.875 418.945 166.016 426.758 c 0
 164.551 428.223 162.598 430.176 160.156 432.129 c 0
 157.227 434.082 153.809 435.547 148.926 437.012 c 2
 119.141 440.918 l 1
 121.094 453.125 l 1
 312.012 453.125 l 1
 310.059 440.918 l 1
 297.363 440.918 286.621 439.941 278.32 438.477 c 0
 270.02 437.012 263.184 433.594 257.812 429.199 c 0
 252.441 424.316 248.535 417.969 245.117 410.156 c 0
 241.699 401.855 238.77 391.602 235.84 378.906 c 2
 207.031 246.094 l 1
 415.039 246.094 l 1
 443.848 378.906 l 1
 450.684 413.086 444.824 432.129 425.781 437.012 c 1
 396.973 440.918 l 1
 398.926 453.125 l 1
 588.867 453.125 l 1
 586.914 440.918 l 1
 562.988 440.918 546.387 436.523 536.621 428.223 c 0
 526.855 419.434 519.531 402.832 514.16 378.906 c 2
 449.219 74.2188 l 1
 443.848 50.7812 444.336 34.668 451.172 25.8789 c 0
 457.52 17.0898 472.656 13.1836 496.094 13.1836 c 1
 493.164 0 l 1
EndSplineSet
Fore
195 245 m 1
 402 245 l 1
 430 378 l 2
 433 391 434 400 434 408 c 0
 434 430 421 435 382 439 c 1
 385 452 l 1
 575 452 l 1
 572 439 l 1
 519 434 510 427 499 378 c 2
 435 74 l 2
 433 62 431 53 431 45 c 0
 431 22 444 16 482 13 c 1
 479 0 l 1
 289 0 l 1
 292 13 l 1
 346 16 355 25 367 82 c 2
 396 215 l 1
 189 215 l 1
 159 74 l 2
 157 62 155 53 155 45 c 0
 155 22 168 16 206 13 c 1
 203 0 l 1
 13 0 l 1
 16 13 l 1
 69 16 78 25 90 82 c 2
 153 378 l 2
 156 391 158 401 158 409 c 0
 158 431 144 435 106 439 c 1
 109 452 l 1
 299 452 l 1
 296 439 l 1
 242 434 234 427 223 378 c 2
 195 245 l 1
EndSplineSet
EndChar
StartChar: I
Encoding: 73 73 42
Width: 227
Flags: W
HStem: 0 21G<12 215> 432 20G<108 311>
DStem: 159 378 228 378 95 74 164 74
Back
227.051 0 m 1
 24.9023 0 l 1
 27.832 13.1836 l 1
 41.5039 13.1836 52.2461 13.6719 61.0352 15.625 c 0
 69.8242 17.0898 76.6602 20.0195 82.5195 24.4141 c 0
 88.3789 28.8086 92.7734 35.1562 96.6797 42.9688 c 0
 100.098 50.7812 103.516 61.5234 105.957 74.2188 c 2
 169.922 377.93 l 2
 174.805 400.879 174.805 416.992 170.898 426.758 c 1
 162.109 435.547 145.02 439.941 119.141 439.941 c 1
 121.094 452.148 l 1
 323.242 452.148 l 1
 320.801 439.941 l 1
 297.852 439.941 279.297 436.523 266.113 429.199 c 1
 255.371 420.898 247.07 403.809 241.211 377.93 c 1
 176.758 74.2188 l 2
 171.875 48.8281 172.852 32.2266 180.176 24.4141 c 0
 187.5 16.6016 204.102 13.1836 229.98 13.1836 c 1
 227.051 0 l 1
EndSplineSet
Fore
95 74 m 2
 159 378 l 2
 162 390 163 400 163 408 c 0
 163 432 149 437 105 439 c 1
 108 452 l 1
 311 452 l 1
 308 439 l 1
 251 436 239 427 228 378 c 2
 164 74 l 2
 161 62 160 53 160 45 c 0
 160 21 175 15 218 13 c 1
 215 0 l 1
 12 0 l 1
 15 13 l 1
 73 15 84 23 95 74 c 2
EndSplineSet
EndChar
StartChar: J
Encoding: 74 74 43
Width: 265
Flags: W
HStem: -10 84<56 72> 432 20G<153 349>
DStem: 200 378 270 378 133 61 217 125
Back
351.074 439.941 m 1
 315.43 439.941 293.457 430.176 284.18 410.156 c 0
 279.785 402.832 276.855 392.09 274.902 378.906 c 1
 221.191 125 l 1
 211.426 84.9609 195.801 53.2227 172.852 28.8086 c 1
 146.973 4.39453 115.234 -7.8125 77.1484 -7.8125 c 0
 59.5703 -7.8125 45.4102 -4.88281 34.1797 1.95312 c 0
 20.0195 10.7422 15.1367 23.4375 19.043 40.0391 c 0
 20.5078 47.8516 25.3906 55.6641 33.6914 62.9883 c 0
 41.9922 70.3125 49.8047 74.2188 58.1055 74.2188 c 0
 71.2891 74.2188 80.0781 68.8477 83.9844 59.082 c 1
 88.8672 30.7617 l 1
 90.332 20.9961 94.2383 16.1133 100.098 16.1133 c 0
 118.652 16.1133 130.859 31.25 137.207 62.0117 c 1
 205.078 378.906 l 2
 210.449 404.297 209.473 420.898 202.637 428.711 c 0
 195.312 436.035 179.199 439.941 153.809 439.941 c 1
 155.762 453.125 l 1
 353.027 453.125 l 1
 351.074 439.941 l 1
EndSplineSet
Fore
270 378 m 2
 217 125 l 2
 199 40 146 -10 72 -10 c 0
 38 -10 15 6 15 30 c 0
 15 33 15 37 16 40 c 0
 19 58 38 74 56 74 c 0
 74 74 82 63 84 39 c 0
 86 22 88 16 97 16 c 0
 115 16 127 31 133 61 c 2
 200 378 l 2
 203 391 205 401 205 409 c 0
 205 431 191 436 150 439 c 1
 153 452 l 1
 349 452 l 1
 346 439 l 1
 289 435 281 427 270 378 c 2
EndSplineSet
KernsSLIF: 65 -36 2 0 264 -31 2 0 309 -36 2 0 310 -36 2 0
EndChar
StartChar: K
Encoding: 75 75 44
Width: 492
Flags: W
HStem: 0 14<288 494> 438 14<377 393>
DStem: 165 378 234 378 102 82 205 238 165 378 197 202 102 82 170 74 349 348 439 386 205 238 282 257
Back
506.836 0 m 1
 298.828 0 l 1
 301.758 13.1836 l 1
 332.031 13.1836 349.121 18.5547 353.027 29.7852 c 0
 356.934 47.3633 335.449 85.4492 289.062 145.02 c 1
 229.98 216.797 l 1
 209.961 202.148 l 1
 183.105 74.2188 l 1
 177.734 50.7812 178.223 34.668 184.082 25.8789 c 1
 199.219 16.1133 l 1
 207.031 14.1602 217.773 13.1836 230.957 13.1836 c 1
 228.027 0 l 1
 36.1328 0 l 1
 39.0625 13.1836 l 1
 62.9883 13.1836 81.543 18.5547 95.2148 29.7852 c 0
 102.539 36.6211 108.887 54.1992 113.77 82.0312 c 1
 176.758 377.93 l 2
 182.129 401.855 181.641 418.457 175.293 426.758 c 0
 168.945 435.547 153.809 439.941 129.883 439.941 c 1
 131.836 453.125 l 1
 326.172 453.125 l 1
 324.219 439.941 l 1
 303.223 439.941 285.156 435.547 270.02 426.758 c 1
 260.742 419.434 252.93 403.32 247.07 377.93 c 1
 217.773 238.77 l 1
 308.105 307.129 l 1
 391.113 371.094 l 2
 414.551 389.648 427.734 405.273 431.152 417.969 c 0
 433.594 432.617 419.434 439.941 389.16 439.941 c 1
 391.113 453.125 l 1
 569.824 453.125 l 1
 567.871 439.941 l 1
 556.641 439.941 546.875 438.477 539.062 436.035 c 2
 516.113 430.176 l 1
 500 422.852 478.516 408.203 452.148 386.23 c 2
 294.922 257.812 l 1
 444.824 50.7812 l 1
 462.891 30.7617 l 2
 475.098 19.043 490.723 13.1836 509.766 13.1836 c 1
 506.836 0 l 1
EndSplineSet
Fore
375 439 m 1
 378 452 l 1
 557 452 l 1
 554 439 l 1
 507 436 495 430 439 386 c 1
 282 257 l 1
 404 87 l 2
 453 20 461 14 497 13 c 1
 494 0 l 1
 285 0 l 1
 288 13 l 1
 297 14 304 14 308 14 c 0
 327 14 337 19 339 29 c 2
 339 33 l 2
 339 70 251 174 218 216 c 1
 197 202 l 1
 170 74 l 2
 167 62 166 52 166 44 c 0
 166 21 180 15 219 13 c 1
 216 0 l 1
 23 0 l 1
 26 13 l 1
 80 16 90 25 102 82 c 2
 165 378 l 2
 168 390 169 399 169 407 c 0
 169 430 155 436 116 439 c 1
 119 452 l 1
 313 452 l 1
 310 439 l 1
 254 435 245 427 234 378 c 2
 205 238 l 1
 349 348 l 2
 394 382 414 403 417 418 c 0
 417 420 418 422 418 424 c 0
 418 433 410 437 393 438 c 0
 390 438 383 438 375 439 c 1
EndSplineSet
KernsSLIF: 67 -29 2 0 71 -33 2 0 79 -34 2 0 265 -30 2 0 322 -34 2 0 325 -34 2 0 97 1 2 0 335 1 2 0 336 1 2 0 101 -12 2 0 45 -43 2 0 111 -21 2 0 348 -21 2 0 351 -21 2 0 117 -12 2 0 355 -12 2 0 121 -58 2 0
EndChar
StartChar: L
Encoding: 76 76 45
Width: 417
Flags: W
HStem: 0 27<183 376> 432 20G<104 297>
DStem: 148 378 217 378 84 74 149 55
Back
456.055 119.141 m 1
 397.949 0 l 1
 28.8086 0 l 1
 32.2266 13.1836 l 1
 55.1758 13.1836 71.7773 17.0898 81.543 25.8789 c 0
 91.3086 34.668 98.6328 50.7812 104.004 74.2188 c 1
 168.945 378.906 l 1
 174.316 406.25 173.34 422.852 166.016 429.199 c 1
 149.902 436.035 l 1
 123.047 439.941 l 1
 125 453.125 l 1
 318.848 453.125 l 1
 316.895 439.941 l 1
 284.18 437.012 l 1
 264.16 429.199 l 1
 253.418 420.898 245.117 404.297 240.234 378.906 c 2
 170.898 55.1758 l 1
 167.48 43.457 169.434 36.1328 175.781 32.2266 c 0
 178.711 29.7852 186.523 28.3203 199.219 26.8555 c 0
 201.172 26.3672 205.566 25.8789 211.914 25.8789 c 2
 232.91 25.8789 l 2
 292.969 25.8789 332.52 30.2734 352.051 39.0625 c 0
 381.836 51.7578 410.645 78.125 437.988 119.141 c 1
 456.055 119.141 l 1
EndSplineSet
Fore
416 119 m 1
 433 119 l 1
 376 0 l 1
 8 0 l 1
 11 13 l 1
 61 16 74 27 84 74 c 2
 148 378 l 2
 150 390 152 399 152 407 c 0
 152 430 139 436 101 439 c 1
 104 452 l 1
 297 452 l 5
 294 439 l 1
 240 436 228 426 217 378 c 2
 149 55 l 2
 148 51 148 48 148 45 c 0
 148 30 160 27 202 27 c 2
 248 27 l 2
 339 27 378 57 416 119 c 1
EndSplineSet
KernsSLIF: 264 4 2 0 67 1 2 0 79 -2 2 0 322 -2 2 0 323 -2 2 0 325 -2 2 0 321 -2 2 0 324 -2 2 0 83 3 2 0 84 -49 2 0 85 -17 2 0 329 -17 2 0 86 -78 2 0 87 -60 2 0 89 -68 2 0 45 17 2 0 148 -68 2 0 146 -85 2 0 117 -6 2 0 355 -6 2 0 121 -38 2 0
EndChar
StartChar: M
Encoding: 77 77 46
Width: 606
Flags: W
HStem: 0 21G<8 169 276 285 398 589> 432 20G<106 241 549 685>
DStem: 154 378 184 376 95 100 125 100 184 376 241 452 276 0 325 107 543 391 610 378 477 82 546 74 549 452 543 391 325 107 285 0
Back
601.074 0 m 1
 410.156 0 l 1
 413.086 13.1836 l 1
 438.965 13.1836 457.52 18.0664 467.773 27.832 c 0
 477.539 38.0859 484.375 56.1523 488.77 82.0312 c 1
 554.199 388.184 l 1
 297.852 0 l 1
 288.086 0 l 1
 195.801 373.047 l 1
 137.207 100.098 l 2
 130.371 68.8477 128.906 47.3633 132.812 36.1328 c 0
 137.695 20.5078 154.785 13.1836 184.082 13.1836 c 1
 181.152 0 l 1
 20.0195 0 l 1
 22.9492 13.1836 l 1
 52.2461 13.1836 72.7539 20.5078 83.9844 36.1328 c 0
 91.7969 45.8984 99.6094 67.3828 106.934 100.098 c 1
 166.016 376.953 l 1
 171.875 402.344 170.898 418.945 163.086 426.758 c 0
 160.156 429.688 154.785 432.129 145.996 435.059 c 1
 115.234 438.965 l 1
 118.164 452.148 l 1
 251.953 452.148 l 1
 336.914 106.934 l 1
 561.035 452.148 l 1
 696.777 452.148 l 1
 693.848 438.965 l 1
 670.898 438.965 654.297 434.57 644.531 425.293 c 0
 634.766 416.504 627.441 400.391 622.07 376.953 c 1
 558.105 74.2188 l 1
 550.781 41.5039 556.152 21.9727 575.195 16.1133 c 1
 604.004 13.1836 l 1
 601.074 0 l 1
EndSplineSet
Fore
543 391 m 1
 285 0 l 1
 276 0 l 1
 184 376 l 1
 125 100 l 2
 121 81 119 66 119 54 c 0
 119 24 134 15 172 13 c 1
 169 0 l 1
 8 0 l 1
 11 13 l 1
 69 17 80 30 95 100 c 2
 154 378 l 2
 157 391 159 401 159 409 c 0
 159 431 145 437 103 439 c 1
 106 452 l 1
 241 452 l 1
 325 107 l 1
 549 452 l 1
 685 452 l 5
 682 439 l 1
 631 435 621 426 610 378 c 2
 546 74 l 2
 543 62 542 52 542 44 c 0
 542 21 555 15 592 13 c 1
 589 0 l 1
 398 0 l 1
 401 13 l 1
 455 16 465 25 477 82 c 2
 543 391 l 1
EndSplineSet
EndChar
StartChar: N
Encoding: 78 78 47
Width: 492
Flags: W
HStem: -8 21G<404 416> 439 13<104 118.277>
DStem: 159 401 182 368 95 100 125 100 182 368 221 452 404 -8 414 122 463 352 493 352 414 122 416 -8
Back
590.82 439.941 m 1
 564.453 439.941 543.945 431.641 529.785 415.039 c 0
 520.02 402.344 512.207 381.348 505.859 352.051 c 2
 430.176 -5.85938 l 1
 418.945 -5.85938 l 1
 195.801 368.164 l 1
 138.184 101.074 l 1
 131.348 68.8477 129.883 47.3633 133.789 36.1328 c 0
 138.672 20.5078 155.762 13.1836 185.059 13.1836 c 1
 182.129 0 l 1
 20.0195 0 l 1
 22.9492 13.1836 l 1
 51.7578 13.1836 72.2656 20.5078 84.9609 36.1328 c 0
 92.7734 45.8984 100.586 67.8711 107.91 101.074 c 2
 172.852 402.832 l 1
 159.18 427.734 139.16 439.941 113.77 439.941 c 1
 116.211 453.125 l 1
 233.887 453.125 l 1
 425.781 124.023 l 1
 477.051 352.051 l 1
 483.887 383.789 484.863 405.762 480.957 416.992 c 0
 474.121 432.129 457.031 439.941 429.199 439.941 c 1
 431.152 453.125 l 1
 592.773 453.125 l 1
 590.82 439.941 l 1
EndSplineSet
Fore
469 398 m 0
 469 434 449 436 415 439 c 1
 418 452 l 1
 579 452 l 1
 576 439 l 1
 550 436 539 434 529 427 c 0
 514 418 502 393 493 352 c 2
 416 -8 l 1
 404 -8 l 1
 182 368 l 1
 125 100 l 2
 121 81 119 66 119 54 c 0
 119 24 134 15 172 13 c 1
 169 0 l 1
 8 0 l 1
 11 13 l 1
 69 17 80 30 95 100 c 2
 159 401 l 1
 139 434 131 439 101 439 c 1
 104 452 l 1
 221 452 l 1
 414 122 l 1
 463 352 l 2
 467 370 469 386 469 398 c 0
EndSplineSet
KernsSLIF: 65 -19 2 0 264 -14 2 0 306 -19 2 0 309 -19 2 0 310 -19 2 0 67 -10 2 0 311 -10 2 0 71 -12 2 0 79 -13 2 0 322 -13 2 0 325 -13 2 0 97 -18 2 0 332 -18 2 0 335 -18 2 0 266 -18 2 0 336 -18 2 0 44 -9 2 0 101 -11 2 0 339 -11 2 0 111 -14 2 0 348 -14 2 0 351 -14 2 0 364 -13 2 0 46 -14 2 0 117 -17 2 0 355 -17 2 0
EndChar
StartChar: O
Encoding: 79 79 48
Width: 492
Flags: W
HStem: -10 25<238 258> 437 25<336 354>
VStem: 65 76<148 170> 449 75<277 304>
Back
530.762 225.098 m 0
 517.09 157.715 484.863 101.562 434.082 57.1289 c 0
 384.766 13.6719 326.172 -7.8125 257.812 -7.8125 c 0
 190.43 -7.8125 141.113 13.6719 109.863 57.1289 c 0
 78.6133 100.098 69.8242 156.25 83.9844 225.098 c 0
 98.1445 292.48 130.859 348.633 182.129 394.043 c 0
 231.445 438.477 290.039 460.938 357.91 460.938 c 0
 425.781 460.938 475.098 438.477 505.859 394.043 c 0
 536.621 350.586 544.922 294.434 530.762 225.098 c 0
453.125 226.074 m 0
 464.844 281.25 464.844 328.125 453.125 366.211 c 1
 435.547 413.574 402.344 437.012 353.027 437.012 c 0
 301.758 437.012 258.301 413.574 223.145 367.188 c 0
 194.336 330.566 173.828 283.203 162.109 226.074 c 0
 149.902 169.922 150.391 123.535 163.086 85.9375 c 0
 178.223 38.0859 211.426 14.1602 263.184 14.1602 c 0
 313.477 14.1602 356.934 38.0859 393.066 85.9375 c 0
 420.898 124.023 440.918 170.898 453.125 226.074 c 0
EndSplineSet
Fore
240 -10 m 0
 141 -10 65 56 65 168 c 0
 65 186 67 206 71 226 c 0
 100 363 214 462 344 462 c 0
 448 462 524 398 524 287 c 0
 524 267 522 245 517 223 c 0
 488 86 375 -10 240 -10 c 0
449 302 m 0
 449 385 411 437 339 437 c 0
 214 437 141 278 141 150 c 0
 141 106 151 69 169 48 c 0
 189 27 217 15 248 15 c 0
 312 15 367 57 390 101 c 1
 423 155 449 225 449 302 c 0
EndSplineSet
KernsSLIF: 65 -39 2 0 264 -34 2 0 306 -39 2 0 309 -39 2 0 310 -39 2 0 84 -6 2 0 86 -47 2 0 87 -36 2 0 88 -37 2 0 89 -49 2 0
EndChar
StartChar: P
Encoding: 80 80 49
Width: 379
Flags: W
HStem: 0 21G<11 202> 197 27<200 236> 427 25<107 268>
VStem: 368 75<337.59 356>
DStem: 148 378 224 404 85 82 186 226 148 378 180 199 85 82 154 74
Back
453.125 330.078 m 0
 442.871 283.203 415.039 248.535 369.141 225.098 c 0
 351.074 215.82 331.055 208.984 309.57 204.59 c 0
 287.598 200.195 264.16 198.242 237.793 198.242 c 2
 221.191 198.242 l 1
 192.871 200.195 l 1
 166.016 74.2188 l 2
 160.645 49.8047 162.109 33.6914 169.922 25.3906 c 0
 178.223 17.0898 193.848 13.1836 217.773 13.1836 c 1
 214.844 0 l 1
 22.9492 0 l 1
 25.8789 13.1836 l 1
 49.8047 13.1836 67.3828 18.5547 78.125 28.8086 c 0
 86.4258 38.5742 93.2617 56.1523 98.1445 82.0312 c 1
 162.109 378.906 l 2
 167.48 402.832 166.992 418.945 161.133 427.734 c 0
 154.785 436.035 140.137 439.941 117.188 439.941 c 1
 119.141 453.125 l 1
 299.805 453.125 l 2
 324.219 453.125 345.215 450.684 363.77 446.289 c 0
 382.812 442.383 399.414 436.035 414.062 428.223 c 0
 450.195 407.227 462.891 374.512 453.125 330.078 c 0
378.906 329.102 m 0
 393.066 395.02 356.445 428.223 269.043 428.223 c 0
 257.812 428.223 250 426.758 245.605 423.828 c 0
 241.211 421.387 237.793 415.039 235.84 404.785 c 2
 198.242 227.051 l 1
 201.172 227.051 204.59 227.051 208.496 226.562 c 0
 212.402 226.074 215.82 225.586 219.238 225.098 c 2
 238.77 225.098 l 2
 317.871 225.098 364.258 259.766 378.906 329.102 c 0
EndSplineSet
Fore
180 199 m 1
 154 74 l 2
 151 62 150 52 150 44 c 0
 150 21 164 15 205 13 c 1
 202 0 l 1
 11 0 l 1
 14 13 l 1
 67 18 73 25 85 82 c 2
 148 378 l 2
 151 391 153 401 153 409 c 0
 153 431 140 435 104 439 c 1
 107 452 l 1
 287 452 l 2
 368 452 443 426 443 353 c 0
 443 294 399 243 352 220 c 0
 318 203 280 197 227 197 c 0
 209 197 198 197 180 199 c 1
224 404 m 2
 186 226 l 1
 202 225 211 224 225 224 c 0
 303 224 351 258 365 324 c 0
 367 334 368 344 368 353 c 0
 368 404 331 427 252 427 c 0
 234 427 228 422 224 404 c 2
EndSplineSet
KernsSLIF: 65 -61 2 0 264 -62 2 0 306 -61 2 0 309 -61 2 0 310 -61 2 0 74 -35 2 0 97 -11 2 0 332 -11 2 0 335 -11 2 0 266 -12 2 0 336 -11 2 0 44 -64 2 0 101 -15 2 0 339 -15 2 0 45 -25 2 0 111 -17 2 0 348 -17 2 0 351 -17 2 0 267 -17 2 0 364 -17 2 0 46 -68 2 0
EndChar
StartChar: Q
Encoding: 81 81 50
Width: 492
Flags: W
HStem: -122 137<249 425> 437 25<336 354>
VStem: 65 76<146 168> 449 75<277 305>
Back
435.059 -108.887 m 1
 405.762 -109.863 l 2
 310.059 -113.281 244.141 -87.4023 208.984 -32.2266 c 1
 192.871 0 l 1
 171.875 5.37109 152.344 15.1367 134.277 29.2969 c 0
 116.699 43.9453 103.516 62.0117 94.2383 83.9844 c 0
 76.6602 125.488 73.2422 172.363 83.9844 225.098 c 0
 98.1445 293.457 130.371 349.609 181.152 393.066 c 1
 231.445 438.477 290.527 460.938 356.934 460.938 c 0
 424.316 460.938 473.633 438.477 504.883 393.066 c 0
 535.645 350.098 543.945 294.434 529.785 225.098 c 0
 516.113 157.715 483.887 101.562 433.105 57.1289 c 0
 413.086 39.5508 389.648 25.8789 362.305 16.1133 c 0
 335.449 5.85938 311.523 -0.488281 290.039 -2.92969 c 1
 301.758 -27.832 l 1
 325.195 -54.1992 l 1
 353.516 -82.5195 391.113 -97.168 437.012 -97.168 c 1
 435.059 -108.887 l 1
452.148 225.098 m 0
 463.867 280.273 463.867 327.148 452.148 365.234 c 0
 436.035 412.109 402.832 436.035 352.051 436.035 c 0
 299.805 436.035 256.836 412.109 222.168 365.234 c 0
 207.52 345.703 195.312 324.707 185.547 301.27 c 0
 175.781 278.32 167.969 252.93 162.109 225.098 c 0
 149.414 167.48 149.414 121.094 162.109 84.9609 c 0
 176.758 38.5742 209.961 15.1367 262.207 15.1367 c 0
 313.477 15.1367 356.445 38.5742 391.113 85.9375 c 0
 420.41 125.488 440.43 171.875 452.148 225.098 c 0
EndSplineSet
Fore
456 -109 m 1
 453 -121 l 1
 443 -121 436 -122 425 -122 c 0
 316 -122 239 -92 205 -38 c 2
 181 -1 l 1
 135 16 117 29 96 58 c 0
 75 88 65 125 65 166 c 0
 65 185 67 204 71 225 c 0
 100 363 214 462 344 462 c 0
 456 462 524 390 524 284 c 0
 524 181 472 94 402 43 c 0
 365 16 338 4 290 -5 c 1
 330 -76 378 -107 456 -109 c 1
342 437 m 0
 302 437 267 423 233 393 c 0
 184 348 141 247 141 148 c 0
 141 105 150 69 169 48 c 0
 190 27 217 15 249 15 c 0
 287 15 327 31 358 59 c 0
 403 101 449 207 449 303 c 0
 449 346 439 381 419 403 c 0
 399 424 371 437 342 437 c 0
EndSplineSet
EndChar
StartChar: R
Encoding: 82 82 51
Width: 455
Flags: W
HStem: 0 21G<12 201 340 450> 427 25<108 285>
VStem: 373 74<351 369>
DStem: 150 378 224 402 87 82 189 234 150 378 183 209 87 82 155 74 223 210 296 218 340 0 401 45
Back
464.844 0 m 1
 354.98 0 l 1
 236.816 210.938 l 1
 198.242 208.984 l 1
 169.922 74.2188 l 1
 164.551 50.7812 165.527 34.668 172.363 25.8789 c 0
 179.688 17.0898 194.824 13.1836 217.773 13.1836 c 1
 214.844 0 l 1
 25.8789 0 l 1
 28.8086 13.1836 l 1
 53.2227 13.1836 70.3125 18.5547 81.0547 28.8086 c 0
 87.8906 35.6445 94.2383 53.2227 100.098 82.0312 c 2
 164.062 378.906 l 1
 168.457 402.832 168.945 418.457 165.039 425.781 c 0
 157.715 435.547 142.578 439.941 120.117 439.941 c 1
 122.07 453.125 l 1
 310.059 453.125 l 2
 427.246 453.125 477.539 413.574 459.961 333.984 c 0
 447.266 273.438 397.461 234.863 310.059 217.773 c 1
 415.039 44.9219 l 2
 427.734 23.4375 445.312 13.1836 467.773 13.1836 c 1
 464.844 0 l 1
384.766 334.961 m 0
 398.438 396.973 365.723 428.223 287.109 428.223 c 0
 270.996 428.223 261.23 427.246 256.836 425.781 c 0
 247.559 422.852 242.188 415.039 240.234 402.832 c 1
 204.102 234.863 l 1
 226.074 234.863 245.605 236.328 263.184 238.281 c 0
 280.273 240.723 295.898 244.141 309.082 249.023 c 0
 350.098 263.184 375.488 291.504 384.766 334.961 c 0
EndSplineSet
Fore
453 13 m 1
 450 0 l 1
 340 0 l 1
 223 210 l 1
 183 209 l 1
 155 74 l 2
 152 62 151 52 151 44 c 0
 151 21 165 15 204 13 c 1
 201 0 l 1
 12 0 l 1
 15 13 l 1
 67 17 75 25 87 82 c 2
 150 378 l 2
 153 391 155 401 155 409 c 0
 155 430 142 435 105 439 c 1
 108 452 l 1
 296 452 l 2
 360 452 413 434 433 406 c 0
 442 392 447 377 447 359 c 0
 447 313 424 274 393 253 c 0
 366 235 344 227 296 218 c 1
 401 45 l 1
 415 22 427 15 453 13 c 1
224 402 m 2
 189 234 l 1
 255 236 280 240 315 257 c 0
 347 272 373 314 373 358 c 0
 373 405 338 427 265 427 c 0
 238 427 228 421 224 402 c 2
EndSplineSet
KernsSLIF: 67 -28 2 0 311 -28 2 0 71 -30 2 0 79 -30 2 0 265 -26 2 0 322 -30 2 0 325 -30 2 0 84 -23 2 0 85 -38 2 0 329 -37 2 0 86 -49 2 0 87 -45 2 0 89 -51 2 0 97 -1 2 0 332 -1 2 0 335 -1 2 0 266 -3 2 0 336 -1 2 0 101 -15 2 0 339 -15 2 0 45 -35 2 0 111 -24 2 0 348 -24 2 0 351 -24 2 0 267 -21 2 0 117 -16 2 0 353 -16 2 0 355 -16 2 0 121 -25 2 0
EndChar
StartChar: S
Encoding: 83 83 52
Width: 379
Flags: W
HStem: -10 25<174 200> 434 28<262 272>
VStem: 118 66<320 356> 288 74<114 139>
Back
374.023 113.77 m 0
 366.211 77.1484 344.238 46.875 309.082 22.9492 c 1
 275.879 2.44141 240.723 -7.8125 204.102 -7.8125 c 0
 189.453 -7.8125 170.898 -4.88281 147.949 1.95312 c 0
 136.719 5.85938 127.441 8.78906 120.117 10.7422 c 0
 112.793 12.207 106.445 13.1836 102.051 13.1836 c 0
 87.8906 13.1836 80.0781 6.34766 78.125 -6.83594 c 1
 62.0117 -6.83594 l 1
 71.7773 134.766 l 1
 86.9141 134.766 l 1
 103.027 54.1992 141.113 14.1602 202.148 14.1602 c 0
 224.121 14.1602 244.629 21.4844 264.16 36.1328 c 0
 283.203 50.7812 295.41 68.8477 299.805 90.8203 c 0
 306.152 117.188 298.828 141.602 277.832 165.039 c 0
 273.438 169.434 265.625 175.781 255.371 183.594 c 0
 245.117 191.406 231.445 200.195 214.844 210.938 c 0
 199.219 221.68 186.035 230.957 175.781 239.258 c 0
 166.016 248.047 158.203 255.859 151.855 263.184 c 0
 135.254 285.645 129.883 312.988 136.23 345.215 c 0
 140.137 362.305 146.484 377.93 155.273 392.578 c 0
 164.551 406.738 175.781 418.945 188.965 429.199 c 0
 202.148 438.965 216.797 446.777 232.91 452.637 c 0
 249.023 458.008 266.113 460.938 284.18 460.938 c 0
 295.41 460.938 313.477 457.031 337.891 449.219 c 2
 375 437.988 l 1
 386.23 437.988 395.508 445.801 402.832 460.938 c 1
 417.969 460.938 l 1
 400.879 315.918 l 1
 384.766 315.918 l 1
 384.766 348.145 376.465 375.488 359.863 397.949 c 1
 339.844 421.387 314.453 433.105 283.203 433.105 c 0
 263.672 433.105 246.094 427.246 230.469 415.527 c 0
 214.844 403.809 204.59 388.184 200.195 369.141 c 0
 193.848 341.797 208.008 314.941 242.188 289.062 c 2
 337.891 219.238 l 2
 372.07 193.848 383.789 158.691 374.023 113.77 c 0
EndSplineSet
Fore
185 15 m 0
 241 15 288 55 288 114 c 0
 288 121 287 127 285 132 c 0
 274 158 244 186 200 212 c 0
 144 246 118 278 118 320 c 0
 118 397 193 462 265 462 c 0
 286 462 311 456 334 447 c 1
 345 441 355 438 362 438 c 0
 374 438 383 446 389 462 c 1
 403 462 l 1
 387 316 l 1
 370 316 l 1
 368 356 362 374 346 396 c 0
 327 421 301 434 270 434 c 0
 228 434 194 408 186 370 c 0
 185 365 184 361 184 356 c 0
 184 325 208 298 264 264 c 0
 332 222 362 184 362 139 c 0
 362 132 361 123 359 115 c 0
 344 44 272 -10 194 -10 c 0
 167 -10 140 -4 116 6 c 0
 104 11 94 14 86 14 c 0
 76 14 66 4 62 -9 c 1
 47 -9 l 1
 58 136 l 1
 73 136 l 1
 90 53 125 15 185 15 c 0
EndSplineSet
KernsSLIF: 65 -25 2 0 264 -20 2 0 306 -25 2 0 309 -25 2 0 310 -25 2 0 84 -12 2 0 86 -18 2 0 87 -14 2 0 89 -20 2 0 116 -13 2 0
EndChar
StartChar: T
Encoding: 84 84 53
Width: 417
Flags: W
HStem: 0 21G<109 309> 423 29<112 263 112 388>
DStem: 263 423 333 423 190 82 259 74
Back
490.234 336.914 m 1
 473.145 336.914 l 1
 473.633 372.559 467.773 395.508 456.055 407.227 c 0
 443.848 418.945 419.434 424.805 382.812 424.805 c 2
 346.191 424.805 l 1
 271.973 74.2188 l 1
 266.602 49.8047 267.578 33.6914 274.902 25.3906 c 0
 282.227 17.0898 298.828 13.1836 324.219 13.1836 c 1
 320.801 0 l 1
 121.094 0 l 1
 124.023 13.1836 l 1
 151.367 13.1836 170.898 18.5547 183.105 28.8086 c 0
 190.43 35.1562 196.777 52.7344 203.125 82.0312 c 1
 275.879 424.805 l 1
 238.77 424.805 l 2
 203.125 424.805 176.758 419.434 160.156 408.203 c 0
 142.578 396.484 126.465 373.047 111.816 336.914 c 1
 96.1914 336.914 l 1
 124.023 453.125 l 1
 509.766 453.125 l 1
 490.234 336.914 l 1
EndSplineSet
Fore
263 423 m 1
 227 423 l 2
 150 423 131 410 99 336 c 1
 83 336 l 1
 112 452 l 1
 497 452 l 1
 476 336 l 1
 460 336 l 1
 460 411 448 423 370 423 c 2
 333 423 l 1
 259 74 l 2
 256 62 255 52 255 45 c 0
 255 21 270 15 312 13 c 1
 309 0 l 1
 109 0 l 1
 112 13 l 1
 169 16 178 24 190 82 c 2
 263 423 l 1
EndSplineSet
KernsSLIF: 65 -36 2 0 264 -30 2 0 306 -36 2 0 307 -36 2 0 309 -36 2 0 305 -36 2 0 310 -36 2 0 308 -36 2 0 67 -5 2 0 71 -7 2 0 74 -12 2 0 79 -6 2 0 265 -2 2 0 322 -6 2 0 323 -6 2 0 325 -6 2 0 321 -6 2 0 362 -6 2 0 324 -6 2 0 83 -6 2 0 86 9 2 0 87 13 2 0 89 7 2 0 97 -52 2 0 266 -54 2 0 99 -59 2 0 58 -59 2 0 44 -50 2 0 101 -58 2 0 103 -62 2 0 286 -77 2 0 288 -85 2 0 45 -49 2 0 105 -12 2 0 106 -17 2 0 111 -61 2 0 364 -60 2 0 46 -56 2 0 114 -34 2 0 115 -49 2 0 59 -59 2 0 117 -63 2 0 118 -71 2 0 119 -72 2 0 121 -69 2 0
EndChar
StartChar: U
Encoding: 85 85 54
Width: 492
Flags: W
HStem: -10 30<240 264> 432 20G<106 299 419 577>
VStem: 99 68<99 119>
DStem: 151 378 221 378 106 165 175 159 462 352 492 352 422 167 454 173
Back
596.191 439.941 m 1
 563.965 436.523 543.457 428.711 534.18 416.016 c 0
 530.762 411.133 527.344 403.809 523.438 393.555 c 0
 520.02 383.301 516.113 369.141 513.184 352.051 c 1
 475.098 173.828 l 1
 464.844 124.512 449.707 87.4023 429.199 62.0117 c 0
 392.09 15.1367 335.449 -7.8125 257.812 -7.8125 c 0
 145.996 -7.8125 102.051 49.8047 125.977 165.039 c 1
 171.875 378.906 l 2
 177.246 402.832 176.27 418.945 169.434 427.734 c 0
 162.598 436.035 146.973 439.941 123.047 439.941 c 1
 125 453.125 l 1
 318.848 453.125 l 1
 316.895 439.941 l 1
 304.199 439.941 293.945 438.965 285.645 437.5 c 0
 277.344 436.035 270.02 432.617 264.16 428.711 c 0
 257.812 424.316 253.418 417.969 250 410.156 c 0
 246.582 401.855 243.652 391.602 241.211 378.906 c 2
 193.848 159.18 l 2
 173.828 66.4062 204.102 20.0195 284.18 20.0195 c 0
 336.426 20.0195 377.93 38.0859 408.203 74.2188 c 0
 415.527 82.5195 421.875 94.7266 427.734 109.375 c 0
 433.105 124.512 438.477 143.555 442.871 166.992 c 1
 482.91 352.051 l 2
 486.328 367.188 488.281 380.371 488.77 391.113 c 0
 489.746 401.855 488.77 409.668 485.84 415.039 c 0
 481.445 431.641 464.844 439.941 437.012 439.941 c 1
 438.965 453.125 l 1
 598.145 453.125 l 1
 596.191 439.941 l 1
EndSplineSet
Fore
167 101 m 0
 167 49 203 20 262 20 c 0
 313 20 362 42 387 74 c 0
 402 95 413 121 422 167 c 2
 462 352 l 2
 466 371 468 386 468 397 c 0
 468 428 453 436 416 439 c 1
 419 452 l 1
 577 452 l 1
 574 439 l 1
 517 432 506 421 492 352 c 2
 454 173 l 2
 429 53 367 -10 240 -10 c 0
 145 -10 99 27 99 106 c 0
 99 124 101 143 106 165 c 2
 151 378 l 2
 154 391 155 400 155 408 c 0
 155 431 142 436 103 439 c 1
 106 452 l 1
 299 452 l 1
 296 439 l 1
 240 434 232 427 221 378 c 2
 175 159 l 2
 170 135 167 117 167 101 c 0
EndSplineSet
KernsSLIF: 65 -44 2 0 264 -39 2 0 306 -44 2 0 307 -44 2 0 309 -44 2 0 310 -44 2 0 308 -44 2 0 44 -21 2 0 109 -22 2 0 110 -21 2 0 112 -19 2 0 46 -25 2 0 114 -18 2 0
EndChar
StartChar: V
Encoding: 86 86 55
Width: 492
Flags: W
HStem: -8 21G<249 260> 438 14<107 287>
DStem: 161 367 241 341 249 -8 295 110 450 361 493 376 295 110 260 -8
Back
569.824 440.918 m 1
 560.547 440.918 553.223 439.453 547.852 437.012 c 2
 530.762 428.223 l 1
 525.879 423.34 520.02 416.504 514.16 408.203 c 2
 492.188 376.953 l 1
 259.766 -5.85938 l 1
 250 -5.85938 l 1
 159.18 369.141 l 1
 155.762 384.277 152.344 396.973 148.438 406.738 c 0
 145.02 416.016 141.113 423.34 138.184 428.223 c 1
 127.93 435.059 l 2
 121.094 438.965 112.793 440.918 103.027 440.918 c 1
 104.98 453.125 l 1
 287.109 453.125 l 1
 285.156 440.918 l 1
 264.16 440.918 249.512 438.477 240.234 434.082 c 1
 235.352 433.105 231.445 426.758 228.027 415.039 c 0
 227.539 410.156 231.934 386.23 242.188 341.797 c 2
 294.922 110.84 l 1
 449.219 361.816 l 1
 459.473 377.441 467.285 393.066 472.168 409.18 c 0
 476.074 430.176 461.426 440.918 429.199 440.918 c 1
 431.152 453.125 l 1
 571.777 453.125 l 1
 569.824 440.918 l 1
EndSplineSet
Fore
572 452 m 1
 569 439 l 1
 536 437 527 429 493 376 c 1
 260 -8 l 1
 249 -8 l 1
 161 367 l 1
 145 428 137 438 104 439 c 1
 107 452 l 1
 289 452 l 1
 286 439 l 1
 276 438 268 438 266 438 c 0
 244 436 232 429 229 416 c 0
 229 414 228 412 228 410 c 0
 228 399 232 382 241 341 c 2
 295 110 l 1
 450 361 l 2
 462 381 471 399 473 410 c 0
 474 412 474 415 474 417 c 0
 474 431 461 437 429 439 c 1
 432 452 l 1
 572 452 l 1
EndSplineSet
KernsSLIF: 65 -84 2 0 264 -71 2 0 306 -84 2 0 307 -84 2 0 309 -84 2 0 305 -84 2 0 310 -84 2 0 308 -84 2 0 67 -43 2 0 71 -45 2 0 79 -45 2 0 322 -45 2 0 323 -45 2 0 325 -45 2 0 321 -45 2 0 362 -44 2 0 324 -45 2 0 83 -32 2 0 84 6 2 0 97 -60 2 0 266 -60 2 0 58 -61 2 0 44 -71 2 0 101 -58 2 0 103 -68 2 0 286 -74 2 0 288 -81 2 0 45 -47 2 0 105 -13 2 0 111 -60 2 0 364 -60 2 0 46 -76 2 0 114 -38 2 0 59 -60 2 0 117 -34 2 0 121 -36 2 0
EndChar
StartChar: W
Encoding: 87 87 56
Width: 644
Flags: W
HStem: -8 21G<204 214 428 438> 432 20G<99 267 310 492 597 732>
DStem: 150 359 216 386 204 -8 259 129 373 322 381 281 259 129 214 -8 381 281 439 360 428 -8 479 127
Back
744.141 439.941 m 1
 726.562 436.523 713.867 432.617 706.055 427.734 c 0
 698.242 422.363 689.453 412.598 681.152 397.949 c 2
 563.965 198.242 l 1
 503.906 90.8203 l 1
 452.148 -5.85938 l 1
 442.871 -5.85938 l 1
 438.965 21.9727 433.105 60.0586 425.293 107.422 c 0
 417.969 155.273 407.227 213.379 394.043 282.227 c 1
 227.051 -5.85938 l 1
 216.797 -5.85938 l 1
 192.871 169.922 l 1
 163.086 359.863 l 1
 159.18 390.137 154.785 408.203 150.879 414.062 c 0
 143.066 429.199 128.906 437.988 108.887 439.941 c 1
 110.84 453.125 l 1
 278.809 453.125 l 1
 276.855 439.941 l 1
 270.508 439.941 263.672 439.453 256.836 437.988 c 2
 237.793 432.129 l 2
 232.91 430.176 229.004 424.805 227.051 416.992 c 0
 225.586 412.109 226.074 401.855 228.027 386.23 c 1
 271.973 128.906 l 1
 387.207 323.242 l 1
 376.953 378.906 l 1
 374.512 390.137 372.07 399.902 370.117 408.203 c 0
 368.164 416.016 365.234 421.875 361.816 424.805 c 0
 354.004 435.059 339.844 439.941 319.824 439.941 c 1
 321.777 453.125 l 1
 504.883 453.125 l 1
 502.93 439.941 l 1
 467.773 439.941 448.242 431.152 443.848 414.062 c 1
 444.824 397.949 l 1
 452.148 360.84 l 1
 492.188 126.953 l 1
 626.953 358.887 l 2
 639.16 379.883 646.484 396.484 648.926 409.18 c 0
 650.879 420.898 647.461 429.199 639.16 434.082 c 1
 626.953 437.988 l 1
 608.887 439.941 l 1
 610.84 453.125 l 1
 746.094 453.125 l 1
 744.141 439.941 l 1
EndSplineSet
Fore
431 411 m 0
 431 403 435 391 435 379 c 0
 435 375 438 363 439 360 c 2
 479 127 l 1
 613 358 l 2
 624 378 632 395 635 410 c 0
 636 412 636 415 636 417 c 0
 636 430 624 436 594 439 c 1
 597 452 l 1
 732 452 l 1
 729 439 l 1
 692 432 684 426 663 391 c 0
 545 190 534 171 438 -8 c 1
 428 -8 l 1
 381 281 l 1
 214 -8 l 1
 204 -8 l 1
 150 359 l 1
 138 423 131 436 96 439 c 1
 99 452 l 1
 267 452 l 1
 264 439 l 1
 226 437 214 433 214 407 c 0
 214 401 215 393 216 386 c 2
 259 129 l 1
 373 322 l 1
 363 378 l 1
 351 432 346 438 307 439 c 1
 310 452 l 1
 492 452 l 1
 489 439 l 1
 452 438 435 432 431 415 c 0
 431 414 431 412 431 411 c 0
EndSplineSet
KernsSLIF: 65 -77 2 0 264 -66 2 0 306 -77 2 0 307 -77 2 0 309 -77 2 0 305 -77 2 0 310 -77 2 0 308 -77 2 0 67 -36 2 0 71 -38 2 0 79 -38 2 0 322 -38 2 0 323 -38 2 0 325 -38 2 0 321 -38 2 0 362 -37 2 0 324 -38 2 0 83 -28 2 0 84 11 2 0 97 -54 2 0 266 -55 2 0 58 -55 2 0 44 -60 2 0 101 -49 2 0 103 -62 2 0 286 -66 2 0 288 -73 2 0 45 -38 2 0 105 -8 2 0 111 -51 2 0 364 -51 2 0 46 -65 2 0 114 -32 2 0 59 -55 2 0 117 -29 2 0 121 -30 2 0
EndChar
StartChar: X
Encoding: 88 88 57
Width: 492
Flags: W
HStem: 0 14<281 481> 438 14<111 295>
DStem: 260 223 273 197 125 91 170 96 273 197 327 251 317 101 418 63 412 370 453 375 315 276 327 251
Back
495.117 0 m 1
 291.016 0 l 1
 293.945 13.1836 l 1
 334.961 18.0664 l 1
 343.75 21.4844 349.121 27.3438 352.051 36.1328 c 0
 354.004 45.4102 347.168 67.3828 331.055 102.051 c 2
 286.133 198.242 l 1
 182.129 96.1914 l 2
 152.832 66.8945 137.207 47.3633 134.766 38.0859 c 0
 131.836 21.4844 147.461 13.1836 182.129 13.1836 c 1
 179.199 0 l 1
 19.043 0 l 1
 21.9727 13.1836 l 1
 41.5039 15.1367 57.1289 20.0195 68.8477 27.832 c 1
 101.074 56.1523 l 1
 137.207 90.8203 l 1
 272.949 223.145 l 1
 222.168 333.008 l 2
 209.961 358.398 199.707 378.418 190.918 393.555 c 0
 182.129 408.691 174.805 418.457 167.969 423.828 c 0
 163.574 428.711 157.227 432.129 149.414 434.57 c 0
 141.602 437.012 132.324 438.477 121.094 439.941 c 1
 123.047 453.125 l 1
 331.055 453.125 l 1
 329.102 439.941 l 1
 308.105 439.941 296.875 439.453 294.922 438.965 c 0
 282.227 435.547 274.902 429.199 271.973 418.945 c 0
 269.531 404.785 281.25 371.094 308.105 316.895 c 2
 328.125 276.855 l 1
 425.781 371.094 l 1
 452.148 397.949 l 2
 455.566 401.367 458.008 404.785 459.473 408.203 c 0
 460.938 411.133 462.891 414.551 463.867 417.969 c 0
 466.797 432.617 452.148 439.941 420.898 439.941 c 1
 422.852 453.125 l 1
 584.961 453.125 l 1
 583.008 439.941 l 1
 571.777 439.941 560.547 438.477 549.805 436.035 c 0
 539.551 433.105 529.297 428.711 520.02 421.875 c 0
 514.16 417.48 506.836 411.133 498.047 403.809 c 0
 489.258 396.484 479.004 387.207 466.797 375.977 c 2
 341.797 251.953 l 1
 433.105 63.9648 l 2
 447.754 33.2031 469.238 16.1133 498.047 13.1836 c 1
 495.117 0 l 1
EndSplineSet
Fore
571 452 m 1
 568 439 l 1
 525 436 509 428 453 375 c 1
 327 251 l 1
 418 63 l 1
 439 24 448 17 484 13 c 1
 481 0 l 1
 278 0 l 1
 281 13 l 1
 289 14 297 14 299 14 c 0
 323 15 335 22 337 34 c 2
 337 38 l 2
 337 49 330 72 317 101 c 2
 273 197 l 1
 170 96 l 2
 138 64 124 47 122 37 c 0
 121 35 121 33 121 31 c 0
 121 20 134 16 169 13 c 1
 166 0 l 1
 7 0 l 1
 10 13 l 1
 45 16 49 18 125 91 c 1
 260 223 l 1
 210 332 l 1
 163 427 152 437 108 439 c 1
 111 452 l 1
 317 452 l 1
 314 439 l 1
 295 438 l 2
 273 438 261 432 258 419 c 0
 258 417 257 415 257 413 c 0
 257 397 268 367 294 316 c 2
 315 276 l 1
 412 370 l 2
 437 395 448 407 450 417 c 2
 450 422 l 2
 450 434 439 438 406 439 c 1
 409 452 l 1
 571 452 l 1
EndSplineSet
KernsSLIF: 67 -35 2 0 79 -41 2 0 325 -41 2 0 81 -41 2 0 97 -4 2 0 101 -19 2 0 45 -36 2 0 111 -28 2 0 117 -19 2 0 121 -65 2 0
EndChar
StartChar: Y
Encoding: 89 89 58
Width: 492
Flags: W
HStem: 0 13<347 358> 438 14<111 300>
DStem: 197 332 252 389 258 201 320 237 258 201 329 207 232 82 301 74 451 391 463 361 320 237 329 207
Back
578.125 440.918 m 1
 561.523 438.965 547.363 434.57 536.133 428.223 c 0
 527.344 422.852 517.09 414.551 505.859 403.809 c 0
 494.629 393.555 481.445 379.395 465.82 361.816 c 2
 332.031 208.008 l 1
 304.199 74.2188 l 1
 298.828 49.8047 298.828 33.6914 305.176 24.9023 c 1
 314.941 17.0898 333.984 13.1836 361.816 13.1836 c 1
 358.887 0 l 1
 148.926 0 l 1
 151.855 13.1836 l 1
 181.152 13.1836 202.148 18.0664 214.844 27.832 c 0
 222.168 35.1562 229.004 53.2227 234.863 82.0312 c 2
 261.23 202.148 l 1
 200.195 333.008 l 2
 178.223 378.906 160.645 409.18 147.949 423.828 c 0
 136.719 435.547 124.512 440.918 110.84 440.918 c 1
 112.793 453.125 l 1
 305.176 453.125 l 1
 303.223 440.918 l 1
 270.508 440.918 252.441 433.594 250 418.945 c 0
 248.047 411.133 250 401.367 255.859 390.137 c 1
 324.219 237.793 l 1
 455.078 393.066 l 1
 462.891 400.879 467.773 409.18 470.215 417.969 c 0
 474.121 433.105 459.961 440.918 428.223 440.918 c 1
 430.176 453.125 l 1
 580.078 453.125 l 1
 578.125 440.918 l 1
EndSplineSet
Fore
576 452 m 1
 573 439 l 1
 538 436 516 421 463 361 c 1
 329 207 l 1
 301 74 l 2
 298 61 297 52 297 44 c 0
 297 19 312 14 358 13 c 1
 355 0 l 1
 146 0 l 1
 149 13 l 1
 211 16 220 23 232 82 c 2
 258 201 l 1
 197 332 l 1
 148 428 141 438 108 439 c 1
 111 452 l 1
 302 452 l 1
 299 439 l 1
 292 438 285 438 282 438 c 0
 258 437 246 430 246 412 c 0
 246 405 248 396 252 389 c 2
 320 237 l 1
 451 391 l 2
 462 404 467 411 467 422 c 0
 467 434 454 438 423 439 c 1
 426 452 l 1
 576 452 l 1
EndSplineSet
KernsSLIF: 65 -50 2 0 264 -45 2 0 306 -50 2 0 307 -50 2 0 309 -50 2 0 305 -50 2 0 310 -50 2 0 308 -50 2 0 67 -46 2 0 71 -48 2 0 79 -47 2 0 322 -47 2 0 323 -47 2 0 325 -47 2 0 321 -47 2 0 362 -47 2 0 324 -47 2 0 83 -30 2 0 84 8 2 0 97 -67 2 0 266 -69 2 0 58 -74 2 0 44 -65 2 0 101 -70 2 0 103 -77 2 0 286 -92 2 0 288 -99 2 0 45 -66 2 0 105 -11 2 0 111 -73 2 0 364 -72 2 0 112 -60 2 0 46 -70 2 0 59 -73 2 0 117 -53 2 0 118 -58 2 0
EndChar
StartChar: Z
Encoding: 90 90 59
Width: 417
Flags: W
HStem: 0 26<105 391> 426 26<131 396>
DStem: 396 426 488 442 8 10 105 26
Back
446.777 120.117 m 1
 403.809 0 l 1
 18.0664 0 l 1
 20.0195 9.76562 l 1
 408.203 428.223 l 1
 256.836 428.223 l 2
 213.867 428.223 181.152 418.457 160.156 398.926 c 0
 147.949 389.16 135.742 368.164 123.047 336.914 c 1
 104.98 336.914 l 1
 143.066 453.125 l 1
 502.93 453.125 l 1
 500.977 442.871 l 1
 117.188 25.8789 l 1
 292.969 25.8789 l 2
 333.496 25.8789 364.746 35.6445 386.23 55.1758 c 0
 392.09 60.5469 398.926 68.3594 406.738 79.5898 c 0
 414.062 90.332 422.363 104.004 431.152 120.117 c 1
 446.777 120.117 l 1
EndSplineSet
Fore
418 120 m 1
 434 120 l 1
 391 0 l 1
 6 0 l 1
 8 10 l 1
 396 426 l 1
 245 426 l 2
 200 426 166 416 146 397 c 0
 132 382 123 369 110 335 c 1
 92 335 l 1
 131 452 l 5
 490 452 l 1
 488 442 l 1
 105 26 l 1
 280 26 l 2
 319 26 351 36 371 53 c 0
 387 68 397 82 418 120 c 1
EndSplineSet
KernsSLIF: 118 -32 2 0 121 -34 2 0
EndChar
StartChar: bracketleft
Encoding: 91 91 60
Width: 227
Flags: W
HStem: -107 18<116 181> 435 17<156 296>
DStem: 156 452 198 405 37 -107 101 -54
Back
212.891 -86.9141 m 1
 65.918 -86.9141 l 1
 187.012 482.91 l 1
 333.984 482.91 l 1
 330.078 465.82 l 1
 267.09 465.82 l 2
 246.094 465.82 233.887 455.566 229.004 435.059 c 1
 129.883 -33.2031 l 1
 125.488 -57.6172 133.789 -69.8242 155.762 -69.8242 c 2
 215.82 -69.8242 l 1
 212.891 -86.9141 l 1
EndSplineSet
Fore
185 -89 m 1
 181 -107 l 1
 37 -107 l 1
 156 452 l 1
 300 452 l 1
 296 435 l 1
 235 435 l 2
 213 435 203 426 198 405 c 2
 101 -54 l 2
 100 -59 99 -63 99 -67 c 0
 99 -82 108 -89 126 -89 c 2
 185 -89 l 1
EndSplineSet
EndChar
StartChar: backslash
Encoding: 92 92 61
Width: 189
Flags: W
HStem: -10 21G<148 194> 442 20G<92 138>
DStem: 92 462 138 462 148 -10 194 -10
Back
227.051 -121.094 m 1
 188.965 -121.094 l 1
 119.141 473.145 l 1
 155.762 473.145 l 1
 227.051 -121.094 l 1
EndSplineSet
Fore
92 462 m 1
 138 462 l 1
 194 -10 l 1
 148 -10 l 1
 92 462 l 1
EndSplineSet
EndChar
StartChar: bracketright
Encoding: 93 93 62
Width: 227
Flags: W
HStem: -107 18<3 144> 435 17<118 176>
DStem: 200 399 263 452 102 -59 144 -107
Back
174.805 -86.9141 m 1
 27.832 -86.9141 l 1
 30.7617 -69.8242 l 1
 94.2383 -69.8242 l 2
 114.746 -69.8242 127.441 -59.5703 131.836 -39.0625 c 1
 230.957 429.199 l 1
 236.816 453.613 228.516 465.82 205.078 465.82 c 2
 145.02 465.82 l 1
 148.926 482.91 l 1
 295.898 482.91 l 1
 174.805 -86.9141 l 1
EndSplineSet
Fore
4 -89 m 1
 66 -89 l 2
 87 -89 98 -81 102 -59 c 2
 200 399 l 2
 201 403 201 407 201 411 c 0
 201 427 192 435 174 435 c 2
 115 435 l 1
 119 452 l 1
 263 452 l 1
 144 -107 l 1
 0 -107 l 1
 4 -89 l 1
EndSplineSet
EndChar
StartChar: asciicircum
Encoding: 94 94 63
Width: 320
Flags: W
HStem: 432 20G<236 277>
DStem: 236 452 245 400 59 203 106 203 245 400 277 452 301 203 348 203
Back
377.93 208.008 m 1
 337.891 208.008 l 1
 276.855 425.781 l 1
 266.113 410.156 l 1
 123.047 208.008 l 1
 83.0078 208.008 l 1
 263.184 462.891 l 1
 305.176 462.891 l 1
 377.93 208.008 l 1
EndSplineSet
Fore
106 203 m 1
 59 203 l 1
 236 452 l 1
 277 452 l 1
 348 203 l 1
 301 203 l 1
 245 400 l 1
 106 203 l 1
EndSplineSet
EndChar
StartChar: underscore
Encoding: 95 95 64
Width: 341
Flags: W
HStem: -85 34<-12 323>
Back
354.004 -84.9609 m 1
 3.90625 -84.9609 l 1
 11.2305 -49.8047 l 1
 360.84 -49.8047 l 1
 354.004 -84.9609 l 1
EndSplineSet
Fore
323 -85 m 1
 -18 -85 l 1
 -11 -51 l 1
 330 -51 l 1
 323 -85 l 1
EndSplineSet
EndChar
StartChar: quotesglleft
Encoding: 96 -1 65
Width: 150
Flags: W
HStem: 435 20G<139.5 153.5>
Fore
112 421 m 0
 112 437 130 455 149 455 c 0
 158 455 166 451 170 441 c 0
 175 424 187 345 193 309 c 1
 178 302 l 1
 159 331 120 395 114 412 c 0
 113 415 112 418 112 421 c 0
EndSplineSet
EndChar
StartChar: a
Encoding: 97 97 66
Width: 303
Flags: W
HStem: -7 21G<78 111 227 251> 298 16<203 220>
VStem: 37 65<49 72> 88 62<231 248> 205 58<29 49> 249 52<246 264>
DStem: 235 183 295 205 214 84 266 72
Back
336.914 30.7617 m 1
 311.035 6.83594 286.133 -4.88281 263.184 -4.88281 c 0
 231.445 -4.88281 219.238 12.6953 226.074 47.8516 c 1
 176.758 12.6953 136.23 -4.88281 104.98 -4.88281 c 0
 81.543 -4.88281 63.9648 1.95312 51.2695 15.625 c 0
 39.0625 29.2969 35.6445 47.8516 41.0156 70.8008 c 0
 48.8281 106.445 71.2891 134.766 107.91 157.227 c 0
 117.188 162.109 134.766 170.41 160.156 181.152 c 0
 185.547 191.895 219.238 205.078 262.207 221.191 c 1
 271.973 267.09 l 2
 280.762 308.105 265.625 329.102 227.051 329.102 c 0
 192.871 329.102 171.875 316.895 164.062 291.992 c 1
 164.062 290.039 l 1
 162.598 286.133 162.109 280.762 163.086 274.902 c 0
 163.574 269.043 163.574 265.137 163.086 263.184 c 0
 161.621 255.859 157.227 248.047 148.926 240.234 c 1
 138.184 233.398 128.906 229.98 121.094 229.98 c 0
 111.816 229.98 104.492 232.91 99.6094 238.281 c 0
 94.7266 244.141 93.2617 252.441 96.1914 263.184 c 0
 100.586 288.574 119.629 309.57 152.832 327.148 c 0
 166.504 334.473 180.176 339.355 193.848 342.285 c 0
 208.008 345.703 222.168 347.168 236.816 347.168 c 0
 278.809 347.168 306.152 337.402 318.848 317.871 c 0
 331.543 298.828 333.496 268.066 324.219 226.074 c 1
 292.969 79.1016 l 2
 287.109 51.7578 291.504 37.5977 306.152 37.1094 c 0
 317.383 37.1094 329.102 41.5039 340.82 50.7812 c 1
 336.914 30.7617 l 1
234.863 92.7734 m 1
 257.812 203.125 l 1
 170.898 176.27 122.559 141.113 112.793 98.1445 c 0
 108.887 82.0312 110.84 67.3828 118.164 54.1992 c 0
 123.535 43.457 134.277 38.0859 150.879 38.0859 c 0
 179.688 38.0859 203.613 47.3633 223.145 65.918 c 0
 225.098 68.8477 227.051 72.2656 228.516 77.1484 c 0
 229.98 81.543 232.422 86.9141 234.863 92.7734 c 1
EndSplineSet
Fore
220 314 m 0xd4
 268 314 301 297 301 252 c 0xd4
 301 239 299 225 295 205 c 2
 266 72 l 2
 264 63 263 55 263 49 c 0
 263 37 268 32 279 32 c 0
 289 32 298 36 312 45 c 1
 308 27 l 1
 278 1 263 -7 239 -7 c 0
 215 -7 205 4 205 29 c 0
 205 33 205 38 206 43 c 1
 157 8 126 -7 96 -7 c 0
 60 -7 37 15 37 49 c 0xe8
 37 79 57 110 77 126 c 0
 111 152 124 157 238 199 c 1
 242 218 249 239 249 260 c 0
 249 285 235 298 207 298 c 0
 180 298 155 283 151 264 c 0
 150 259 150 254 150 248 c 0
 150 226 130 208 112 208 c 0
 98 208 88 218 88 231 c 0
 88 234 88 236 89 238 c 0
 98 281 156 314 220 314 c 0xd4
214 84 m 2
 235 183 l 1
 146 153 112 128 104 88 c 2
 103 85 l 2
 102 80 102 76 102 72 c 0xe0
 102 49 115 33 135 33 c 0
 150 33 170 39 188 48 c 0
 205 57 209 63 214 84 c 2
EndSplineSet
KernsSLIF: 106 -17 2 0 146 -27 2 0 118 -20 2 0 119 -21 2 0 121 -21 2 0
EndChar
StartChar: b
Encoding: 98 98 67
Width: 341
Flags: W
HStem: -7 22<158 176> 271 43<230 266>
VStem: 55 59<34 45> 294 65<185 206>
DStem: 130 391 203 465 55 37 158 256 130 391 151 220 55 37 114 48
Back
402.832 180.176 m 0
 398.438 158.691 390.625 138.184 379.395 118.164 c 0
 368.652 98.1445 354.492 79.1016 336.914 61.0352 c 0
 294.922 17.0898 243.164 -4.88281 181.152 -4.88281 c 0
 157.715 -4.88281 134.277 -0.976562 110.84 6.83594 c 0
 83.0078 17.0898 70.3125 28.8086 73.2422 41.9922 c 2
 155.762 433.105 l 2
 159.18 449.707 160.156 459.473 159.18 461.914 c 0
 156.25 468.75 148.438 472.168 134.766 472.168 c 2
 130.859 472.168 l 1
 113.77 471.191 l 1
 117.188 482.91 l 1
 129.883 486.328 145.508 490.723 164.551 496.094 c 0
 183.594 501.465 207.031 507.812 234.863 516.113 c 1
 236.816 515.137 l 1
 188.965 286.133 l 1
 192.871 295.41 199.219 303.711 208.008 311.035 c 0
 216.797 318.359 226.562 324.707 237.305 330.078 c 0
 248.535 335.449 259.766 339.355 271.484 342.285 c 0
 283.203 345.703 293.945 347.168 304.199 347.168 c 0
 348.145 347.168 378.418 329.102 395.02 293.945 c 0
 410.156 262.207 413.086 224.121 402.832 180.176 c 0
330.078 152.832 m 0
 333.984 172.363 336.426 189.941 336.914 206.055 c 0
 337.891 222.168 335.938 236.816 332.031 250 c 0
 321.289 284.18 299.316 300.781 266.113 300.781 c 0
 248.047 300.781 230.957 295.898 214.844 286.133 c 0
 194.336 273.926 182.129 259.277 179.199 242.188 c 1
 139.16 54.1992 l 2
 137.695 47.8516 139.16 42.4805 143.555 38.0859 c 0
 147.949 33.2031 153.32 29.2969 160.156 26.3672 c 0
 166.504 23.4375 173.828 20.9961 182.129 19.5312 c 0
 189.941 18.0664 196.777 17.0898 203.125 17.0898 c 0
 267.578 17.0898 310.059 62.5 330.078 152.832 c 0
EndSplineSet
Fore
359 206 m 0
 359 83 254 -7 159 -7 c 0
 106 -7 55 14 55 34 c 0
 55 37 l 2
 130 391 l 2
 132 398 132 404 132 409 c 0
 132 423 125 426 105 426 c 0
 100 426 97 426 92 425 c 1
 95 436 l 1
 131 446 166 455 200 466 c 1
 203 465 l 1
 158 256 l 1
 179 289 225 314 266 314 c 0
 323 314 359 270 359 206 c 0
151 220 m 2
 114 48 l 2
 114 45 l 0
 114 29 140 15 174 15 c 0
 230 15 272 59 288 135 c 0
 292 154 294 171 294 186 c 0
 294 239 271 271 230 271 c 0
 195 271 156 246 151 220 c 2
EndSplineSet
KernsSLIF: 118 -19 2 0 119 -20 2 0 121 -21 2 0
EndChar
StartChar: c
Encoding: 99 99 68
Width: 303
Flags: W
HStem: -7 49<146 184> 294 20<218 236>
VStem: 43 60<104 136> 259 66<245 262>
Back
342.773 111.816 m 1
 289.062 34.1797 230.469 -4.88281 167.969 -4.88281 c 0
 124.512 -4.88281 93.2617 12.207 74.2188 45.8984 c 0
 56.6406 76.1719 52.7344 114.746 62.0117 162.109 c 0
 72.7539 213.379 97.168 256.836 136.23 291.992 c 0
 175.781 328.613 221.191 347.168 270.996 347.168 c 0
 298.34 347.168 321.289 340.82 339.844 329.102 c 0
 363.281 314.941 372.07 295.41 366.211 270.02 c 0
 361.816 248.535 348.145 237.793 325.195 237.793 c 0
 307.129 237.793 296.875 249.512 294.922 272.949 c 1
 293.945 289.062 l 1
 292.48 304.199 289.551 314.453 284.18 318.848 c 0
 278.809 323.73 268.555 326.172 252.93 326.172 c 0
 221.191 326.172 192.871 311.035 168.945 280.762 c 0
 147.461 253.906 133.789 224.121 126.953 191.895 c 0
 119.141 151.855 121.582 119.141 134.766 92.7734 c 0
 149.902 62.5 174.805 46.875 210.938 46.875 c 0
 224.121 46.875 236.816 48.8281 248.047 52.7344 c 0
 259.277 56.1523 270.508 61.5234 280.762 68.8477 c 0
 288.574 74.2188 296.387 81.0547 305.664 88.3789 c 0
 314.453 96.1914 324.219 105.957 333.984 118.164 c 1
 342.773 111.816 l 1
EndSplineSet
Fore
225 294 m 0
 159 294 103 224 103 136 c 0
 103 79 133 42 184 42 c 0
 223 42 252 59 295 107 c 1
 302 100 l 1
 274 60 257 42 234 25 c 0
 206 4 177 -7 146 -7 c 0
 82 -7 43 38 43 104 c 0
 43 172 83 242 129 276 c 0
 162 300 200 314 234 314 c 0
 286 314 325 287 325 253 c 0
 325 250 325 247 324 244 c 0
 320 228 303 215 285 215 c 0
 271 215 260 227 259 246 c 2
 259 262 l 2
 257 287 249 294 225 294 c 0
EndSplineSet
KernsSLIF: 104 -10 2 0 107 -12 2 0
EndChar
StartChar: d
Encoding: 100 100 69
Width: 341
Flags: W
HStem: -7 36<144 177> 295 19<218 237>
VStem: 43 64<99 120>
DStem: 280 227 388 465 247 70 306 78 315 391 388 465 293 285 306 78
Back
387.207 32.2266 m 1
 269.043 -4.88281 l 1
 265.137 -2.92969 l 1
 274.902 41.0156 l 1
 245.117 10.2539 208.496 -4.88281 166.016 -4.88281 c 0
 136.23 -4.88281 110.84 3.41797 89.8438 20.0195 c 0
 58.5938 47.3633 49.8047 94.7266 63.9648 162.109 c 0
 69.3359 187.5 77.6367 210.449 88.8672 230.957 c 0
 100.098 251.465 114.746 270.996 131.836 289.062 c 0
 170.898 327.637 213.379 347.168 259.766 347.168 c 0
 288.574 347.168 312.988 336.426 333.008 315.918 c 1
 357.91 433.105 l 2
 361.328 448.242 362.305 457.52 360.84 460.938 c 0
 359.863 464.355 356.934 466.797 352.539 468.262 c 0
 348.145 470.215 343.262 471.191 337.891 471.191 c 2
 333.984 471.191 l 1
 315.918 470.215 l 1
 318.848 482.91 l 1
 366.211 494.141 l 1
 435.059 516.113 l 1
 438.965 515.137 l 1
 348.145 85.9375 l 1
 344.727 68.8477 344.727 57.1289 347.656 51.2695 c 0
 350.586 45.8984 359.863 42.9688 375.977 42.9688 c 2
 389.16 43.9453 l 1
 387.207 32.2266 l 1
282.227 77.1484 m 1
 319.824 251.953 l 1
 321.777 276.855 317.383 295.898 306.152 309.082 c 0
 294.434 320.801 278.32 327.148 256.836 327.148 c 0
 223.145 327.148 194.824 311.523 172.852 279.785 c 0
 154.785 255.859 141.602 225.586 132.812 188.965 c 0
 123.535 146.484 123.535 111.816 132.812 84.9609 c 0
 145.02 49.8047 169.434 32.2266 206.055 32.2266 c 0
 242.676 32.2266 268.066 46.875 282.227 77.1484 c 1
EndSplineSet
Fore
234 -7 m 1
 231 -5 l 1
 240 39 l 1
 210 7 182 -7 144 -7 c 0
 82 -7 43 35 43 99 c 0
 43 112 45 126 48 140 c 0
 68 237 149 314 227 314 c 0
 255 314 271 307 293 285 c 1
 315 391 l 2
 317 398 317 404 317 409 c 0
 317 422 310 426 292 426 c 0
 286 426 282 426 276 425 c 1
 279 436 l 1
 324 448 350 455 385 466 c 1
 388 465 l 1
 306 78 l 2
 304 69 303 62 303 56 c 0
 303 43 310 39 328 39 c 0
 330 39 331 39 344 40 c 1
 341 29 l 1
 234 -7 l 1
247 70 m 2
 280 227 l 2
 281 231 281 236 281 240 c 0
 281 270 258 295 226 295 c 0
 174 295 129 244 112 167 c 0
 109 150 107 134 107 120 c 0
 107 63 132 29 177 29 c 0
 197 29 216 36 231 49 c 0
 239 57 246 65 247 70 c 2
EndSplineSet
EndChar
StartChar: e
Encoding: 101 101 70
Width: 303
Flags: W
HStem: -7 47<144 182> 189 22<113 317> 289 25<201 227>
VStem: 43 58<99 138> 252 67<211 234>
Back
354.004 119.141 m 1
 348.145 106.934 340.332 94.7266 331.543 82.5195 c 0
 322.266 70.3125 311.523 58.1055 297.852 46.875 c 0
 257.324 12.207 213.867 -4.88281 167.969 -4.88281 c 0
 128.906 -4.88281 99.6094 6.34766 80.5664 29.2969 c 0
 61.5234 52.7344 53.2227 83.9844 56.1523 124.023 c 0
 57.1289 134.766 59.5703 147.461 62.0117 162.109 c 0
 72.7539 213.379 94.2383 255.859 126.953 289.062 c 0
 165.039 327.637 208.008 347.168 255.859 347.168 c 0
 297.852 347.168 327.637 334.473 345.703 310.059 c 0
 363.281 285.156 367.188 251.465 357.91 208.984 c 1
 124.023 208.984 l 1
 101.562 99.6094 130.371 44.9219 210.938 44.9219 c 0
 252.93 44.9219 297.852 71.7773 345.215 125 c 1
 354.004 119.141 l 1
288.086 233.887 m 1
 293.945 291.992 275.879 320.801 233.887 320.801 c 0
 189.941 320.801 155.762 291.992 131.836 233.887 c 1
 288.086 233.887 l 1
EndSplineSet
Fore
101 138 m 0
 101 78 128 40 182 40 c 0
 225 40 259 60 303 112 c 1
 312 107 l 1
 268 33 209 -7 144 -7 c 0
 79 -7 43 33 43 99 c 0
 43 213 124 314 227 314 c 0
 284 314 319 279 319 220 c 0
 319 211 318 201 317 189 c 1
 106 189 l 1
 102 168 101 152 101 138 c 0
113 211 m 1
 252 211 l 1
 252 227 l 2
 252 273 239 289 201 289 c 0
 159 289 131 264 113 211 c 1
EndSplineSet
KernsSLIF: 146 -20 2 0 116 -6 2 0 118 -18 2 0 119 -19 2 0 120 -23 2 0 121 -20 2 0
EndChar
StartChar: f
Encoding: 102 102 71
Width: 227
Flags: W
HStem: 0 10<173 193> 285 22<78 131 192 272> 396 70<289 317> 447 19<261 289>
DStem: 131 285 189 285 85 71 143 71
Back
399.902 470.215 m 0
 395.996 449.219 382.324 438.965 358.887 438.965 c 0
 351.074 438.965 341.309 448.242 330.078 466.797 c 1
 321.289 485.84 311.523 495.117 300.781 495.117 c 0
 270.996 495.117 250.977 472.168 241.211 426.758 c 2
 222.168 339.844 l 1
 314.941 339.844 l 1
 310.059 316.895 l 1
 217.773 316.895 l 1
 167.969 78.125 l 1
 165.527 66.8945 163.574 56.6406 163.086 48.3398 c 0
 162.109 40.0391 163.574 33.2031 166.016 27.832 c 0
 171.875 16.6016 190.918 11.2305 223.145 11.2305 c 1
 221.191 0 l 1
 24.9023 0 l 1
 26.8555 11.2305 l 1
 33.2031 11.7188 39.0625 12.207 44.9219 12.207 c 0
 51.7578 12.207 56.6406 12.6953 60.0586 14.1602 c 0
 63.4766 15.1367 67.3828 16.6016 72.2656 18.5547 c 0
 77.6367 20.0195 80.5664 21.4844 82.0312 22.9492 c 0
 91.3086 32.2266 99.1211 50.7812 104.98 78.125 c 1
 154.785 316.895 l 1
 92.7734 316.895 l 1
 98.1445 339.844 l 1
 160.156 339.844 l 1
 185.547 458.008 243.164 517.09 333.008 517.09 c 0
 350.098 517.09 365.723 513.672 378.906 506.836 c 0
 396.484 497.559 403.32 485.352 399.902 470.215 c 0
EndSplineSet
Fore
276 307 m 1xd0
 272 285 l 1
 189 285 l 1
 143 71 l 2
 140 58 138 47 138 39 c 0
 138 16 152 11 193 10 c 1
 191 0 l 1
 14 0 l 1
 16 10 l 1
 66 13 74 21 85 71 c 2
 131 285 l 1
 75 285 l 1
 79 307 l 1
 135 307 l 1
 148 362 158 386 182 416 c 0
 207 448 247 466 289 466 c 0
 327 466 353 452 353 430 c 0
 353 428 352 426 352 424 c 0
 349 408 333 396 317 396 c 0xe0
 305 396 299 403 291 421 c 0
 284 440 275 447 261 447 c 0
 235 447 218 426 209 386 c 2
 192 307 l 1
 276 307 l 1xd0
EndSplineSet
KernsSLIF: 97 -17 2 0 332 -17 2 0 335 8 2 0 266 -17 2 0 336 -4 2 0 101 -23 2 0 339 -23 2 0 102 4 2 0 105 10 2 0 106 5 2 0 108 30 2 0 111 -25 2 0 348 -25 2 0 267 -24 2 0 364 -25 2 0 146 11 2 0 115 -14 2 0 116 6 2 0
EndChar
StartChar: g
Encoding: 103 103 72
Width: 341
Flags: W
HStem: -149 39<105 144> -30 20G<192.5 237> 102 17<191 209> 265 27<320 377> 295 19<215 228>
VStem: 0 53<-90 -66> 87 61<177 190> 267 57<215 235> 288 22<-37 -17>
Back
401.855 295.898 m 1
 341.797 295.898 l 1
 344.238 284.668 345.215 273.438 345.703 262.695 c 0
 345.703 251.465 344.727 240.234 341.797 229.004 c 0
 334.473 196.777 318.359 171.387 292.969 151.855 c 0
 267.578 132.812 238.281 123.047 205.078 123.047 c 0
 198.242 123.047 191.895 123.047 185.547 123.535 c 0
 179.199 124.023 172.852 124.512 166.992 125.977 c 2
 164.062 125.977 l 2
 158.691 125.977 148.926 120.605 134.766 109.863 c 1
 121.582 96.6797 113.77 87.4023 111.816 82.0312 c 0
 109.863 70.8008 127.93 63.9648 166.016 62.0117 c 2
 256.836 57.1289 l 2
 281.738 55.6641 301.27 48.3398 315.43 35.1562 c 0
 329.59 21.4844 334.473 3.90625 329.102 -18.0664 c 0
 325.195 -38.0859 314.941 -55.6641 298.34 -70.3125 c 0
 282.227 -85.4492 263.184 -98.1445 242.188 -108.398 c 0
 220.703 -118.652 198.73 -126.465 176.27 -131.836 c 0
 154.297 -137.207 134.277 -140.137 117.188 -140.137 c 0
 104.98 -140.137 91.7969 -138.672 78.125 -136.719 c 0
 63.9648 -134.277 51.2695 -130.371 39.5508 -125 c 0
 27.832 -119.629 18.5547 -112.305 12.207 -103.516 c 0
 5.37109 -94.7266 3.41797 -83.4961 5.85938 -69.8242 c 0
 11.2305 -46.875 40.5273 -18.0664 94.2383 16.1133 c 1
 71.2891 29.7852 61.0352 42.4805 62.9883 54.1992 c 0
 66.8945 69.8242 94.2383 96.1914 144.043 132.812 c 1
 104.492 152.832 89.3555 184.57 98.1445 227.051 c 0
 102.051 245.117 108.887 261.23 118.164 275.879 c 0
 127.441 290.527 138.672 303.223 151.855 313.477 c 0
 165.527 323.73 180.176 332.031 196.289 337.891 c 0
 212.891 344.238 229.98 347.168 248.047 347.168 c 0
 257.324 347.168 267.09 345.703 277.832 342.773 c 0
 288.574 340.332 300.781 336.426 313.965 331.055 c 0
 319.824 328.125 326.66 326.66 333.984 325.684 c 0
 341.309 324.707 347.656 324.219 353.027 324.219 c 2
 408.203 324.219 l 1
 401.855 295.898 l 1
282.227 210.938 m 0
 284.18 221.68 285.156 232.422 285.645 243.164 c 0
 285.645 253.906 285.156 264.648 283.203 275.879 c 0
 276.855 310.059 260.742 327.148 233.887 327.148 c 0
 198.242 327.148 175.293 305.176 166.016 262.207 c 0
 147.949 181.152 164.062 141.113 213.867 141.113 c 0
 249.512 141.113 271.973 164.551 282.227 210.938 c 0
307.129 -28.8086 m 0
 308.105 -20.5078 306.641 -13.1836 301.27 -7.32422 c 0
 296.387 -1.95312 289.062 1.95312 278.809 3.90625 c 0
 276.367 4.88281 270.508 5.37109 261.719 5.37109 c 0
 252.441 5.85938 240.723 6.83594 226.074 7.8125 c 0
 204.102 9.27734 186.523 10.2539 172.852 11.2305 c 0
 159.668 11.7188 148.926 12.207 140.625 12.6953 c 0
 132.324 12.6953 125.977 13.1836 121.582 13.6719 c 0
 117.188 13.6719 112.793 14.1602 108.887 15.1367 c 1
 80.5664 -11.7188 64.4531 -32.7148 61.0352 -47.8516 c 0
 54.1992 -82.0312 86.9141 -99.1211 159.18 -99.1211 c 0
 172.363 -99.1211 186.035 -97.6562 199.707 -95.2148 c 0
 213.379 -92.2852 227.539 -88.3789 243.164 -83.0078 c 0
 280.762 -69.8242 302.246 -51.7578 307.129 -28.8086 c 0
EndSplineSet
Fore
57 31 m 0xfe80
 57 59 110 92 135 111 c 1
 102 129 87 150 87 179 c 0
 87 187 88 194 90 203 c 0
 103 265 165 314 228 314 c 0
 246 314 263 311 281 304 c 2
 294 298 l 2
 306 294 317 292 330 292 c 2
 383 292 l 1
 377 265 l 1
 320 265 l 1
 323 254 324 244 324 235 c 0xff
 324 156 258 102 193 102 c 0
 189 102 180 102 167 104 c 0
 165 104 160 104 154 105 c 1
 134 100 107 76 104 62 c 2
 104 60 l 2
 104 50 120 45 153 44 c 2
 241 40 l 2
 284 38 310 16 310 -17 c 0
 310 -98 181 -149 105 -149 c 0
 44 -149 0 -123 0 -90 c 0
 0 -63 34 -33 86 1 c 1
 65 12 57 20 57 31 c 0xfe80
100 -1 m 1
 64 -36 58 -44 54 -60 c 0
 54 -62 53 -64 53 -66 c 0
 53 -93 88 -110 144 -110 c 0
 221 -110 278 -83 287 -44 c 0
 287 -42 288 -39 288 -37 c 0xfe80
 288 -17 265 -10 209 -10 c 0
 176 -10 122 -6 100 -1 c 1
267 215 m 0xff
 267 253 256 295 217 295 c 0
 186 295 162 271 153 231 c 2
 153 229 l 2
 150 214 148 200 148 188 c 0
 148 145 166 119 198 119 c 0
 230 119 255 143 263 181 c 0
 265 192 267 204 267 215 c 0xff
EndSplineSet
KernsSLIF: 97 -11 2 0 335 -11 2 0 266 -12 2 0 336 -11 2 0 101 -17 2 0 339 -17 2 0 108 -4 2 0 348 -17 2 0 351 -17 2 0 114 7 2 0
EndChar
StartChar: h
Encoding: 104 104 73
Width: 341
Flags: W
HStem: 0 21G<6 154 188 333> 277 37<242 275>
VStem: 281 60<232 246>
DStem: 133 391 206 464 65 70 162 257 133 391 157 234 65 70 122 70 278 205 336 206 249 70 307 70
Back
377.93 0 m 1
 219.238 0 l 1
 221.191 9.76562 l 1
 239.746 12.207 253.906 16.1133 263.184 22.9492 c 0
 269.043 26.8555 273.438 33.6914 276.855 42.9688 c 0
 280.273 52.2461 283.203 63.4766 286.133 77.1484 c 2
 317.871 227.051 l 1
 330.078 280.273 316.406 307.129 276.855 307.129 c 0
 252.441 307.129 221.191 291.016 184.082 258.789 c 1
 145.02 77.1484 l 2
 142.09 63.4766 141.113 52.2461 141.113 42.9688 c 0
 141.113 34.1797 142.578 27.832 145.996 22.9492 c 0
 148.438 19.043 160.645 14.6484 182.129 9.76562 c 1
 180.176 0 l 1
 18.0664 0 l 1
 20.0195 9.76562 l 1
 31.25 11.2305 41.0156 13.6719 48.3398 17.5781 c 0
 56.1523 20.9961 61.5234 25.3906 64.9414 29.7852 c 0
 70.8008 37.1094 76.6602 53.2227 82.0312 77.1484 c 2
 164.062 459.961 l 1
 158.203 466.797 149.414 470.215 138.184 470.215 c 2
 119.141 469.238 l 1
 121.094 481.934 l 1
 235.84 516.113 l 1
 237.793 514.16 l 1
 189.941 286.133 l 1
 227.539 326.66 268.555 347.168 313.965 347.168 c 0
 375.977 347.168 398.438 307.129 381.836 228.027 c 2
 350.098 77.1484 l 1
 345.215 53.2227 344.238 37.5977 346.191 30.7617 c 0
 348.145 26.8555 352.051 23.4375 357.91 20.0195 c 0
 363.77 16.6016 371.094 13.1836 379.883 9.76562 c 1
 377.93 0 l 1
EndSplineSet
Fore
157 234 m 1
 122 70 l 2
 119 57 118 46 118 39 c 0
 118 18 128 13 156 10 c 1
 154 0 l 1
 6 0 l 1
 8 10 l 1
 49 16 55 22 65 70 c 2
 133 391 l 2
 135 399 135 405 135 409 c 0
 135 423 128 426 106 426 c 0
 103 426 101 426 97 425 c 1
 100 436 l 1
 134 447 180 459 203 466 c 1
 206 464 l 1
 162 257 l 1
 202 298 234 314 275 314 c 0
 318 314 341 291 341 246 c 0
 341 234 339 221 336 206 c 2
 307 70 l 2
 304 55 302 45 302 37 c 0
 302 19 311 15 335 10 c 1
 333 0 l 1
 188 0 l 1
 190 10 l 1
 230 14 239 23 249 70 c 2
 278 205 l 2
 280 216 281 226 281 234 c 0
 281 263 268 277 242 277 c 0
 215 277 193 266 157 234 c 1
EndSplineSet
KernsSLIF: 146 -25 2 0 121 -20 2 0
EndChar
StartChar: i
Encoding: 105 105 74
Width: 189
Flags: W
HStem: 0 21G<11 173> 397 69<171 186>
VStem: 144 71<424 432>
DStem: 113 228 188 312 80 70 137 70 186 314 186 314 73 277 188 312
Back
195.801 0 m 1
 198.242 9.76562 l 1
 171.875 14.1602 157.227 19.043 153.809 24.9023 c 0
 149.414 36.1328 149.902 53.2227 154.785 76.1719 c 1
 212.891 347.168 l 1
 209.961 348.145 l 1
 83.9844 306.152 l 1
 82.0312 294.922 l 1
 112.793 298.828 l 1
 129.883 298.828 134.766 283.691 128.906 252.93 c 1
 90.8203 76.1719 l 2
 88.3789 63.4766 85.4492 52.7344 82.0312 43.9453 c 0
 78.6133 35.1562 74.2188 28.3203 68.8477 23.4375 c 0
 63.4766 18.5547 57.1289 15.1367 48.8281 13.1836 c 0
 41.0156 11.2305 30.7617 9.76562 18.0664 9.76562 c 1
 16.1133 0 l 1
 195.801 0 l 1
166.016 479.004 m 0
 163.574 467.773 165.039 458.496 170.898 451.172 c 0
 176.758 443.848 185.547 439.941 196.777 439.941 c 0
 208.496 439.941 218.262 443.848 227.051 451.172 c 0
 235.84 458.496 241.211 467.773 244.141 479.004 c 0
 246.094 490.234 244.141 499.512 238.281 506.836 c 0
 232.91 514.16 224.121 518.066 212.891 518.066 c 0
 201.66 518.066 191.406 514.16 182.617 506.836 c 0
 173.34 499.512 167.969 490.234 166.016 479.004 c 0
EndSplineSet
Fore
186 314 m 1
 188 312 l 1
 137 70 l 2
 134 56 132 45 132 37 c 0
 132 17 144 13 175 10 c 1
 173 0 l 1
 11 0 l 1
 13 10 l 1
 61 13 69 20 80 70 c 2
 113 228 l 2
 115 237 116 245 116 251 c 0
 116 264 111 269 99 269 c 0
 92 269 79 267 71 266 c 1
 73 277 l 1
 186 314 l 1
144 424 m 0
 144 450 167 466 186 466 c 0
 204 466 216 454 216 439 c 0
 216 437 215 434 215 432 c 0
 211 412 191 397 171 397 c 0
 155 397 144 408 144 424 c 0
EndSplineSet
KernsSLIF: 84 -19 2 0 106 -24 2 0
EndChar
StartChar: j
Encoding: 106 106 75
Width: 189
Flags: W
HStem: -149 64<-38 -16> 397 69<181 196>
VStem: 154 71<424 439>
DStem: 122 228 198 312 67 -31 132 0
Back
221.191 347.168 m 1
 217.773 348.145 l 1
 91.7969 306.152 l 1
 89.8438 294.922 l 1
 121.094 298.828 l 1
 137.695 298.828 143.066 283.691 137.207 252.93 c 1
 83.0078 0 l 1
 82.0312 0 l 1
 75.1953 -32.2266 l 2
 70.3125 -52.7344 66.4062 -69.3359 63.4766 -82.0312 c 0
 60.5469 -94.7266 57.6172 -103.516 55.1758 -107.91 c 0
 43.457 -127.93 30.2734 -138.184 15.1367 -138.184 c 0
 10.2539 -137.207 1.46484 -129.395 -12.207 -113.77 c 1
 -22.4609 -99.1211 -33.2031 -91.7969 -43.9453 -91.7969 c 0
 -45.8984 -91.7969 -52.7344 -94.2383 -63.9648 -99.1211 c 1
 -71.2891 -105.469 -76.1719 -112.793 -78.125 -120.117 c 0
 -83.9844 -148.438 -64.4531 -163.086 -19.043 -163.086 c 0
 23.4375 -163.086 59.082 -149.902 86.9141 -124.023 c 0
 115.234 -98.1445 134.766 -59.082 145.996 -6.83594 c 1
 221.191 347.168 l 1
173.828 479.004 m 0
 171.387 467.773 172.852 458.496 179.199 451.172 c 0
 185.059 443.848 193.848 439.941 205.078 439.941 c 0
 216.309 439.941 226.562 443.848 234.863 451.172 c 0
 243.652 458.496 249.512 467.773 251.953 479.004 c 0
 253.906 490.234 251.953 499.512 246.582 506.836 c 0
 240.723 514.16 232.422 518.066 221.191 518.066 c 0
 209.473 518.066 199.707 514.16 190.43 506.836 c 0
 181.641 499.512 175.781 490.234 173.828 479.004 c 0
EndSplineSet
Fore
15 -126 m 0
 50 -126 57 -79 67 -31 c 2
 122 228 l 2
 124 237 125 245 125 251 c 0
 125 263 120 269 110 269 c 0
 103 269 88 267 79 266 c 1
 81 277 l 1
 123 289 151 298 195 314 c 1
 198 312 l 1
 132 0 l 2
 111 -97 59 -149 -16 -149 c 0
 -49 -149 -72 -135 -72 -116 c 2
 -72 -111 l 2
 -68 -96 -54 -85 -38 -85 c 0
 -27 -85 -18 -91 -10 -107 c 0
 -1 -121 4 -126 15 -126 c 0
154 424 m 0
 154 450 177 466 196 466 c 0
 213 466 225 455 225 439 c 0
 225 415 202 397 181 397 c 0
 165 397 154 408 154 424 c 0
EndSplineSet
EndChar
StartChar: k
Encoding: 107 107 76
Width: 341
Flags: W
HStem: 0 10<197 345> 297 10<253 392>
DStem: 138 385 212 465 68 56 151 178 138 385 149 171 68 56 123 46 149 171 201 193 218 44 278 60 263 262 225 211 151 178 201 193
Back
392.09 0 m 1
 229.004 0 l 1
 231.934 12.207 l 1
 244.141 12.207 l 2
 255.371 12.207 262.207 15.625 265.137 22.9492 c 1
 176.758 187.012 l 1
 147.949 49.8047 l 2
 142.578 25.3906 153.809 13.1836 181.152 13.1836 c 2
 195.801 12.207 l 1
 192.871 0 l 1
 17.0898 0 l 1
 20.0195 12.207 l 1
 45.4102 15.1367 59.5703 18.5547 62.0117 20.9961 c 0
 67.3828 25.8789 71.7773 30.7617 76.1719 37.1094 c 0
 80.0781 42.9688 83.0078 51.2695 84.9609 62.0117 c 1
 163.086 425.781 l 1
 166.504 443.848 167.48 455.078 166.016 458.984 c 0
 164.551 462.402 162.109 465.332 158.691 467.285 c 0
 154.785 469.727 149.414 471.191 142.09 471.191 c 2
 138.184 471.191 l 1
 117.188 469.238 l 1
 119.141 479.98 l 1
 242.188 514.16 l 1
 246.094 513.184 l 1
 179.199 198.242 l 1
 299.805 289.062 l 1
 314.453 298.34 323.242 307.129 325.195 314.941 c 0
 327.148 323.73 314.941 328.125 289.062 328.125 c 1
 291.016 339.844 l 1
 443.848 339.844 l 1
 441.895 327.148 l 1
 430.176 327.148 418.945 325.684 409.668 323.73 c 0
 399.902 321.289 391.113 318.359 382.812 314.941 c 0
 376.953 311.523 367.676 306.641 355.469 299.316 c 0
 343.262 292.48 329.59 283.691 314.941 272.949 c 2
 231.934 211.914 l 1
 317.871 65.918 l 2
 328.125 49.3164 339.355 36.1328 352.051 26.8555 c 0
 364.746 17.5781 378.906 12.6953 395.02 12.207 c 1
 392.09 0 l 1
EndSplineSet
Fore
95 425 m 1
 98 436 l 1
 135 447 183 458 210 466 c 1
 212 465 l 1
 151 178 l 1
 263 262 l 2
 273 270 282 279 284 285 c 2
 284 287 l 2
 284 294 276 297 251 298 c 1
 253 307 l 1
 393 307 l 1
 391 297 l 1
 385 297 l 2
 374 297 364 296 353 293 c 0
 332 287 283 256 225 211 c 2
 201 193 l 1
 278 60 l 1
 299 25 318 12 347 10 c 1
 345 0 l 1
 196 0 l 1
 198 10 l 1
 211 10 l 2
 219 10 226 14 227 20 c 0
 227 23 l 0
 227 26 226 30 223 35 c 0
 222 37 220 39 220 41 c 2
 218 44 l 1
 149 171 l 1
 123 46 l 2
 122 42 122 38 122 35 c 0
 122 13 144 11 167 10 c 1
 165 0 l 1
 5 0 l 1
 7 10 l 1
 58 18 60 20 68 56 c 2
 138 385 l 2
 140 394 141 401 141 407 c 0
 141 422 134 427 118 427 c 0
 111 427 105 426 95 425 c 1
EndSplineSet
KernsSLIF: 44 2 2 0 101 -12 2 0 339 -12 2 0 103 -8 2 0 45 -44 2 0 111 -21 2 0 348 -21 2 0 351 -21 2 0 46 -1 2 0 115 3 2 0 117 9 2 0 355 9 2 0
EndChar
StartChar: l
Encoding: 108 108 77
Width: 189
Flags: W
HStem: 0 21G<14 175>
DStem: 149 385 223 465 80 59 136 57
Back
193.848 0 m 1
 16.1133 0 l 1
 18.0664 9.76562 l 1
 40.0391 12.6953 56.1523 17.5781 66.4062 24.9023 c 0
 76.6602 32.2266 83.9844 45.8984 87.8906 65.918 c 1
 165.039 425.781 l 1
 166.504 435.547 167.48 442.383 168.457 447.266 c 0
 169.434 452.637 169.434 456.543 167.969 459.961 c 0
 163.574 467.773 155.273 472.168 144.043 472.168 c 2
 113.77 470.215 l 1
 117.188 482.91 l 1
 126.465 484.863 136.719 487.305 147.949 490.234 c 0
 159.18 492.676 166.992 494.629 170.898 496.094 c 2
 247.07 517.09 l 1
 150.879 63.9648 l 1
 143.066 27.832 158.203 9.76562 195.801 9.76562 c 1
 193.848 0 l 1
EndSplineSet
Fore
103 425 m 1
 106 436 l 1
 155 448 183 455 221 466 c 1
 223 465 l 1
 136 57 l 2
 134 48 133 42 133 36 c 0
 133 17 145 12 177 10 c 1
 175 0 l 1
 14 0 l 1
 16 10 l 1
 60 14 72 23 80 59 c 2
 149 385 l 2
 151 394 152 401 152 407 c 0
 152 422 145 427 129 427 c 0
 124 427 112 426 103 425 c 1
EndSplineSet
KernsSLIF: 118 -19 2 0 121 -17 2 0
EndChar
StartChar: m
Encoding: 109 109 78
Width: 531
Flags: W
HStem: 0 21G<11 163 195 348 380 529> 279 35<256 286>
VStem: 111 56<238 255> 473 56<229 253>
DStem: 108 231 167 238 71 58 126 46 286 207 349 237 255 59 313 65 468 203 523 193 438 59 493 52
Back
595.215 0 m 1
 430.176 0 l 1
 432.129 9.76562 l 1
 439.941 11.2305 446.289 12.6953 451.66 13.6719 c 0
 456.543 14.6484 460.449 15.1367 463.867 16.1133 c 0
 474.609 19.5312 481.934 26.8555 485.84 39.0625 c 1
 494.141 65.918 l 1
 527.832 225.098 l 2
 534.18 252.93 535.156 271.973 532.227 282.227 c 0
 527.832 299.805 514.16 309.082 491.211 309.082 c 0
 454.102 309.082 423.34 293.457 397.949 262.207 c 1
 356.934 69.8242 l 1
 349.121 29.7852 362.305 9.76562 396.973 9.76562 c 1
 395.02 0 l 1
 226.074 0 l 1
 228.027 9.76562 l 1
 238.77 11.2305 247.559 13.1836 254.883 15.1367 c 0
 262.207 17.0898 268.555 20.0195 272.949 23.9258 c 0
 277.832 27.832 281.738 33.2031 284.668 39.5508 c 0
 287.598 45.8984 290.039 54.1992 291.992 64.9414 c 1
 327.148 229.004 l 2
 338.379 282.227 326.172 309.082 291.016 309.082 c 0
 267.578 309.082 245.117 301.758 224.121 287.109 c 0
 215.82 281.738 209.473 277.344 204.59 273.438 c 0
 199.707 270.02 196.289 266.113 194.824 263.184 c 1
 149.902 50.7812 l 2
 144.043 23.4375 158.203 9.76562 191.895 9.76562 c 1
 189.941 0 l 1
 21.9727 0 l 1
 23.9258 9.76562 l 1
 59.5703 9.76562 81.0547 27.832 88.8672 63.9648 c 1
 131.836 268.066 l 1
 135.254 279.785 134.277 290.039 128.906 297.852 c 0
 127.441 301.27 122.559 303.223 112.793 303.223 c 0
 107.91 303.223 103.027 302.734 99.1211 302.734 c 0
 95.2148 302.246 91.3086 301.758 87.8906 300.781 c 1
 90.8203 312.988 l 1
 97.6562 314.453 104.98 316.406 113.281 318.848 c 0
 122.07 321.777 128.906 323.73 133.789 325.195 c 2
 204.102 347.168 l 1
 208.984 347.168 l 1
 195.801 289.062 l 1
 227.539 307.617 250 320.312 264.648 327.637 c 0
 278.809 334.473 287.598 338.867 291.016 339.844 c 0
 304.199 344.727 315.918 347.168 326.172 347.168 c 0
 366.211 347.168 388.672 326.172 394.043 285.156 c 1
 439.453 326.172 484.375 347.168 528.809 347.168 c 0
 587.891 347.168 607.422 301.758 587.891 211.914 c 2
 555.176 57.1289 l 1
 549.805 29.7852 557.617 15.1367 579.102 13.1836 c 2
 597.168 9.76562 l 1
 595.215 0 l 1
EndSplineSet
Fore
71 272 m 1
 73 283 l 1
 113 294 138 301 176 314 c 1
 180 313 l 1
 169 262 l 1
 235 305 256 314 286 314 c 0
 323 314 342 296 347 257 c 1
 391 296 430 314 470 314 c 0
 509 314 529 291 529 245 c 0
 529 230 527 212 523 193 c 2
 493 52 l 2
 492 46 491 40 491 36 c 0
 491 20 499 13 514 12 c 2
 531 10 l 1
 529 0 l 1
 380 0 l 1
 382 10 l 1
 422 15 429 20 438 59 c 2
 468 203 l 2
 471 218 473 231 473 241 c 0
 473 269 460 279 432 279 c 0
 401 279 377 266 349 237 c 1
 313 65 l 2
 311 54 310 46 310 39 c 0
 310 18 321 11 350 10 c 1
 348 0 l 1
 195 0 l 1
 197 10 l 1
 237 13 246 20 255 59 c 2
 286 207 l 2
 288 219 290 230 290 238 c 0
 290 266 278 279 256 279 c 0
 232 279 200 267 179 251 c 0
 174 246 167 240 167 238 c 2
 126 46 l 2
 125 41 124 37 124 33 c 0
 124 17 136 12 165 10 c 1
 163 0 l 1
 11 0 l 1
 13 10 l 1
 51 11 63 21 71 58 c 2
 108 231 l 2
 110 241 111 249 111 255 c 0
 111 269 106 274 93 274 c 0
 85 274 80 274 71 272 c 1
EndSplineSet
KernsSLIF: 112 -6 2 0 118 -20 2 0 119 -21 2 0 121 -21 2 0
EndChar
StartChar: n
Encoding: 110 110 79
Width: 341
Flags: W
HStem: 0 21G<12 157 189 331> 277 37<241 276>
VStem: 280 58<229 249>
DStem: 104 231 163 238 68 61 122 46 277 210 334 212 246 68 301 55
Back
374.023 0 m 1
 219.238 0 l 1
 221.191 9.76562 l 1
 240.234 12.207 252.441 16.1133 256.836 22.9492 c 1
 267.578 30.2734 275.879 47.3633 282.227 74.2188 c 1
 314.941 231.934 l 1
 326.172 279.785 312.5 304.199 273.926 304.199 c 0
 254.883 304.199 226.562 290.527 189.941 263.184 c 1
 145.02 50.7812 l 2
 140.137 28.3203 153.809 14.6484 185.059 9.76562 c 1
 183.105 0 l 1
 23.9258 0 l 1
 25.8789 9.76562 l 1
 48.8281 14.1602 l 1
 58.1055 17.0898 65.918 23.4375 71.7773 33.2031 c 0
 78.125 42.4805 82.5195 54.1992 84.9609 67.8711 c 1
 125 254.883 l 1
 128.906 275.879 129.395 289.551 125.977 296.875 c 0
 125.488 298.34 123.047 299.316 119.141 299.805 c 0
 115.234 300.781 111.328 300.781 107.91 300.781 c 0
 97.168 300.781 89.8438 300.293 85.9375 298.828 c 1
 87.8906 312.012 l 1
 96.6797 313.477 104.98 315.43 113.281 317.871 c 0
 122.07 320.801 127.93 322.754 131.836 324.219 c 0
 142.09 327.148 152.832 331.055 164.551 334.473 c 0
 176.27 338.379 187.5 341.797 199.219 346.191 c 1
 206.055 346.191 l 1
 191.895 284.18 l 1
 205.566 295.41 216.797 304.688 227.051 312.5 c 0
 236.816 320.312 245.605 326.172 252.93 330.078 c 0
 275.879 340.82 296.875 346.191 315.918 346.191 c 0
 373.535 346.191 394.531 308.105 378.906 232.91 c 1
 341.797 61.0352 l 1
 337.891 44.9219 338.379 32.2266 342.773 22.9492 c 1
 346.191 19.5312 350.586 17.0898 355.469 15.625 c 0
 360.352 13.6719 367.188 12.207 375.977 9.76562 c 1
 374.023 0 l 1
EndSplineSet
Fore
69 272 m 1
 71 283 l 1
 110 294 136 302 172 314 c 1
 177 313 l 1
 165 259 l 1
 220 302 245 314 276 314 c 0
 316 314 338 290 338 247 c 0
 338 236 337 225 334 212 c 2
 301 55 l 2
 299 47 299 41 299 36 c 0
 299 19 308 13 333 10 c 1
 331 0 l 1
 189 0 l 1
 191 10 l 1
 226 13 237 25 246 68 c 2
 277 210 l 2
 279 220 280 229 280 237 c 0
 280 264 267 277 241 277 c 0
 219 277 202 268 163 238 c 1
 122 46 l 2
 121 41 120 37 120 34 c 0
 120 18 131 12 159 10 c 1
 157 0 l 1
 12 0 l 1
 14 10 l 1
 50 13 60 23 68 61 c 2
 104 231 l 2
 106 240 107 248 107 254 c 0
 107 269 101 274 87 274 c 0
 80 274 73 274 69 272 c 1
EndSplineSet
KernsSLIF: 84 -37 2 0 112 -8 2 0 146 -26 2 0 118 -20 2 0 119 -21 2 0 121 -21 2 0
EndChar
StartChar: o
Encoding: 111 111 80
Width: 341
Flags: W
HStem: -7 19<168 183> 295 19<223 238>
VStem: 49 65<104 122> 295 64<184 202>
Back
66.8945 170.898 m 0
 62.5 146.973 61.5234 124.512 64.9414 103.027 c 0
 68.3594 81.543 75.6836 62.9883 86.4258 46.875 c 0
 97.6562 30.7617 112.305 18.5547 130.371 8.78906 c 0
 148.926 -0.488281 170.41 -4.88281 194.824 -4.88281 c 0
 219.727 -4.88281 243.164 -0.488281 265.625 8.78906 c 0
 287.598 18.5547 308.105 30.7617 326.172 46.875 c 0
 344.238 62.9883 359.375 81.543 372.559 103.027 c 0
 385.742 124.512 394.531 146.973 398.926 170.898 c 0
 404.297 194.824 405.273 217.773 401.367 238.77 c 0
 397.949 260.254 390.137 278.809 378.906 294.922 c 0
 367.676 311.035 353.027 323.73 334.473 333.008 c 0
 316.406 342.285 294.434 347.168 270.02 347.168 c 0
 245.117 347.168 222.168 342.285 200.195 333.008 c 0
 178.223 323.73 158.203 311.035 140.137 294.922 c 0
 122.07 278.809 106.445 260.254 94.2383 238.77 c 0
 81.543 217.773 72.2656 194.824 66.8945 170.898 c 0
133.789 169.922 m 0
 138.672 191.406 145.02 211.426 152.832 230.469 c 0
 161.133 249.512 170.41 266.113 181.641 279.785 c 0
 192.383 293.945 205.078 305.176 219.238 313.477 c 0
 232.91 321.777 248.535 326.172 265.137 326.172 c 0
 282.227 326.172 296.387 321.777 307.129 313.477 c 0
 317.871 305.176 325.684 293.945 330.566 279.785 c 0
 335.449 266.113 337.891 249.512 337.402 230.469 c 0
 337.402 211.426 334.473 191.406 330.078 169.922 c 0
 325.195 148.438 319.336 128.418 311.523 109.375 c 0
 303.711 90.332 294.434 73.7305 284.18 59.5703 c 0
 273.438 45.4102 260.742 33.6914 246.582 25.3906 c 0
 231.934 17.0898 216.309 13.1836 199.219 13.1836 c 0
 182.129 13.1836 168.945 17.0898 158.691 25.3906 c 0
 147.949 33.6914 140.137 45.4102 134.766 59.5703 c 0
 129.883 73.7305 126.953 90.332 126.953 108.887 c 0
 126.953 128.418 129.395 148.438 133.789 169.922 c 0
EndSplineSet
Fore
49 114 m 0
 49 231 141 314 238 314 c 0
 312 314 359 266 359 197 c 0
 359 83 259 -7 168 -7 c 0
 95 -7 49 43 49 114 c 0
114 120 m 0
 114 63 130 12 181 12 c 0
 232 12 272 59 288 136 c 0
 293 157 295 177 295 194 c 0
 295 255 269 295 225 295 c 0
 155 295 114 217 114 120 c 0
EndSplineSet
KernsSLIF: 84 -62 2 0 146 -23 2 0 116 -6 2 0 118 -24 2 0 119 -24 2 0 120 -24 2 0 121 -28 2 0
EndChar
StartChar: p
Encoding: 112 112 81
Width: 341
Flags: W
HStem: -7 22<171 185> 273 41<236 274>
VStem: 298 64<191 211>
DStem: 100 230 157 228 32 -89 122 60 100 230 114 23 32 -89 91 -85
Back
111.816 -85.9375 m 1
 136.23 25.8789 l 1
 154.785 5.37109 178.223 -4.88281 206.055 -4.88281 c 0
 231.445 -4.88281 254.883 0.488281 276.855 11.2305 c 0
 298.828 21.4844 318.359 35.6445 335.449 53.7109 c 0
 352.539 71.2891 367.188 91.3086 378.906 114.258 c 0
 391.113 137.695 399.414 161.133 403.809 185.059 c 0
 408.203 204.102 409.668 223.633 409.18 243.164 c 0
 408.203 262.207 404.297 279.785 397.461 294.922 c 0
 390.625 310.547 380.371 322.754 367.188 332.52 c 0
 353.516 342.285 336.426 347.168 314.941 347.168 c 0
 270.996 347.168 229.98 328.125 191.895 290.039 c 1
 201.172 347.168 l 1
 83.9844 309.082 l 1
 81.0547 296.875 l 1
 104.98 297.852 l 2
 117.676 297.852 124.512 293.945 125 286.133 c 0
 126.465 280.762 125 270.02 121.094 253.906 c 1
 46.875 -91.7969 l 1
 43.457 -109.375 37.5977 -121.582 28.8086 -128.418 c 0
 20.5078 -135.742 5.85938 -139.16 -14.1602 -139.16 c 1
 -16.1133 -150.879 l 1
 163.086 -150.879 l 1
 166.016 -137.207 l 1
 139.16 -137.207 123.047 -133.789 117.188 -127.93 c 0
 108.398 -121.094 106.445 -107.422 111.816 -85.9375 c 1
334.961 161.133 m 0
 327.148 122.559 313.965 90.8203 295.898 65.918 c 0
 273.438 33.2031 245.117 17.0898 211.914 17.0898 c 0
 195.801 17.0898 181.152 21.4844 166.992 30.7617 c 1
 148.438 41.0156 140.625 53.2227 144.043 66.8945 c 1
 184.082 252.93 l 1
 187.5 259.766 191.895 266.113 198.242 271.973 c 0
 204.102 277.832 210.938 283.203 219.238 287.598 c 0
 227.051 291.992 235.352 295.41 244.141 297.852 c 0
 252.441 300.781 261.23 301.758 269.043 301.758 c 0
 286.133 301.758 300.293 297.852 310.547 289.062 c 0
 320.801 280.273 328.613 269.043 333.496 255.371 c 0
 338.379 241.699 340.82 226.562 340.332 209.961 c 0
 340.332 193.359 338.379 176.758 334.961 161.133 c 0
EndSplineSet
Fore
63 268 m 1
 65 279 l 1
 106 291 132 300 171 314 c 1
 176 313 l 1
 164 260 l 1
 202 297 236 314 274 314 c 0
 328 314 362 273 362 211 c 0
 362 198 360 184 357 169 c 0
 336 70 257 -7 177 -7 c 0
 148 -7 132 0 114 23 c 1
 91 -85 l 2
 89 -95 88 -104 88 -110 c 0
 88 -131 100 -135 140 -136 c 1
 138 -148 l 1
 -28 -148 l 1
 -26 -137 l 1
 16 -132 24 -125 32 -89 c 2
 100 230 l 2
 102 239 103 246 103 252 c 0
 103 265 96 269 80 269 c 0
 74 269 69 269 63 268 c 1
157 228 m 2
 122 60 l 2
 122 57 l 0
 122 37 152 15 183 15 c 0
 232 15 276 66 292 142 c 0
 296 160 298 176 298 191 c 0
 298 242 276 273 236 273 c 0
 205 273 162 249 157 228 c 2
EndSplineSet
KernsSLIF: 116 -4 2 0 121 -19 2 0
EndChar
StartChar: q
Encoding: 113 113 82
Width: 341
Flags: W
HStem: -7 42<125 172> 296 19<218.051 244>
VStem: 41 64<94 120>
DStem: 242 44 356 312 215 -85 270 -96 281 227 356 312 251 87 270 -96
Back
342.773 -160.156 m 1
 346.191 -147.949 l 1
 315.43 -142.09 302.246 -127.441 307.129 -104.98 c 2
 401.855 345.215 l 1
 400.879 347.168 l 1
 396.973 346.191 l 1
 349.121 319.824 l 1
 320.801 337.891 294.434 347.168 270.02 347.168 c 0
 244.141 347.168 219.727 341.797 196.777 332.031 c 0
 174.316 321.777 153.809 308.105 135.742 291.016 c 0
 117.188 273.438 101.562 253.906 88.8672 231.445 c 0
 76.1719 208.984 67.3828 185.547 62.0117 160.156 c 0
 57.1289 139.16 55.1758 119.141 55.6641 99.1211 c 0
 55.6641 79.1016 59.082 61.5234 65.4297 45.8984 c 0
 71.7773 30.7617 82.0312 18.5547 96.1914 8.78906 c 0
 109.863 -0.488281 128.418 -4.88281 150.879 -4.88281 c 0
 160.156 -4.88281 171.387 -3.90625 184.57 -0.976562 c 0
 197.266 1.46484 209.473 5.85938 221.191 11.2305 c 2
 252.93 28.8086 l 1
 276.855 46.875 l 1
 248.047 -88.8672 l 1
 244.141 -108.887 235.352 -123.535 222.168 -132.324 c 0
 208.496 -141.602 190.43 -145.996 166.992 -145.996 c 1
 164.062 -160.156 l 1
 342.773 -160.156 l 1
288.086 97.168 m 1
 275.879 67.8711 l 1
 258.789 48.8281 232.422 39.0625 196.777 39.0625 c 0
 179.688 39.0625 166.016 43.457 155.273 51.7578 c 0
 145.02 60.5469 137.695 71.7773 132.812 85.9375 c 0
 128.418 100.098 125.977 115.234 125.977 131.836 c 0
 125.977 148.438 127.441 165.039 130.859 181.152 c 0
 134.766 198.242 140.625 215.332 147.461 232.422 c 0
 154.297 249.512 163.574 265.137 173.828 278.809 c 0
 184.57 292.969 197.266 304.199 211.914 312.988 c 0
 226.562 321.777 243.164 326.172 262.207 326.172 c 0
 311.523 326.172 331.055 301.27 320.801 251.953 c 1
 288.086 97.168 l 1
EndSplineSet
Fore
41 94 m 0
 41 218 140 315 234 315 c 0
 261 315 280 309 308 290 c 1
 349 312 l 1
 356 312 l 1
 270 -96 l 2
 268 -103 267 -109 267 -113 c 0
 267 -128 277 -132 303 -139 c 1
 302 -148 l 1
 141 -148 l 1
 143 -137 l 1
 193 -133 207 -123 215 -85 c 2
 242 44 l 1
 205 11 164 -7 125 -7 c 0
 72 -7 41 33 41 94 c 0
251 87 m 2
 281 227 l 2
 283 236 284 244 284 251 c 0
 284 281 267 296 232 296 c 0
 174 296 127 245 110 165 c 0
 107 149 105 134 105 120 c 0
 105 69 124 35 172 35 c 0
 193 35 217 43 235 56 c 0
 243 61 248 70 251 87 c 2
EndSplineSet
KernsSLIF: 99 -4 2 0 117 -8 2 0
EndChar
StartChar: r
Encoding: 114 114 83
Width: 227
Flags: W
HStem: 0 21G<3 167> 271 43<215 258>
DStem: 100 228 155 215 64 57 122 61
Back
330.078 307.129 m 0
 327.148 295.898 322.754 287.109 315.918 281.738 c 0
 309.57 275.879 301.758 272.949 293.945 272.949 c 0
 288.574 272.949 284.18 274.414 279.785 277.344 c 0
 275.879 280.273 272.461 283.691 269.043 287.109 c 0
 265.625 290.527 262.695 293.457 259.277 296.387 c 0
 256.348 299.316 252.93 300.781 249.023 300.781 c 0
 237.793 300.781 224.121 293.457 208.984 277.832 c 0
 201.66 270.02 195.801 262.695 191.406 256.348 c 0
 187.012 250 184.57 244.141 183.105 237.793 c 2
 146.973 68.8477 l 1
 137.695 29.7852 154.785 9.76562 198.242 9.76562 c 1
 195.801 0 l 1
 15.1367 0 l 1
 17.0898 9.76562 l 1
 28.3203 12.6953 38.0859 15.1367 45.8984 17.0898 c 0
 54.1992 19.043 59.5703 20.9961 62.9883 22.9492 c 0
 66.4062 24.9023 69.8242 29.7852 73.7305 38.0859 c 0
 77.1484 45.8984 80.0781 54.6875 82.0312 63.9648 c 2
 122.07 252.93 l 2
 125.488 268.555 125.488 279.785 123.047 288.086 c 0
 120.117 295.898 114.746 299.316 105.957 297.852 c 2
 80.0781 294.922 l 1
 82.0312 307.129 l 1
 133.301 323.73 173.34 336.914 202.148 347.168 c 1
 206.055 347.168 l 1
 190.918 278.809 l 1
 230.957 324.219 266.602 347.168 297.852 347.168 c 0
 325.195 347.168 335.938 333.496 330.078 307.129 c 0
EndSplineSet
Fore
289 287 m 0
 289 263 273 247 255 247 c 0
 246 247 239 251 230 261 c 0
 224 268 219 271 215 271 c 0
 197 271 159 237 155 215 c 2
 122 61 l 2
 120 53 119 47 119 41 c 0
 119 19 133 12 169 10 c 1
 167 0 l 1
 3 0 l 1
 5 10 l 1
 51 18 57 23 64 57 c 2
 100 228 l 2
 102 237 103 245 103 251 c 0
 103 264 98 269 86 269 c 0
 77 269 71 268 62 266 c 1
 64 277 l 1
 107 290 134 299 173 314 c 1
 176 313 l 1
 162 250 l 1
 206 298 230 314 258 314 c 0
 278 314 289 304 289 287 c 0
EndSplineSet
KernsSLIF: 266 -2 2 0 99 -5 2 0 337 -5 2 0 58 -4 2 0 44 -28 2 0 100 -6 2 0 101 -4 2 0 339 -4 2 0 340 -4 2 0 338 -4 2 0 102 12 2 0 103 -10 2 0 104 -4 2 0 45 -31 2 0 105 13 2 0 106 9 2 0 107 -6 2 0 108 -12 2 0 109 13 2 0 110 15 2 0 111 -5 2 0 348 -5 2 0 349 -5 2 0 351 -5 2 0 267 -4 2 0 347 -5 2 0 364 -4 2 0 112 17 2 0 46 -32 2 0 113 -6 2 0 146 -12 2 0 114 17 2 0 59 -4 2 0 116 15 2 0 117 12 2 0 118 13 2 0 119 12 2 0 120 11 2 0 121 15 2 0 122 1 2 0
EndChar
StartChar: s
Encoding: 115 115 84
Width: 265
Flags: W
HStem: -7 15<128 148> -7 111<58 68> 5 99<57 61> 214 86<251 260> 298 15<180.489 205>
VStem: 82 48<211 241> 203 54<68 98>
Back
278.809 89.8438 m 0
 272.461 60.0586 256.836 36.6211 231.934 20.0195 c 0
 207.52 3.41797 179.688 -4.88281 148.926 -4.88281 c 0
 139.16 -4.88281 123.535 -2.92969 102.051 0.976562 c 2
 64.9414 7.8125 l 2
 59.082 7.8125 52.7344 5.37109 45.8984 0 c 1
 36.1328 0 l 1
 61.0352 116.211 l 1
 75.1953 116.211 l 1
 73.2422 99.1211 73.2422 86.4258 76.1719 77.1484 c 1
 83.0078 45.8984 l 1
 87.8906 33.2031 95.7031 23.9258 106.445 18.0664 c 0
 117.676 12.207 130.859 8.78906 146.973 8.78906 c 0
 188.477 8.78906 212.891 27.3438 221.191 63.9648 c 0
 225.098 85.4492 215.82 104.004 193.848 120.117 c 2
 122.07 168.945 l 1
 102.051 189.941 l 2
 87.8906 204.102 83.9844 225.586 89.8438 254.883 c 0
 93.2617 269.043 99.1211 281.738 107.422 292.969 c 0
 115.723 304.199 125.488 313.965 137.207 321.777 c 0
 148.438 330.078 160.645 335.938 174.316 340.332 c 0
 187.988 344.727 202.148 347.168 215.82 347.168 c 0
 229.492 347.168 238.281 346.191 243.652 344.727 c 0
 248.535 342.773 252.441 341.309 255.859 339.844 c 2
 280.762 331.055 l 1
 286.133 331.055 291.504 334.473 295.898 340.82 c 1
 305.176 340.82 l 1
 288.086 237.793 l 1
 274.902 237.793 l 1
 273.438 299.316 251.953 330.078 209.961 330.078 c 0
 175.293 330.078 152.832 313.477 142.09 279.785 c 1
 137.207 257.324 144.531 239.746 163.086 227.051 c 2
 234.863 179.199 l 2
 254.395 165.527 267.09 153.809 272.949 144.043 c 0
 281.738 129.395 283.691 111.328 278.809 89.8438 c 0
EndSplineSet
Fore
135 8 m 0x86
 172 8 203 29 203 68 c 0
 203 85 194 98 177 109 c 2
 143 131 l 2
 100 159 82 182 82 211 c 0
 82 217 83 223 84 229 c 0
 94 279 141 313 195 313 c 0x8e
 212 313 226 311 240 305 c 0
 247 302 254 300 258 300 c 0
 261 300 265 303 270 307 c 1
 277 307 l 1
 260 214 l 1
 250 214 l 1x16
 247 275 232 298 193 298 c 0
 161 298 136 279 131 252 c 0
 130 248 130 245 130 241 c 0
 130 227 137 214 151 206 c 2
 214 162 l 2
 244 141 257 123 257 98 c 0
 257 93 256 87 255 81 c 0
 245 33 193 -7 140 -7 c 0x8e
 123 -7 78 5 61 5 c 0x26
 53 5 50 4 43 -3 c 1
 35 -3 l 1
 58 104 l 1
 68 104 l 1x46
 69 65 71 49 83 32 c 0
 93 17 112 8 135 8 c 0x86
EndSplineSet
KernsSLIF: 146 -25 2 0 116 -10 2 0
EndChar
StartChar: t
Encoding: 116 116 85
Width: 189
Flags: W
HStem: -7 36<108 147> 285 22<170 235>
VStem: 61 59<45 61>
DStem: 109 285 166 285 65 80 124 90
Back
226.074 49.8047 m 1
 214.844 34.668 199.219 21.4844 180.176 11.2305 c 0
 160.645 0.488281 142.578 -4.88281 125.977 -4.88281 c 0
 81.543 -4.88281 65.4297 26.3672 78.125 88.8672 c 1
 125.977 314.941 l 1
 84.9609 314.941 l 1
 83.0078 320.801 l 1
 97.168 330.566 110.84 340.332 125 351.074 c 0
 140.137 363.77 154.297 376.465 166.992 390.137 c 0
 179.688 403.32 193.848 418.945 209.961 437.012 c 1
 211.914 425.781 l 1
 192.871 339.844 l 1
 270.02 339.844 l 1
 265.137 314.941 l 1
 187.988 314.941 l 1
 142.09 100.098 l 1
 132.812 54.6875 140.625 32.2266 166.016 32.2266 c 0
 182.129 32.2266 199.219 40.5273 217.773 58.1055 c 1
 226.074 49.8047 l 1
EndSplineSet
Fore
239 307 m 1
 235 285 l 1
 166 285 l 1
 124 90 l 2
 121 78 120 67 120 59 c 0
 120 38 128 29 147 29 c 0
 162 29 175 36 193 53 c 1
 200 45 l 1
 170 10 141 -7 108 -7 c 0
 76 -7 61 11 61 45 c 0
 61 55 62 67 65 80 c 2
 109 285 l 1
 73 285 l 1
 72 286 71 287 71 289 c 2
 71 290 l 2
 71 294 76 298 84 303 c 1
 97 306 157 363 184 395 c 1
 187 395 188 394 188 391 c 0
 188 390 188 388 187 386 c 2
 170 307 l 1
 239 307 l 1
EndSplineSet
KernsSLIF: 83 1 2 0 97 6 2 0 332 6 2 0 335 6 2 0 266 6 2 0 336 6 2 0 58 -5 2 0 104 6 2 0 111 -5 2 0 348 -5 2 0 351 -5 2 0 146 -19 2 0 59 -5 2 0
EndChar
StartChar: u
Encoding: 117 117 86
Width: 341
Flags: W
HStem: -7 40<130 161> 287 20G<71 171 242 350>
VStem: 63 60<59 76>
DStem: 102 254 171 307 65 82 124 85 281 253 350 307 247 92 301 73
Back
377.93 26.8555 m 1
 374.023 26.3672 368.164 25.3906 359.863 23.4375 c 0
 352.051 21.9727 341.797 19.043 330.078 15.1367 c 2
 266.113 -3.90625 l 1
 277.832 58.1055 l 1
 237.793 24.9023 l 2
 211.914 4.88281 184.082 -4.88281 153.809 -4.88281 c 0
 133.301 -4.88281 115.234 0.488281 99.1211 11.2305 c 1
 81.543 31.7383 76.1719 58.1055 83.0078 90.8203 c 1
 124.023 280.762 l 1
 127.93 301.758 125.488 314.941 117.188 320.801 c 1
 112.793 327.148 103.516 330.078 87.8906 330.078 c 1
 89.8438 339.844 l 1
 199.219 339.844 l 1
 146.973 95.2148 l 1
 144.531 78.125 146.484 64.4531 153.809 54.1992 c 0
 155.273 50.7812 157.227 48.3398 160.156 46.3867 c 0
 162.598 44.9219 165.527 42.9688 168.945 41.0156 c 1
 192.871 38.0859 l 1
 215.82 38.0859 239.258 46.875 264.16 63.9648 c 1
 272.461 68.8477 278.809 81.0547 283.203 101.074 c 1
 321.777 279.785 l 1
 326.172 299.805 324.707 312.988 317.871 318.359 c 0
 311.523 324.219 297.363 327.148 275.879 327.148 c 1
 277.832 339.844 l 1
 397.949 339.844 l 1
 342.773 82.0312 l 1
 339.844 63.4766 340.332 51.2695 344.727 46.3867 c 0
 348.633 41.5039 360.84 39.0625 379.883 39.0625 c 1
 377.93 26.8555 l 1
EndSplineSet
Fore
334 34 m 1
 332 25 l 1
 295 15 270 8 233 -6 c 1
 230 -5 l 1
 242 52 l 1
 213 29 176 -7 130 -7 c 0
 88 -7 63 18 63 59 c 0
 63 66 63 74 65 82 c 2
 102 254 l 2
 104 261 104 267 104 272 c 0
 104 290 94 296 69 298 c 1
 71 307 l 1
 171 307 l 1
 124 85 l 2
 123 81 123 77 123 74 c 0
 123 50 139 33 161 33 c 0
 182 33 205 41 226 56 c 0
 237 63 243 73 247 92 c 2
 281 253 l 2
 283 260 283 266 283 272 c 0
 283 290 272 294 240 296 c 1
 242 307 l 1
 350 307 l 1
 301 73 l 2
 299 65 298 59 298 54 c 0
 298 38 307 34 331 34 c 2
 334 34 l 1
EndSplineSet
KernsSLIF: 146 -24 2 0
EndChar
StartChar: v
Encoding: 118 118 87
Width: 341
Flags: W
HStem: -10 21G<171 175> 287 20G<78 212 296 391>
DStem: 121 218 176 253 162 23 208 78 313 255 333 244 208 78 199 25
Back
421.875 328.125 m 1
 408.691 328.125 396.484 320.801 384.766 307.129 c 0
 379.883 300.293 375.488 293.945 372.559 288.574 c 0
 369.629 282.715 365.234 276.367 359.863 269.043 c 1
 212.891 27.832 l 1
 189.941 -1.95312 l 1
 185.059 -6.83594 l 1
 179.199 0.976562 l 1
 170.898 24.9023 l 1
 112.793 299.805 l 1
 104.004 315.918 l 2
 98.6328 324.219 89.8438 328.125 77.1484 328.125 c 1
 79.1016 339.844 l 1
 226.074 339.844 l 1
 224.121 328.125 l 1
 201.172 326.172 188.477 318.359 185.059 305.176 c 0
 184.57 301.758 184.082 297.852 184.57 293.945 c 0
 185.059 290.039 185.547 285.156 186.035 278.809 c 1
 221.191 86.9141 l 1
 296.875 211.914 l 2
 311.523 235.84 322.754 254.883 330.078 268.555 c 0
 337.402 282.227 342.773 293.457 346.191 303.223 c 2
 347.168 307.129 l 2
 348.145 313.477 346.191 318.848 340.82 322.266 c 0
 335.449 326.172 327.637 328.125 316.895 328.125 c 1
 318.848 339.844 l 1
 423.828 339.844 l 1
 421.875 328.125 l 1
EndSplineSet
Fore
391 307 m 1
 389 297 l 1
 368 295 363 290 333 244 c 1
 199 25 l 2
 184 -1 177 -10 173 -10 c 0
 169 -10 166 -4 165 8 c 0
 163 14 162 18 162 23 c 1
 121 218 l 1
 105 289 102 296 76 297 c 1
 78 307 l 1
 212 307 l 1
 210 297 l 1
 186 295 177 290 174 278 c 0
 174 276 173 273 173 270 c 0
 173 265 174 259 176 253 c 1
 208 78 l 1
 313 255 l 2
 318 262 320 268 321 275 c 0
 321 277 322 278 322 280 c 0
 322 290 313 295 294 297 c 1
 296 307 l 1
 391 307 l 1
EndSplineSet
KernsSLIF: 97 -16 2 0 332 -16 2 0 333 -16 2 0 335 -16 2 0 266 -16 2 0 331 -16 2 0 336 -16 2 0 334 -16 2 0 99 -25 2 0 58 -13 2 0 44 -47 2 0 101 -24 2 0 339 -24 2 0 340 -24 2 0 338 -24 2 0 103 -28 2 0 45 -19 2 0 108 -21 2 0 111 -25 2 0 348 -25 2 0 351 -25 2 0 347 -25 2 0 364 -25 2 0 46 -51 2 0 115 -14 2 0 59 -13 2 0
EndChar
StartChar: w
Encoding: 119 119 88
Width: 492
Flags: W
HStem: -10 21G<156 160 328.5 333> 287 20G<79 202 244 382 455 539>
DStem: 105 254 164 254 147 20 194 76 285 212 292 181 194 76 182 17 292 181 338 232 320 20 364 79 457 231 501 260 364 79 357 24
Back
583.008 328.125 m 1
 571.777 326.172 558.105 312.5 542.969 288.086 c 2
 383.789 26.8555 l 1
 363.77 0.976562 l 1
 355.957 -6.83594 l 1
 352.051 -6.83594 348.145 2.92969 344.238 22.9492 c 1
 313.965 200.195 l 1
 189.941 20.0195 l 1
 184.57 9.76562 179.199 3.41797 172.852 0 c 1
 166.992 -6.83594 l 1
 159.18 3.90625 154.297 14.1602 152.832 23.9258 c 1
 98.1445 312.012 l 1
 96.6797 321.777 89.8438 327.148 77.1484 328.125 c 1
 79.1016 339.844 l 1
 213.867 339.844 l 1
 211.914 328.125 l 1
 187.988 326.172 173.828 317.871 169.922 303.223 c 0
 169.434 296.875 172.852 269.531 181.152 221.191 c 1
 204.102 84.9609 l 1
 305.176 234.863 l 1
 296.875 284.18 l 1
 289.062 312.012 l 1
 283.691 319.336 272.949 324.707 256.836 328.125 c 1
 258.789 339.844 l 1
 412.109 339.844 l 1
 410.156 328.125 l 1
 377.93 320.801 l 1
 368.652 316.895 362.793 310.059 360.84 299.805 c 0
 360.352 297.363 361.816 280.762 366.211 250 c 1
 392.09 87.8906 l 1
 496.094 254.883 l 2
 500 261.23 504.395 269.043 508.301 278.32 c 0
 512.695 288.086 515.625 296.387 517.09 303.223 c 0
 519.531 313.477 511.23 321.777 491.211 328.125 c 1
 493.164 339.844 l 1
 584.961 339.844 l 1
 583.008 328.125 l 1
EndSplineSet
Fore
455 307 m 1
 539 307 l 1
 537 297 l 1
 522 292 519 289 501 260 c 1
 357 24 l 2
 340 -3 335 -10 331 -10 c 0
 326 -10 325 -5 320 20 c 2
 292 181 l 1
 182 17 l 2
 169 -1 162 -10 158 -10 c 0
 154 -10 151 0 147 20 c 2
 105 254 l 1
 97 289 93 296 77 297 c 1
 79 307 l 1
 202 307 l 1
 200 297 l 1
 172 293 163 288 163 263 c 0
 163 260 163 257 164 254 c 2
 194 76 l 1
 285 212 l 1
 284 224 281 237 279 250 c 0
 273 287 266 294 242 297 c 1
 244 307 l 1
 382 307 l 1
 380 297 l 1
 344 292 335 285 335 263 c 0
 335 259 336 251 338 232 c 2
 364 79 l 1
 457 231 l 2
 469 249 477 266 479 276 c 2
 479 280 l 2
 479 288 472 293 453 297 c 1
 455 307 l 1
EndSplineSet
KernsSLIF: 97 -18 2 0 332 -18 2 0 333 -18 2 0 335 -18 2 0 266 -18 2 0 331 -18 2 0 336 -18 2 0 334 -18 2 0 99 -22 2 0 58 -15 2 0 44 -43 2 0 101 -21 2 0 339 -21 2 0 340 -21 2 0 338 -21 2 0 103 -29 2 0 45 -16 2 0 108 -22 2 0 111 -23 2 0 348 -23 2 0 351 -23 2 0 347 -23 2 0 364 -23 2 0 46 -48 2 0 115 -15 2 0 59 -15 2 0
EndChar
StartChar: x
Encoding: 120 120 89
Width: 341
Flags: W
HStem: 0 10<106 113 325 329> 297 10<80 93>
DStem: 173 158 180 135 71 45 108 51 180 135 223 185 221 39 282 51
Back
362.793 0 m 1
 210.938 0 l 1
 212.891 9.76562 l 1
 233.887 14.1602 l 2
 240.723 16.1133 245.117 21.4844 247.07 30.7617 c 0
 247.559 33.6914 247.559 37.1094 246.094 41.0156 c 0
 244.629 44.9219 243.164 49.8047 241.211 55.1758 c 2
 199.219 147.949 l 1
 120.117 56.1523 l 2
 107.91 41.9922 100.586 31.25 98.1445 23.9258 c 0
 96.6797 14.6484 105.469 9.76562 125 9.76562 c 1
 123.047 0 l 1
 14.1602 0 l 1
 16.1133 9.76562 l 1
 30.7617 12.6953 40.0391 15.625 43.9453 19.043 c 0
 49.3164 21.4844 55.1758 25.8789 61.0352 30.7617 c 0
 66.8945 36.1328 73.7305 42.4805 81.0547 49.8047 c 2
 192.871 174.805 l 1
 145.02 283.203 l 2
 141.602 291.016 137.695 298.34 133.301 305.176 c 0
 129.395 311.523 124.512 317.871 119.141 324.219 c 1
 89.8438 328.125 l 1
 91.7969 339.844 l 1
 248.047 339.844 l 1
 246.094 328.125 l 1
 224.609 328.125 212.891 322.266 209.961 311.035 c 0
 208.008 303.711 217.285 276.855 237.793 229.98 c 1
 279.785 277.344 302.246 304.199 305.176 311.035 c 0
 307.617 322.266 298.828 328.125 278.809 328.125 c 1
 280.762 339.844 l 1
 399.902 339.844 l 1
 397.949 328.125 l 1
 372.07 328.125 349.121 317.383 330.078 295.898 c 2
 248.047 205.078 l 1
 313.965 56.1523 l 2
 326.66 27.832 343.75 12.6953 365.234 9.76562 c 1
 362.793 0 l 1
EndSplineSet
Fore
190 0 m 1
 192 10 l 1
 215 12 220 14 223 27 c 0
 223 30 l 0
 223 33 222 36 221 39 c 2
 180 135 l 1
 108 51 l 2
 96 37 89 27 88 23 c 0
 88 20 l 0
 88 13 95 10 113 10 c 1
 111 0 l 1
 12 0 l 1
 14 10 l 1
 37 12 45 17 71 45 c 1
 173 158 l 1
 129 256 l 2
 115 288 106 297 86 297 c 2
 79 297 l 1
 81 307 l 1
 223 307 l 1
 221 297 l 1
 200 296 190 292 188 282 c 0
 188 279 l 0
 188 268 203 229 213 208 c 1
 225 221 236 234 241 238 c 0
 262 259 273 274 275 282 c 0
 275 285 l 0
 275 293 269 296 251 297 c 1
 253 307 l 1
 361 307 l 1
 359 297 l 1
 337 296 314 285 297 267 c 2
 223 185 l 1
 282 51 l 1
 296 21 308 10 329 10 c 1
 327 0 l 1
 190 0 l 1
EndSplineSet
KernsSLIF: 97 -7 2 0 99 -23 2 0 101 -21 2 0 339 -21 2 0 111 -30 2 0 113 -17 2 0
EndChar
StartChar: y
Encoding: 121 121 90
Width: 341
Flags: W
HStem: -149 58<39 84> -149 70<27 45> 297 10<297 308.691>
DStem: 103 276 171 253 145 108 213 80 319 268 349 266 213 80 183 -12
Back
203.125 -13.1836 m 2
 386.23 294.922 l 1
 398.438 317.871 413.086 329.102 429.199 329.102 c 1
 431.152 339.844 l 1
 329.102 339.844 l 1
 327.148 329.102 l 1
 351.562 329.102 362.305 321.777 358.887 308.105 c 1
 236.816 87.8906 l 1
 190.918 279.785 l 1
 187.012 289.551 185.547 298.34 187.012 307.129 c 0
 189.453 321.777 206.543 329.102 236.816 329.102 c 1
 238.77 339.844 l 1
 83.0078 339.844 l 1
 81.0547 330.078 l 1
 102.539 326.172 113.281 317.871 113.77 305.176 c 1
 186.035 15.1367 l 1
 186.523 13.6719 187.012 12.6953 186.523 12.207 c 0
 186.035 11.2305 186.035 10.2539 186.035 8.78906 c 1
 149.902 -47.8516 l 1
 125.488 -85.4492 104.492 -104.004 86.9141 -104.004 c 0
 80.5664 -104.004 72.7539 -101.562 64.4531 -96.6797 c 0
 56.1523 -91.3086 46.3867 -88.8672 35.1562 -88.8672 c 0
 9.76562 -88.8672 -4.88281 -100.586 -8.78906 -124.023 c 0
 -16.1133 -153.809 -0.976562 -168.945 37.1094 -168.945 c 0
 86.4258 -168.945 141.602 -117.188 203.125 -13.1836 c 2
EndSplineSet
Fore
-4 -116 m 0xa0
 -4 -96 15 -79 33 -79 c 0x60
 44 -79 56 -82 68 -87 c 0
 74 -90 80 -91 84 -91 c 0
 94 -91 111 -79 124 -61 c 0
 140 -40 166 3 168 13 c 2
 168 18 l 2
 168 33 154 81 145 108 c 1
 103 276 l 2
 100 287 90 295 73 298 c 1
 75 307 l 1
 215 307 l 1
 213 297 l 1
 184 296 173 291 170 279 c 0
 170 276 169 272 169 269 c 0
 169 264 170 258 171 253 c 2
 213 80 l 1
 319 268 l 1
 322 273 324 277 325 280 c 0
 325 283 l 0
 325 292 315 297 295 297 c 1
 297 307 l 1
 389 307 l 1
 387 297 l 1
 371 295 361 288 349 266 c 1
 183 -12 l 2
 126 -111 85 -149 39 -149 c 0
 13 -149 -4 -136 -4 -116 c 0xa0
EndSplineSet
KernsSLIF: 97 -21 2 0 332 -21 2 0 333 -21 2 0 335 -21 2 0 266 -21 2 0 331 -21 2 0 336 -21 2 0 334 -21 2 0 99 -25 2 0 58 -15 2 0 44 -45 2 0 101 -23 2 0 339 -23 2 0 340 -23 2 0 338 -23 2 0 103 -32 2 0 45 -18 2 0 108 -21 2 0 111 -26 2 0 348 -26 2 0 351 -26 2 0 347 -26 2 0 364 -25 2 0 46 -49 2 0 115 -17 2 0 59 -15 2 0
EndChar
StartChar: z
Encoding: 122 122 91
Width: 303
Flags: W
HStem: 0 20<95 276> 287 20<103 261>
DStem: 261 287 338 297 20 10 95 20
Back
327.148 100.098 m 1
 296.875 0 l 1
 12.207 0 l 1
 14.1602 9.76562 l 1
 279.785 315.918 l 1
 173.828 315.918 l 2
 149.414 315.918 131.836 309.57 121.582 296.875 c 0
 111.328 284.18 103.516 268.555 98.1445 250 c 1
 82.0312 250 l 1
 104.004 339.844 l 1
 368.164 339.844 l 1
 366.211 328.125 l 1
 97.168 22.9492 l 1
 201.172 22.9492 l 2
 217.773 22.9492 231.934 24.4141 243.652 26.8555 c 0
 255.371 29.7852 265.137 34.1797 273.926 40.5273 c 0
 282.715 46.875 290.039 55.1758 296.387 65.4297 c 0
 302.734 75.6836 309.082 88.8672 314.941 104.004 c 1
 327.148 100.098 l 1
EndSplineSet
Fore
305 92 m 1
 276 0 l 1
 18 0 l 1
 20 10 l 1
 261 287 l 1
 167 287 l 2
 126 287 114 277 96 227 c 1
 84 227 l 1
 103 307 l 1
 340 307 l 1
 338 297 l 1
 95 20 l 1
 190 20 l 2
 260 20 271 41 293 95 c 1
 305 92 l 1
EndSplineSet
EndChar
StartChar: braceleft
Encoding: 123 123 92
Width: 327
Flags: W
VStem: 116 50<-65 -59> 150 50<115 124>
DStem: 146 93 195 83 120 -28 170 -32 204 369 256 373 179 248 232 258
Back
189.941 -125 m 1
 151.367 -125 124.512 -119.141 108.887 -106.934 c 0
 91.7969 -92.2852 86.9141 -65.4297 95.2148 -26.8555 c 2
 121.094 95.2148 l 2
 126.465 119.141 125.977 136.719 120.117 148.438 c 0
 113.77 160.156 100.098 168.945 79.1016 174.805 c 1
 102.539 181.152 119.629 189.941 130.371 201.66 c 0
 141.602 213.379 149.902 230.469 154.785 253.906 c 1
 182.129 378.906 l 2
 189.941 416.992 205.566 443.359 229.004 458.008 c 0
 249.023 470.215 278.809 476.074 317.871 476.074 c 1
 315.918 467.773 l 1
 290.527 462.891 271.973 453.613 259.766 440.43 c 0
 248.047 427.734 239.258 408.203 233.887 381.836 c 2
 208.984 265.137 l 1
 204.102 238.77 195.801 218.262 184.082 203.125 c 1
 173.34 191.895 154.297 182.129 126.953 174.805 c 1
 139.16 170.898 148.438 166.504 155.762 162.109 c 0
 163.574 157.227 168.457 151.855 171.875 145.02 c 0
 175.293 138.184 176.758 130.371 176.27 120.605 c 0
 176.27 110.84 174.316 99.1211 170.898 84.9609 c 1
 145.996 -30.7617 l 2
 140.625 -56.1523 141.113 -75.1953 147.949 -87.8906 c 0
 154.785 -100.586 169.434 -110.352 191.895 -117.188 c 1
 189.941 -125 l 1
EndSplineSet
Fore
214 -116 m 1x80
 213 -124 l 1
 149 -123 116 -113 116 -61 c 0x80
 116 -51 117 -40 120 -28 c 2
 146 93 l 2
 148 104 150 114 150 122 c 0
 150 148 137 160 104 171 c 1
 153 184 169 200 179 248 c 2
 204 369 l 2
 213 408 229 435 251 447 c 0
 274 460 293 464 338 464 c 1
 336 457 l 1
 286 444 267 424 256 373 c 2
 232 258 l 2
 220 201 203 184 149 170 c 1
 185 160 200 148 200 118 c 0x40
 200 109 198 97 195 83 c 2
 170 -32 l 2
 167 -44 166 -54 166 -63 c 0
 166 -92 180 -107 214 -116 c 1x80
EndSplineSet
EndChar
StartChar: bar
Encoding: 124 124 93
Width: 136
Flags: W
HStem: -10 21G<44 89> 442 20G<144 189>
DStem: 144 462 189 462 44 -10 89 -10
Back
70.8008 -121.094 m 1
 36.1328 -121.094 l 1
 163.086 473.145 l 1
 198.242 473.145 l 1
 70.8008 -121.094 l 1
EndSplineSet
Fore
44 -10 m 1
 144 462 l 1
 189 462 l 1
 89 -10 l 1
 44 -10 l 1
EndSplineSet
EndChar
StartChar: braceright
Encoding: 125 125 94
Width: 327
Flags: W
VStem: 201 49<211 229> 234 49<400 406>
DStem: 169 83 221 93 144 -32 195 -29 230 373 279 369 206 258 254 248
Back
237.793 174.805 m 1
 214.844 168.945 197.266 160.156 186.035 147.949 c 0
 174.805 136.23 166.504 118.164 161.133 95.2148 c 1
 134.766 -26.8555 l 2
 126.953 -64.9414 111.328 -91.7969 87.8906 -106.934 c 0
 69.3359 -119.141 39.5508 -125 -0.976562 -125 c 1
 0.976562 -117.188 l 1
 45.8984 -106.445 73.2422 -77.6367 83.0078 -30.7617 c 2
 107.91 84.9609 l 2
 113.77 111.816 121.582 130.859 130.859 143.066 c 0
 141.602 157.227 161.133 167.48 189.941 173.828 c 1
 166.016 181.152 151.367 191.406 145.508 204.102 c 0
 139.648 216.797 140.137 236.816 145.996 265.137 c 2
 170.898 381.836 l 2
 176.27 407.227 175.781 426.27 169.434 439.453 c 0
 163.086 452.637 148.438 461.914 125 467.773 c 1
 126.953 476.074 l 1
 167.48 476.074 194.824 470.215 208.984 458.008 c 0
 225.586 443.359 229.492 416.504 221.191 377.93 c 1
 194.824 253.906 l 1
 185.547 212.891 200.195 186.523 237.793 174.805 c 1
EndSplineSet
Fore
186 457 m 1x40
 188 464 l 1
 254 464 283 452 283 402 c 0x40
 283 392 282 381 279 369 c 2
 254 248 l 2
 252 236 250 227 250 218 c 0
 250 192 263 181 295 171 c 1
 247 156 231 141 221 93 c 2
 195 -29 l 2
 187 -68 171 -94 148 -107 c 0
 127 -119 108 -123 63 -124 c 1
 64 -116 l 1
 114 -104 133 -83 144 -32 c 2
 169 83 l 2
 181 139 197 157 251 171 c 1
 215 181 201 193 201 221 c 0x80
 201 231 203 243 206 258 c 2
 230 373 l 2
 233 385 234 395 234 404 c 0
 234 433 220 447 186 457 c 1x40
EndSplineSet
EndChar
StartChar: asciitilde
Encoding: 126 126 95
Width: 369
Flags: W
Back
414.062 190.918 m 1
 388.184 165.039 l 1
 370.117 149.902 l 2
 354.492 137.207 335.938 130.859 313.965 130.859 c 0
 299.316 130.859 275.879 138.672 244.141 153.809 c 0
 213.867 169.922 189.941 178.223 171.875 178.223 c 0
 149.414 178.223 125.977 161.133 102.051 127.93 c 1
 84.9609 163.086 l 1
 114.258 203.125 147.461 223.145 184.082 223.145 c 0
 200.195 223.145 224.121 215.332 255.859 200.195 c 0
 286.133 185.547 308.594 177.246 324.219 175.781 c 0
 344.238 175.781 368.164 192.871 395.996 226.074 c 1
 414.062 190.918 l 1
EndSplineSet
Fore
350 207 m 1
 382 185 l 1
 341 141 317 127 286 127 c 0
 255 127 244 132 190 164 c 0
 179 170 166 173 152 173 c 0
 131 173 117 165 94 139 c 1
 61 160 l 1
 102 204 126 218 157 218 c 0
 188 218 199 214 254 182 c 0
 264 175 278 172 292 172 c 0
 314 172 326 180 350 207 c 1
EndSplineSet
EndChar
StartChar: uniF700
Encoding: 128 63232 96
Width: 355
Flags: W
HStem: 0 21G<193 245> 106 19<122 130> 197 23<143 160> 279 21<79 156> 316 29<298 316> 341 44<194 209>
VStem: 91 18<143 152> 161 20<171 179> 237 52<207 222>
Back
287.109 196.777 m 1
 292.969 231.445 281.25 258.789 251.953 277.832 c 0
 227.539 292.48 195.312 299.805 155.762 299.805 c 0
 144.043 299.805 135.254 299.805 129.883 299.316 c 0
 124.512 299.316 120.117 298.828 116.211 297.852 c 1
 131.836 326.66 159.18 340.82 196.777 340.82 c 0
 203.125 340.82 210.449 339.355 219.238 336.426 c 0
 227.539 333.496 237.793 330.566 249.023 327.148 c 0
 260.254 323.242 270.02 320.312 277.832 318.359 c 0
 286.133 316.895 292.48 315.918 297.852 315.918 c 0
 335.449 315.918 364.746 337.402 386.23 379.883 c 1
 365.234 379.883 l 1
 358.398 370.117 351.562 361.816 344.238 354.98 c 0
 336.426 348.145 327.148 345.215 315.918 345.215 c 0
 309.57 345.215 300.293 348.633 289.551 355.957 c 0
 278.32 363.281 269.531 369.141 262.207 373.047 c 0
 253.906 377.441 245.605 380.859 236.328 382.324 c 0
 227.539 384.277 218.262 384.766 208.984 384.766 c 0
 194.824 384.766 181.152 382.324 167.969 376.465 c 0
 154.785 370.605 142.09 363.281 130.859 353.516 c 0
 119.629 343.75 109.375 332.52 100.586 319.824 c 0
 91.3086 307.129 84.4727 293.457 79.1016 278.809 c 1
 124.512 278.809 159.668 275.391 185.059 268.066 c 0
 224.121 256.836 241.211 232.91 234.863 195.801 c 1
 227.051 161.133 l 1
 223.633 180.176 215.82 194.824 204.102 205.078 c 0
 191.895 214.844 177.246 220.215 160.156 220.215 c 0
 141.113 220.215 125.977 214.355 114.258 203.613 c 0
 103.027 192.383 95.2148 178.711 91.7969 162.109 c 0
 89.3555 148.438 90.8203 136.23 97.168 124.023 c 0
 103.027 111.816 111.816 105.957 124.023 105.957 c 0
 137.207 105.957 148.926 111.328 159.18 122.559 c 0
 168.945 133.301 175.781 145.996 179.199 160.156 c 0
 181.152 169.922 181.152 178.711 180.176 186.035 c 1
 193.359 171.875 201.172 149.414 204.102 118.652 c 0
 206.543 87.4023 203.125 47.8516 192.871 0 c 1
 245.117 0 l 1
 287.109 196.777 l 1
160.156 162.109 m 0
 157.227 149.902 152.832 140.625 146.973 134.277 c 0
 141.113 127.93 134.766 125 127.93 125 c 0
 120.605 125 115.234 127.93 111.816 134.277 c 0
 108.887 140.625 108.398 149.902 110.84 162.109 c 0
 113.77 171.875 117.676 180.176 123.535 187.012 c 0
 129.395 193.848 135.742 196.777 143.066 196.777 c 0
 150.879 196.777 156.25 193.359 159.18 185.547 c 0
 161.621 177.734 162.109 169.922 160.156 162.109 c 0
EndSplineSet
Fore
156 300 m 0xf780
 227 300 289 275 289 215 c 0
 289 209 288 203 287 197 c 1
 245 0 l 1
 193 0 l 1
 201 38 205 70 205 97 c 0
 205 140 196 169 180 186 c 1
 180 183 181 180 181 177 c 0
 181 143 155 106 124 106 c 0
 103 106 91 127 91 150 c 0
 91 154 91 158 92 162 c 0
 99 195 123 220 160 220 c 0
 195 220 221 200 227 161 c 1
 231 177 237 194 237 211 c 0
 237 273 154 279 79 279 c 1
 100 337 153 385 209 385 c 0xf780
 228 385 245 382 262 373 c 0
 277 365 304 345 316 345 c 0
 339 345 352 360 365 380 c 1
 386 380 l 1
 365 337 335 316 298 316 c 0xfb80
 287 316 271 319 249 327 c 0
 227 334 209 341 197 341 c 0
 158 341 132 327 116 298 c 1
 124 299 132 300 156 300 c 0xf780
128 125 m 0
 143 125 161 142 161 173 c 0
 161 185 156 197 143 197 c 0
 124 197 109 170 109 148 c 0
 109 133 116 125 128 125 c 0
EndSplineSet
KernsSLIF: 212 30 0 0 215 30 0 0 214 30 0 0 213 30 0 0
EndChar
StartChar: uniF701
Encoding: 129 63233 97
Width: 0
Flags: W
HStem: 473 26<-214 -180> 545 35<-182 -165>
VStem: -293 56<502 512>
Back
-62.9883 456.055 m 1
 -63.4766 463.867 -66.8945 473.145 -72.2656 483.398 c 0
 -78.125 493.652 -85.9375 503.418 -95.7031 512.695 c 0
 -104.98 521.484 -116.211 529.297 -128.418 535.645 c 0
 -140.625 541.992 -154.297 544.922 -168.945 544.922 c 0
 -181.641 544.922 -195.312 542.969 -209.961 539.062 c 0
 -224.609 535.156 -233.887 526.855 -236.816 515.137 c 0
 -238.281 507.812 -234.863 502.93 -226.562 501.465 c 0
 -218.262 500 -209.473 499.023 -201.172 499.023 c 0
 -187.5 499.023 -176.27 498.535 -167.48 497.07 c 0
 -158.691 495.605 -148.438 493.652 -137.207 491.211 c 0
 -121.582 487.793 -108.398 482.91 -97.168 477.051 c 0
 -85.4492 471.191 -74.2188 463.867 -62.9883 456.055 c 1
-44.9219 421.875 m 1
 -56.1523 430.664 -69.3359 438.477 -84.4727 444.824 c 0
 -99.6094 451.66 -115.234 457.52 -130.859 461.914 c 0
 -141.113 465.332 -152.344 467.773 -164.551 470.215 c 0
 -176.758 472.168 -189.453 473.145 -203.125 473.145 c 0
 -208.496 473.145 -214.844 473.145 -222.168 473.145 c 0
 -229.98 473.145 -236.816 472.656 -242.188 472.168 c 0
 -253.418 472.168 -262.207 472.656 -269.043 474.609 c 0
 -275.879 476.074 -281.25 478.516 -286.133 481.934 c 0
 -288.574 484.863 -290.527 488.281 -291.992 493.164 c 0
 -293.457 497.559 -293.457 501.465 -292.969 504.883 c 0
 -291.504 510.254 -289.062 516.113 -285.156 521.973 c 0
 -280.762 527.832 -276.367 533.691 -270.996 538.574 c 0
 -265.625 543.457 -260.254 548.34 -254.395 552.734 c 0
 -249.023 556.641 -243.652 560.547 -238.77 562.988 c 0
 -218.262 574.219 -194.336 580.078 -166.992 580.078 c 0
 -149.902 580.078 -132.812 576.172 -116.211 567.871 c 0
 -99.1211 560.059 -84.9609 548.828 -73.2422 535.156 c 0
 -61.0352 520.996 -52.2461 504.395 -46.3867 484.863 c 0
 -41.0156 465.82 -40.5273 444.824 -44.9219 421.875 c 1
EndSplineSet
Fore
-201 499 m 0
 -140 499 -99 482 -63 456 c 1
 -67 488 -111 545 -169 545 c 0
 -194 545 -231 539 -237 515 c 0
 -237 512 l 0
 -237 500 -217 499 -201 499 c 0
-45 422 m 1
 -67 439 -98 453 -131 462 c 1
 -150 469 -176 473 -203 473 c 2
 -222 473 l 2
 -229 473 -236 473 -242 472 c 0
 -263 472 -278 475 -286 482 c 0
 -290 486 -293 495 -293 502 c 0
 -293 505 l 0
 -288 528 -259 552 -239 563 c 0
 -218 574 -194 580 -167 580 c 0
 -106 580 -42 527 -42 451 c 0
 -42 442 -43 432 -45 422 c 1
EndSplineSet
EndChar
StartChar: uniF702
Encoding: 130 63234 98
Width: 0
Flags: W
HStem: 473 26<-214 -180> 545 35<-182 -165>
VStem: -293 56<502 512>
DStem: -58 615 -19 615 -75 537 -47 486
Back
-19.043 615.234 m 1
 -58.1055 615.234 l 1
 -75.1953 537.109 l 1
 -86.9141 550.293 -101.074 561.035 -117.188 568.359 c 0
 -132.812 576.172 -149.902 580.078 -166.992 580.078 c 0
 -194.336 580.078 -218.262 574.219 -238.77 562.988 c 0
 -243.652 560.547 -249.023 556.641 -254.395 552.734 c 0
 -260.254 548.34 -265.625 543.457 -270.996 538.574 c 0
 -276.367 533.691 -280.762 527.832 -285.156 521.973 c 0
 -289.062 516.113 -291.504 510.254 -292.969 504.883 c 0
 -293.457 501.465 -293.457 497.559 -291.992 493.164 c 0
 -290.527 488.281 -288.574 484.863 -286.133 481.934 c 0
 -281.25 478.516 -275.879 476.074 -269.043 474.609 c 0
 -262.207 472.656 -253.418 472.168 -242.188 472.168 c 0
 -236.816 472.656 -229.98 473.145 -222.168 473.145 c 0
 -214.844 473.145 -208.496 473.145 -203.125 473.145 c 0
 -189.453 473.145 -176.758 472.168 -164.551 470.215 c 0
 -152.344 467.773 -141.113 465.332 -130.859 461.914 c 0
 -115.234 457.52 -99.6094 451.66 -84.4727 444.824 c 0
 -69.3359 438.477 -56.1523 430.664 -44.9219 421.875 c 1
 -40.5273 443.848 -41.0156 465.332 -46.875 485.84 c 1
 -19.043 615.234 l 1
-62.9883 456.055 m 1
 -74.2188 463.867 -85.4492 471.191 -97.168 477.051 c 0
 -108.398 482.91 -121.582 487.793 -137.207 491.211 c 0
 -148.438 493.652 -158.691 495.605 -167.48 497.07 c 0
 -176.27 498.535 -187.5 499.023 -201.172 499.023 c 0
 -209.473 499.023 -218.262 500 -226.562 501.465 c 0
 -234.863 502.93 -238.281 507.812 -236.816 515.137 c 0
 -233.887 526.855 -224.609 535.156 -209.961 539.062 c 0
 -195.312 542.969 -181.641 544.922 -168.945 544.922 c 0
 -154.297 544.922 -140.625 541.992 -128.418 535.645 c 0
 -116.211 529.297 -104.98 521.484 -95.7031 512.695 c 0
 -85.9375 503.418 -78.125 493.652 -72.2656 483.398 c 0
 -66.8945 473.145 -63.4766 463.867 -62.9883 456.055 c 1
EndSplineSet
Fore
-19 615 m 1
 -47 486 l 1
 -44 475 -42 463 -42 451 c 0
 -42 442 -43 432 -45 422 c 1
 -67 439 -98 453 -131 462 c 1
 -150 469 -176 473 -203 473 c 2
 -222 473 l 2
 -229 473 -236 473 -242 472 c 0
 -263 472 -278 475 -286 482 c 0
 -290 486 -293 495 -293 502 c 0
 -293 505 l 0
 -288 528 -259 552 -239 563 c 0
 -218 574 -194 580 -167 580 c 0
 -132 580 -100 564 -75 537 c 1
 -58 615 l 1
 -19 615 l 1
-201 499 m 0
 -140 499 -99 482 -63 456 c 1
 -67 488 -111 545 -169 545 c 0
 -194 545 -231 539 -237 515 c 0
 -237 512 l 0
 -237 500 -217 499 -201 499 c 0
EndSplineSet
EndChar
StartChar: uniF703
Encoding: 131 63235 99
Width: 0
Flags: W
HStem: 473 26<-214 -180> 530 15<-169 -77> 545 35<-182 -165> 590 25<-70 -57>
VStem: -293 56<502 512> -40 25<560 573>
Back
-44.9219 421.875 m 1
 -41.5039 438.477 -41.0156 454.59 -42.9688 469.727 c 0
 -44.9219 484.375 -49.3164 498.535 -56.1523 511.23 c 1
 -45.8984 515.625 -37.1094 522.461 -29.7852 530.762 c 0
 -22.4609 539.551 -18.0664 549.316 -16.1133 560.059 c 0
 -12.6953 575.195 -15.1367 588.379 -23.4375 599.121 c 0
 -31.7383 609.863 -43.457 615.234 -59.082 615.234 c 0
 -72.2656 615.234 -84.9609 610.84 -97.168 602.539 c 0
 -108.887 594.238 -117.676 583.496 -123.047 570.801 c 1
 -136.23 577.148 -150.879 580.078 -166.992 580.078 c 0
 -194.336 580.078 -218.262 574.219 -238.77 562.988 c 0
 -243.652 560.547 -249.023 556.641 -254.395 552.734 c 0
 -260.254 548.34 -265.625 543.457 -270.996 538.574 c 0
 -276.367 533.691 -280.762 527.832 -285.156 521.973 c 0
 -289.062 516.113 -291.504 510.254 -292.969 504.883 c 0
 -293.457 501.465 -293.457 497.559 -291.992 493.164 c 0
 -290.527 488.281 -288.574 484.863 -286.133 481.934 c 0
 -281.25 478.516 -275.879 476.074 -269.043 474.609 c 0
 -262.207 472.656 -253.418 472.168 -242.188 472.168 c 0
 -236.816 472.656 -229.98 473.145 -222.168 473.145 c 0
 -214.844 473.145 -208.496 473.145 -203.125 473.145 c 0
 -189.453 473.145 -176.758 472.168 -164.551 470.215 c 0
 -152.344 467.773 -141.113 465.332 -130.859 461.914 c 0
 -115.234 457.52 -99.6094 451.66 -84.4727 444.824 c 0
 -69.3359 438.477 -56.1523 430.664 -44.9219 421.875 c 1
-62.9883 456.055 m 1
 -74.2188 463.867 -85.4492 471.191 -97.168 477.051 c 0
 -108.398 482.91 -121.582 487.793 -137.207 491.211 c 0
 -148.438 493.652 -158.691 495.605 -167.48 497.07 c 0
 -176.27 498.535 -187.5 499.023 -201.172 499.023 c 0
 -209.473 499.023 -218.262 500 -226.562 501.465 c 0
 -234.863 502.93 -238.281 507.812 -236.816 515.137 c 0
 -233.887 526.855 -224.609 535.156 -209.961 539.062 c 0
 -195.312 542.969 -181.641 544.922 -168.945 544.922 c 0
 -154.297 544.922 -140.625 541.992 -128.418 535.645 c 0
 -116.211 529.297 -104.98 521.484 -95.7031 512.695 c 0
 -85.9375 503.418 -78.125 493.652 -72.2656 483.398 c 0
 -66.8945 473.145 -63.4766 463.867 -62.9883 456.055 c 1
-101.074 560.059 m 0
 -99.1211 568.848 -94.7266 575.684 -87.8906 581.543 c 0
 -81.543 587.402 -73.7305 589.844 -64.9414 589.844 c 0
 -56.1523 589.844 -49.8047 587.402 -44.9219 581.543 c 0
 -40.5273 575.684 -39.0625 568.848 -41.0156 560.059 c 0
 -42.9688 551.27 -47.3633 543.945 -54.1992 538.574 c 0
 -60.5469 532.715 -68.3594 529.785 -77.1484 529.785 c 0
 -85.4492 529.785 -92.2852 532.715 -97.168 538.574 c 0
 -101.562 543.945 -103.027 551.27 -101.074 560.059 c 0
EndSplineSet
Fore
-45 422 m 1
 -67 439 -98 453 -131 462 c 1
 -150 469 -176 473 -203 473 c 2
 -222 473 l 2
 -229 473 -236 473 -242 472 c 0
 -263 472 -278 475 -286 482 c 0
 -290 486 -293 495 -293 502 c 0
 -293 505 l 0
 -288 528 -259 552 -239 563 c 0
 -218 574 -194 580 -167 580 c 0
 -152 580 -136 577 -123 571 c 1
 -112 596 -86 615 -59 615 c 0
 -32 615 -15 597 -15 573 c 0
 -15 569 -15 564 -16 560 c 0
 -20 539 -35 520 -56 511 c 1
 -47 493 -42 474 -42 453 c 0
 -42 443 -43 433 -45 422 c 1
-201 499 m 0
 -140 499 -99 482 -63 456 c 1
 -67 488 -111 545 -169 545 c 0
 -194 545 -231 539 -237 515 c 0
 -237 512 l 0
 -237 500 -217 499 -201 499 c 0
-65 590 m 0
 -83 590 -102 574 -102 553 c 0
 -102 540 -92 530 -77 530 c 0
 -59 530 -40 546 -40 567 c 0
 -40 580 -50 590 -65 590 c 0
EndSplineSet
EndChar
StartChar: uniF704
Encoding: 132 63236 100
Width: 0
Flags: W
HStem: 473 26<-214 -180> 545 35<-182 -165>
VStem: -293 56<502 512>
DStem: -114 615 -79 615 -124 571 -92 553 -54 615 -19 615 -71 534 -47 486
Back
-19.043 615.234 m 1
 -54.1992 615.234 l 1
 -70.8008 534.18 l 1
 -74.2188 537.109 -77.6367 540.527 -81.543 543.457 c 0
 -84.9609 546.387 -88.8672 549.805 -91.7969 553.223 c 1
 -79.1016 615.234 l 1
 -113.77 615.234 l 1
 -124.023 570.801 l 1
 -137.207 577.148 -151.855 580.078 -166.992 580.078 c 0
 -194.336 580.078 -218.262 574.219 -238.77 562.988 c 0
 -243.652 560.547 -249.023 556.641 -254.395 552.734 c 0
 -260.254 548.34 -265.625 543.457 -270.996 538.574 c 0
 -276.367 533.691 -280.762 527.832 -285.156 521.973 c 0
 -289.062 516.113 -291.504 510.254 -292.969 504.883 c 0
 -293.457 501.465 -293.457 497.559 -291.992 493.164 c 0
 -290.527 488.281 -288.574 484.863 -286.133 481.934 c 0
 -281.25 478.516 -275.879 476.074 -269.043 474.609 c 0
 -262.207 472.656 -253.418 472.168 -242.188 472.168 c 0
 -236.816 472.656 -229.98 473.145 -222.168 473.145 c 0
 -214.844 473.145 -208.496 473.145 -203.125 473.145 c 0
 -189.453 473.145 -176.758 472.168 -164.551 470.215 c 0
 -152.344 467.773 -141.113 465.332 -130.859 461.914 c 0
 -115.234 457.52 -99.6094 451.66 -84.4727 444.824 c 0
 -69.3359 438.477 -56.1523 430.664 -44.9219 421.875 c 1
 -40.5273 443.848 -41.0156 465.332 -46.875 485.84 c 1
 -19.043 615.234 l 1
-62.9883 456.055 m 1
 -74.2188 463.867 -85.4492 471.191 -97.168 477.051 c 0
 -108.398 482.91 -121.582 487.793 -137.207 491.211 c 0
 -148.438 493.652 -158.691 495.605 -167.48 497.07 c 0
 -176.27 498.535 -187.5 499.023 -201.172 499.023 c 0
 -209.473 499.023 -218.262 500 -226.562 501.465 c 0
 -234.863 502.93 -238.281 507.812 -236.816 515.137 c 0
 -233.887 526.855 -224.609 535.156 -209.961 539.062 c 0
 -195.312 542.969 -181.641 544.922 -168.945 544.922 c 0
 -154.297 544.922 -140.625 541.992 -128.418 535.645 c 0
 -116.211 529.297 -104.98 521.484 -95.7031 512.695 c 0
 -85.9375 503.418 -78.125 493.652 -72.2656 483.398 c 0
 -66.8945 473.145 -63.4766 463.867 -62.9883 456.055 c 1
EndSplineSet
Fore
-19 615 m 1
 -47 486 l 1
 -44 475 -42 463 -42 451 c 0
 -42 442 -43 432 -45 422 c 1
 -67 439 -98 453 -131 462 c 1
 -150 469 -176 473 -203 473 c 2
 -222 473 l 2
 -229 473 -236 473 -242 472 c 0
 -263 472 -278 475 -286 482 c 0
 -290 486 -293 495 -293 502 c 0
 -293 505 l 0
 -288 528 -259 552 -239 563 c 0
 -218 574 -194 580 -167 580 c 0
 -152 580 -137 577 -124 571 c 1
 -114 615 l 1
 -79 615 l 1
 -92 553 l 1
 -85 547 -77 541 -71 534 c 1
 -54 615 l 1
 -19 615 l 1
-201 499 m 0
 -140 499 -99 482 -63 456 c 1
 -67 488 -111 545 -169 545 c 0
 -194 545 -231 539 -237 515 c 0
 -237 512 l 0
 -237 500 -217 499 -201 499 c 0
EndSplineSet
EndChar
StartChar: ellipsis
Encoding: 133 8230 101
Width: 682
Flags: W
HStem: -8 21G<102 122 329 349 556.5 576>
VStem: 81 78<22 37> 308 78<22 37>
Back
460.938 29.7852 m 0
 457.031 8.78906 441.895 -3.90625 415.039 -6.83594 c 1
 391.602 -6.83594 380.859 5.37109 382.812 29.7852 c 1
 389.16 56.6406 404.785 69.8242 431.152 69.8242 c 0
 441.895 69.8242 450.195 65.918 456.055 58.1055 c 0
 461.426 50.7812 462.891 41.5039 460.938 29.7852 c 0
308.105 29.7852 m 0
 304.199 8.78906 288.574 -3.90625 262.207 -6.83594 c 1
 238.77 -6.83594 228.027 5.37109 229.98 29.7852 c 1
 235.84 56.6406 251.953 69.8242 277.832 69.8242 c 0
 288.574 69.8242 296.875 65.918 303.223 58.1055 c 0
 308.105 50.7812 310.059 41.5039 308.105 29.7852 c 0
154.785 29.7852 m 0
 150.391 5.37109 134.766 -6.83594 108.887 -6.83594 c 0
 83.0078 -6.83594 72.2656 5.37109 77.1484 29.7852 c 0
 83.0078 56.6406 99.1211 69.8242 125 69.8242 c 0
 150.879 69.8242 161.133 56.6406 154.785 29.7852 c 0
EndSplineSet
Fore
159 37 m 0
 159 11 133 -8 111 -8 c 0
 93 -8 81 6 81 22 c 0
 81 24 82 27 82 29 c 0
 87 51 107 68 127 68 c 0
 145 68 159 55 159 37 c 0
386 37 m 0
 386 11 360 -8 338 -8 c 0
 320 -8 308 6 308 22 c 0
 308 24 309 27 309 29 c 0
 314 51 334 68 355 68 c 0
 372 68 386 55 386 37 c 0
582 68 m 0
 600 68 613 55 613 38 c 0
 613 35 613 32 612 29 c 0
 608 10 587 -8 565 -8 c 0
 548 -8 536 6 536 22 c 0
 536 24 537 27 537 29 c 0
 542 51 562 68 582 68 c 0
EndSplineSet
EndChar
StartChar: uniF705
Encoding: 134 63237 102
Width: 0
Flags: W
Back
-36.1328 597.168 m 1
 -53.2227 537.109 l 1
 -81.0547 454.102 l 1
 -84.4727 448.242 -88.8672 444.824 -94.2383 444.824 c 0
 -101.562 444.824 -104.492 448.242 -103.027 454.102 c 1
 -96.1914 537.109 l 1
 -85.9375 597.168 l 1
 -36.1328 597.168 l 1
EndSplineSet
Ref: 139 63242 N 1 0 0 1 -80 0
EndChar
StartChar: uniF706
Encoding: 135 63238 103
Width: 0
Flags: W
HStem: 445 23<-208 -188.961> 496 19<-209 -202> 583 20<-189 -181>
VStem: -239 20<527 542> -171 20<551 566>
Back
-17.0898 603.027 m 1
 -28.3203 551.758 -54.1992 512.207 -95.2148 483.887 c 0
 -112.305 472.168 -130.371 462.402 -148.438 455.566 c 0
 -166.992 448.73 -186.523 444.824 -208.008 444.824 c 2
 -262.207 444.824 l 1
 -258.789 462.891 l 1
 -236.328 464.844 -215.82 476.562 -198.242 497.07 c 1
 -206.055 496.094 l 2
 -233.887 496.094 -244.141 514.16 -235.84 549.805 c 0
 -233.398 563.477 -227.051 575.684 -216.797 586.426 c 0
 -207.031 597.656 -195.801 603.027 -183.105 603.027 c 0
 -170.898 603.027 -162.109 597.656 -155.762 586.914 c 0
 -149.902 576.172 -148.438 564.453 -151.855 550.781 c 0
 -160.156 512.207 -178.223 484.863 -206.055 467.773 c 1
 -167.48 467.773 -136.23 481.445 -111.816 507.812 c 0
 -100.586 520.02 -90.8203 533.691 -83.0078 549.316 c 0
 -75.1953 564.941 -68.8477 583.008 -64.9414 603.027 c 1
 -17.0898 603.027 l 1
-171.875 549.805 m 0
 -169.922 559.57 -170.41 567.383 -172.363 573.73 c 0
 -174.805 579.59 -179.688 583.008 -187.012 583.008 c 0
 -202.148 583.008 -212.402 571.777 -216.797 549.805 c 0
 -222.168 526.855 -217.285 515.137 -202.148 515.137 c 0
 -187.5 515.137 -177.246 526.855 -171.875 549.805 c 0
EndSplineSet
Ref: 140 63243 N 1 0 0 1 -108 -0
EndChar
StartChar: uniF707
Encoding: 136 63239 104
Width: 0
Flags: W
HStem: 445 17<-266 -259> 532 16<-246 -235> 557 22<-139 -136>
VStem: -296 18<474 492> -228 19<506 517> -117 26<530 541>
Back
-17.0898 582.031 m 1
 -37.1094 489.258 -90.8203 442.871 -178.223 442.871 c 1
 -173.828 462.891 l 1
 -162.109 465.82 -150.391 472.656 -139.648 483.398 c 0
 -128.418 494.629 -121.582 506.348 -119.141 519.043 c 0
 -113.77 544.434 -120.117 557.129 -139.16 557.129 c 0
 -156.25 557.129 -167.969 542.48 -173.828 514.16 c 1
 -192.871 514.16 l 1
 -187.012 542.48 -193.848 557.129 -213.867 557.129 c 0
 -217.285 557.129 -220.703 556.152 -224.609 554.688 c 0
 -228.027 552.734 -231.445 550.781 -234.863 547.852 c 1
 -223.633 547.852 -215.82 542.969 -211.914 533.691 c 0
 -208.008 523.926 -207.52 511.719 -210.938 497.07 c 0
 -219.238 462.402 -236.816 444.824 -264.16 444.824 c 0
 -275.391 444.824 -284.18 450.684 -290.527 461.426 c 0
 -296.875 472.656 -298.34 484.375 -294.922 497.07 c 0
 -292.48 512.207 -286.133 526.367 -276.855 539.062 c 0
 -269.531 548.828 -260.742 558.105 -250 566.406 c 0
 -239.258 574.707 -225.586 579.102 -208.984 579.102 c 0
 -191.895 579.102 -180.664 569.824 -175.781 550.781 c 1
 -171.875 559.082 -166.016 565.43 -158.691 570.801 c 0
 -150.879 576.172 -143.555 579.102 -136.23 579.102 c 0
 -99.1211 579.102 -84.9609 559.57 -92.7734 520.02 c 0
 -99.1211 495.117 -111.328 476.562 -129.883 463.867 c 1
 -97.168 476.074 -76.1719 502.93 -66.8945 544.922 c 1
 -63.9648 562.012 l 1
 -61.0352 582.031 l 1
 -17.0898 582.031 l 1
-229.004 497.07 m 0
 -227.051 507.812 -227.539 516.113 -229.98 522.461 c 0
 -232.91 528.809 -237.793 532.227 -246.094 532.227 c 0
 -253.418 532.227 -259.766 528.32 -265.625 520.996 c 0
 -270.996 513.672 -274.902 505.859 -275.879 497.07 c 0
 -278.809 486.816 -278.809 478.516 -275.879 472.168 c 0
 -273.438 465.332 -268.555 461.914 -261.23 461.914 c 0
 -245.117 461.914 -234.375 473.633 -229.004 497.07 c 0
EndSplineSet
Ref: 141 63244 N 1 0 0 1 -112 0
EndChar
StartChar: uniF708
Encoding: 137 63240 105
Width: 0
Flags: W
HStem: 508 32<-209 -155 -98 -46>
DStem: -155 508 -106 508 -165 445 -122 445 -138 603 -81 603 -149 540 -98 540
Back
-138.184 603.027 m 1
 -147.949 540.039 l 1
 -207.031 540.039 l 1
 -213.867 507.812 l 1
 -153.809 507.812 l 1
 -164.062 444.824 l 1
 -121.094 444.824 l 1
 -104.98 507.812 l 1
 -44.9219 507.812 l 1
 -38.0859 540.039 l 1
 -97.168 540.039 l 1
 -81.0547 603.027 l 1
 -138.184 603.027 l 1
EndSplineSet
Ref: 142 63245 N 1 0 0 1 -111 -40
EndChar
StartChar: uniF709
Encoding: 138 63241 106
Width: 0
Flags: W
HStem: 445 23<-131 -122>
VStem: -181 40<487 495> -89 24<517 529> -8 45<648 657>
Back
-89.8438 506.836 m 1
 -89.8438 506.836 -89.8438 509.277 -88.8672 514.648 c 0
 -88.3789 519.531 -88.8672 524.414 -89.8438 528.809 c 0
 -92.7734 538.574 -98.6328 542.969 -107.91 542.969 c 0
 -114.746 542.969 -120.605 540.039 -126.465 534.18 c 0
 -132.324 527.832 -136.23 519.043 -139.16 506.836 c 0
 -145.02 480.957 -140.137 467.773 -124.023 467.773 c 0
 -121.094 467.773 -117.676 469.238 -112.793 471.191 c 0
 -108.398 473.145 -104.492 475.586 -101.074 479.004 c 0
 -97.6562 482.91 -95.2148 487.793 -94.2383 493.164 c 0
 -92.7734 498.535 -91.3086 502.93 -89.8438 506.836 c 1
-89.8438 563.965 m 1
 -67.8711 558.105 -60.5469 538.574 -66.8945 505.859 c 0
 -70.3125 490.234 -78.125 476.074 -89.8438 463.379 c 0
 -102.051 451.172 -115.234 444.824 -129.883 444.824 c 0
 -147.461 444.824 -160.645 451.172 -169.922 462.891 c 0
 -179.199 475.098 -182.129 489.746 -179.199 506.836 c 0
 -173.828 530.273 -161.133 549.316 -142.09 564.453 c 0
 -122.559 579.59 -95.7031 591.797 -61.0352 601.074 c 0
 -42.4805 606.445 -28.8086 612.305 -20.0195 619.141 c 0
 -11.2305 625.488 -7.32422 636.23 -7.8125 649.902 c 1
 37.1094 660.156 l 1
 37.1094 656.738 36.1328 651.855 35.1562 645.02 c 0
 33.2031 634.277 27.832 625 19.043 617.188 c 0
 10.2539 608.887 -3.90625 601.562 -23.9258 595.215 c 0
 -35.1562 590.82 -47.3633 585.938 -60.5469 580.566 c 0
 -73.7305 574.707 -83.4961 569.336 -89.8438 563.965 c 1
EndSplineSet
Fore
-108 543 m 0
 -126 543 -141 521 -141 489 c 0
 -141 475 -136 468 -124 468 c 0
 -119 468 -110 472 -101 479 c 1
 -95 487 -92 499 -90 507 c 1
 -90 507 -89 513 -89 519 c 0
 -89 537 -96 543 -108 543 c 0
-90 564 m 1
 -73 559 -65 547 -65 527 c 0
 -65 521 -65 514 -67 506 c 0
 -74 474 -101 445 -130 445 c 0
 -160 445 -181 465 -181 493 c 0
 -181 497 -180 502 -179 507 c 0
 -169 554 -130 582 -61 601 c 0
 -25 612 -8 621 -8 648 c 2
 -8 650 l 1
 37 660 l 1
 37 657 l 0
 37 654 36 650 35 645 c 0
 31 624 16 608 -24 595 c 0
 -48 587 -77 575 -90 564 c 1
EndSplineSet
EndChar
StartChar: uniF70A
Encoding: 139 63242 107
Width: 0
Flags: W
Back
43.9453 597.168 m 1
 26.8555 537.109 l 1
 -0.976562 454.102 l 1
 -4.39453 448.242 -8.78906 444.824 -14.1602 444.824 c 0
 -21.4844 444.824 -24.4141 448.242 -22.9492 454.102 c 1
 -16.1133 537.109 l 1
 -5.85938 597.168 l 1
 43.9453 597.168 l 1
EndSplineSet
Fore
44 597 m 1
 31 548 15 501 -1 454 c 0
 -4 448 -8 445 -14 445 c 0
 -19 445 -23 447 -23 452 c 2
 -23 454 l 1
 -19 504 -15 552 -6 597 c 1
 44 597 l 1
EndSplineSet
EndChar
StartChar: uniF70B
Encoding: 140 63243 108
Width: 0
Flags: W
HStem: 445 23<-100 -80.9613> 496 19<-101 -94> 583 20<-81 -73>
VStem: -131 20<527 542> -63 20<551 566>
Back
90.8203 603.027 m 1
 79.5898 551.758 53.7109 512.207 13.1836 483.887 c 0
 -4.39453 472.168 -21.9727 462.402 -40.5273 455.566 c 0
 -58.5938 448.73 -78.6133 444.824 -100.098 444.824 c 2
 -153.809 444.824 l 1
 -150.879 462.891 l 1
 -128.418 464.844 -107.91 476.562 -89.8438 497.07 c 1
 -98.1445 496.094 l 2
 -125.977 496.094 -136.23 514.16 -127.93 549.805 c 0
 -125.488 563.477 -119.141 575.684 -108.887 586.426 c 0
 -99.1211 597.656 -87.8906 603.027 -75.1953 603.027 c 0
 -62.9883 603.027 -54.1992 597.656 -47.8516 586.914 c 0
 -41.9922 576.172 -40.5273 564.453 -43.9453 550.781 c 0
 -51.7578 512.207 -69.8242 484.863 -98.1445 467.773 c 1
 -59.5703 467.773 -27.832 481.445 -3.90625 507.812 c 0
 7.32422 520.02 17.0898 533.691 24.9023 549.316 c 0
 33.2031 564.941 39.0625 583.008 42.9688 603.027 c 1
 90.8203 603.027 l 1
-63.9648 549.805 m 0
 -62.0117 559.57 -62.0117 567.383 -64.4531 573.73 c 0
 -66.8945 579.59 -71.7773 583.008 -79.1016 583.008 c 0
 -94.2383 583.008 -104.492 571.777 -108.887 549.805 c 0
 -114.258 526.855 -109.375 515.137 -94.2383 515.137 c 0
 -79.1016 515.137 -69.3359 526.855 -63.9648 549.805 c 0
EndSplineSet
Fore
-131 529 m 0
 -131 563 -106 603 -75 603 c 0
 -55 603 -43 586 -43 564 c 0
 -43 560 -43 555 -44 551 c 0
 -52 513 -70 485 -98 468 c 1
 -59 468 -28 481 -4 508 c 0
 18 532 35 563 43 603 c 1
 91 603 l 1
 80 552 54 513 13 484 c 0
 -23 460 -57 445 -100 445 c 2
 -154 445 l 1
 -151 463 l 1
 -127 465 -108 476 -90 497 c 1
 -98 496 l 2
 -120 496 -131 507 -131 529 c 0
-94 515 m 0
 -76 515 -63 533 -63 563 c 0
 -63 575 -68 583 -79 583 c 0
 -94 583 -104 572 -109 550 c 0
 -110 544 -111 539 -111 535 c 0
 -111 522 -105 515 -94 515 c 0
EndSplineSet
EndChar
StartChar: uniF70C
Encoding: 141 63244 109
Width: 0
Flags: W
HStem: 445 17<-154 -147> 532 16<-134 -123> 557 22<-27 -24>
VStem: -184 18<474 492> -116 19<506 517> -5 26<530 541>
Back
95.2148 582.031 m 1
 75.1953 489.258 21.4844 442.871 -65.918 442.871 c 1
 -62.0117 462.891 l 1
 -49.8047 465.82 -38.5742 472.656 -27.3438 483.398 c 0
 -16.6016 494.629 -9.76562 506.348 -6.83594 519.043 c 0
 -1.46484 544.434 -8.30078 557.129 -26.8555 557.129 c 0
 -44.4336 557.129 -56.1523 542.48 -62.0117 514.16 c 1
 -81.0547 514.16 l 1
 -75.1953 542.48 -82.0312 557.129 -102.051 557.129 c 0
 -105.469 557.129 -108.887 556.152 -112.305 554.688 c 0
 -116.211 552.734 -119.629 550.781 -123.047 547.852 c 1
 -111.816 547.852 -104.004 542.969 -100.098 533.691 c 0
 -96.1914 523.926 -95.7031 511.719 -99.1211 497.07 c 0
 -106.934 462.402 -124.512 444.824 -151.855 444.824 c 0
 -163.574 444.824 -172.363 450.684 -178.711 461.426 c 0
 -185.059 472.656 -186.523 484.375 -183.105 497.07 c 0
 -181.641 504.395 -179.688 511.719 -176.758 518.555 c 0
 -174.316 525.391 -170.41 532.227 -165.039 539.062 c 0
 -157.715 550.293 -148.438 560.059 -138.184 567.871 c 0
 -127.441 576.172 -113.77 580.078 -97.168 580.078 c 0
 -80.5664 580.078 -69.3359 570.312 -63.9648 550.781 c 1
 -60.0586 559.082 -54.6875 565.43 -47.8516 570.801 c 0
 -41.5039 576.172 -33.2031 579.102 -23.9258 579.102 c 0
 12.6953 579.102 26.8555 559.57 19.043 520.02 c 0
 13.1836 495.117 0.488281 476.562 -18.0664 463.867 c 1
 14.6484 476.074 35.6445 502.93 44.9219 544.922 c 1
 47.8516 562.012 l 1
 50.7812 582.031 l 1
 95.2148 582.031 l 1
-117.188 497.07 m 0
 -115.234 507.812 -115.234 516.113 -118.164 522.461 c 0
 -120.605 528.809 -125.977 532.227 -133.789 532.227 c 0
 -141.113 532.227 -147.949 528.32 -153.32 520.996 c 0
 -159.18 513.672 -162.598 505.859 -164.062 497.07 c 0
 -166.504 486.816 -166.504 478.516 -164.062 472.168 c 0
 -161.133 465.332 -156.25 461.914 -148.926 461.914 c 0
 -132.812 461.914 -122.559 473.633 -117.188 497.07 c 0
EndSplineSet
Fore
21 539 m 0
 21 508 2 478 -18 464 c 1
 15 476 36 503 45 545 c 2
 48 562 l 1
 51 582 l 1
 95 582 l 1
 75 489 21 443 -66 443 c 1
 -62 463 l 1
 -34 469 -5 503 -5 534 c 0
 -5 549 -12 557 -27 557 c 0
 -44 557 -56 543 -62 514 c 1
 -81 514 l 1
 -80 521 -79 527 -79 532 c 0
 -79 549 -87 557 -102 557 c 0
 -109 557 -115 554 -123 548 c 1
 -105 548 -97 535 -97 515 c 0
 -97 510 -98 504 -99 497 c 0
 -107 462 -124 445 -152 445 c 0
 -171 445 -184 464 -184 485 c 0
 -184 508 -177 524 -165 539 c 1
 -150 562 -130 580 -97 580 c 0
 -80 580 -69 570 -64 551 c 1
 -56 567 -43 579 -24 579 c 0
 6 579 21 566 21 539 c 0
-149 462 m 0
 -130 462 -116 480 -116 510 c 0
 -116 523 -121 532 -134 532 c 0
 -153 532 -166 502 -166 483 c 0
 -166 470 -160 462 -149 462 c 0
EndSplineSet
EndChar
StartChar: uniF70D
Encoding: 142 63245 110
Width: 0
Flags: W
HStem: 548 32<-98 -44 13 65>
DStem: -44 548 5 548 -54 485 -11 485 -27 643 30 643 -38 580 13 580
Back
-26.8555 643.066 m 1
 -38.0859 580.078 l 1
 -97.168 580.078 l 1
 -104.004 547.852 l 1
 -43.9453 547.852 l 1
 -54.1992 484.863 l 1
 -11.2305 484.863 l 1
 4.88281 547.852 l 1
 64.9414 547.852 l 1
 71.7773 580.078 l 1
 13.1836 580.078 l 1
 29.7852 643.066 l 1
 -26.8555 643.066 l 1
EndSplineSet
Fore
-27 643 m 1
 30 643 l 1
 13 580 l 1
 72 580 l 1
 65 548 l 1
 5 548 l 1
 -11 485 l 1
 -54 485 l 1
 -44 548 l 1
 -104 548 l 1
 -97 580 l 1
 -38 580 l 1
 -27 643 l 1
EndSplineSet
EndChar
StartChar: uniF70E
Encoding: 143 63246 111
Width: 0
Flags: W
HStem: 445 26<-107 -97>
VStem: -162 43<492 500> -61 28<524 536> 29 50<668 682>
Back
-62.0117 513.184 m 1
 -62.0117 513.184 -61.5234 515.625 -61.0352 521.484 c 0
 -60.5469 527.344 -60.5469 532.227 -62.0117 537.109 c 0
 -65.918 547.852 -72.2656 553.223 -81.0547 553.223 c 0
 -88.3789 553.223 -95.2148 549.805 -102.051 542.969 c 0
 -108.887 536.133 -113.77 526.367 -117.188 513.184 c 0
 -123.047 484.863 -117.188 471.191 -99.1211 471.191 c 0
 -95.7031 471.191 -91.7969 472.168 -86.9141 474.121 c 0
 -82.5195 476.074 -78.125 479.004 -74.2188 482.91 c 0
 -70.8008 486.816 -68.3594 492.188 -66.4062 498.047 c 0
 -64.9414 503.906 -63.4766 508.789 -62.0117 513.184 c 1
-62.0117 576.172 m 1
 -37.1094 569.824 -28.8086 548.828 -36.1328 512.207 c 0
 -40.0391 494.629 -48.3398 479.004 -61.5234 465.332 c 0
 -74.707 451.66 -89.3555 444.824 -105.957 444.824 c 0
 -125.488 444.824 -140.137 451.66 -150.391 464.355 c 0
 -160.645 477.539 -164.062 493.652 -160.156 513.184 c 0
 -148.438 564.453 -105.469 599.121 -29.7852 618.164 c 0
 -8.78906 623.535 6.83594 629.883 16.1133 637.207 c 0
 25.3906 644.531 29.7852 655.762 28.8086 670.898 c 1
 79.1016 682.129 l 1
 79.1016 678.223 78.125 672.852 77.1484 666.016 c 0
 74.2188 654.785 68.3594 644.531 59.082 634.766 c 0
 49.8047 625.488 33.6914 617.188 11.2305 609.863 c 0
 -2.44141 605.957 -16.1133 601.074 -29.7852 594.727 c 0
 -43.9453 588.379 -54.6875 582.031 -62.0117 576.172 c 1
EndSplineSet
Fore
-81 553 m 0
 -101 553 -119 525 -119 495 c 0
 -119 479 -112 471 -99 471 c 0
 -92 471 -83 475 -74 483 c 1
 -68 491 -64 505 -62 513 c 1
 -62 513 -61 520 -61 527 c 0
 -61 545 -69 553 -81 553 c 0
-33 536 m 0
 -33 490 -67 445 -106 445 c 0
 -140 445 -162 467 -162 498 c 0
 -162 503 -161 508 -160 513 c 0
 -149 564 -106 599 -30 618 c 0
 11 629 29 639 29 669 c 2
 29 671 l 1
 79 682 l 1
 79 646 59 625 11 610 c 0
 -15 602 -47 588 -62 576 c 1
 -43 571 -33 558 -33 536 c 0
EndSplineSet
EndChar
StartChar: uniF70F
Encoding: 144 63247 112
Width: 545
Flags: W
HStem: 0 19<330 431> 90 20<149 162> 293 17<92 131> 352 33<239 260>
VStem: 64 54<38 51> 175 17<60 73> 331 54<274 293>
DStem: 94 194 149 207 66 62 125 94 329 257 381 257 274 0 330 19 503 378 555 378 435 55 487 55
Back
486.816 55.1758 m 1
 479.004 18.5547 460.449 0 431.152 0 c 2
 273.926 0 l 1
 329.102 256.836 l 2
 334.961 285.156 330.566 307.617 314.941 325.684 c 0
 299.805 343.262 277.832 352.051 250 352.051 c 0
 202.637 352.051 163.086 337.891 130.859 310.059 c 1
 165.039 310.059 189.941 295.41 206.055 266.113 c 1
 191.406 262.207 179.199 255.371 168.945 245.605 c 0
 159.18 235.84 152.344 223.145 148.926 207.031 c 2
 125 94.2383 l 1
 130.371 99.1211 135.742 103.516 141.113 105.957 c 0
 146.484 108.887 152.832 109.863 160.156 109.863 c 0
 171.387 109.863 180.176 104.98 186.523 95.2148 c 0
 192.871 84.9609 193.848 70.3125 189.941 50.7812 c 0
 182.129 13.1836 157.227 -5.85938 116.211 -5.85938 c 0
 95.2148 -5.85938 80.5664 0 71.7773 12.207 c 0
 63.4766 23.9258 61.5234 40.5273 65.918 62.0117 c 2
 94.2383 193.848 l 1
 103.516 235.352 128.906 261.719 169.922 272.949 c 1
 155.273 286.133 129.395 292.969 91.7969 292.969 c 1
 105.469 319.824 129.883 341.797 166.016 359.863 c 0
 196.777 376.465 227.539 384.766 257.812 384.766 c 0
 357.91 384.766 398.926 342.285 380.859 256.836 c 2
 330.078 19.043 l 1
 391.113 19.043 l 2
 400.879 19.043 410.156 21.9727 418.457 27.832 c 0
 426.758 34.1797 432.129 42.9688 435.059 55.1758 c 2
 502.93 377.93 l 1
 555.176 377.93 l 1
 486.816 55.1758 l 1
173.828 50.7812 m 0
 176.758 62.5 175.781 71.7773 171.875 79.1016 c 0
 167.969 86.4258 162.598 89.8438 155.762 89.8438 c 0
 149.414 89.8438 142.09 86.4258 134.277 79.1016 c 0
 126.953 71.7773 121.582 62.0117 119.141 49.8047 c 0
 117.188 42.4805 117.676 34.668 120.605 25.8789 c 0
 123.535 17.0898 129.883 13.1836 140.137 13.1836 c 0
 146.484 13.1836 153.32 16.1133 160.156 22.9492 c 0
 166.504 29.7852 171.387 39.0625 173.828 50.7812 c 0
EndSplineSet
Fore
487 55 m 2
 479 18 460 0 431 0 c 2
 274 0 l 1
 329 257 l 2
 331 264 331 272 331 278 c 0
 331 323 299 352 250 352 c 0
 203 352 163 338 131 310 c 1
 165 310 190 295 206 266 c 1
 177 258 156 239 149 207 c 2
 125 94 l 1
 135 105 145 110 160 110 c 0
 179 110 192 97 192 71 c 0
 192 65 191 58 190 51 c 0
 182 13 157 -6 116 -6 c 0
 82 -6 64 11 64 42 c 0
 64 48 64 55 66 62 c 2
 94 194 l 2
 103 235 128 261 170 273 c 1
 156 286 129 293 92 293 c 1
 105 320 130 342 166 360 c 0
 196 377 227 385 258 385 c 0
 343 385 385 354 385 293 c 0
 385 282 384 270 381 257 c 2
 330 19 l 1
 391 19 l 2
 411 19 430 31 435 55 c 2
 503 378 l 1
 555 378 l 1
 487 55 l 2
140 13 m 0
 155 13 175 31 175 63 c 0
 175 79 167 90 156 90 c 0
 141 90 118 70 118 40 c 0
 118 27 124 13 140 13 c 0
EndSplineSet
EndChar
